M48
;Layer_Color=9474304
;FILE_FORMAT=2:5
INCH,LZ
;TYPE=PLATED
T1F00S00C0.02874
T2F00S00C0.03346
T3F00S00C0.03543
T4F00S00C0.03898
T5F00S00C0.04016
T6F00S00C0.04094
T7F00S00C0.04134
T8F00S00C0.04331
T9F00S00C0.06299
%
T01
X0142Y0109
X0152
X0222
X0232
Y0229
X0222
X0212
X0202
X0192
X0182
X0172
X0162
X0152
X0142
T02
X0495Y01205
X0505
Y01375
X0495
X04945Y01545
X05045
X05605Y02335
X05705
Y0258
X05605
X0391Y0266
X0381
Y0176
X0391
X0385Y01565
X0375
X03555
X03455
X0326
X0316
X0296
X0286
X0257Y0244
Y0254
X02575Y0267
Y0277
X0217Y02725
X0207
X02025Y02495
X02125
X02245
X02345
T03
X0471Y01915
X0481
Y02515
X0471
X0461
X0451
X0441
X0431
X0421
X0411
X0401
X0391
X0381
X0371
X0361
X0351
X0341
X0331
X0321
Y01915
X0331
X0341
X0351
X0361
X0371
X0381
X0391
X0401
X0411
X0421
X0431
X0441
X0451
X0461
X0311
X0301
X0291
Y02515
X0301
X0311
T04
X0286142Y0109205
X0303858
Y0134795
X0286142
X0315642
X0333358
X0345642
X0363358
X0375142
X0392858
Y0109205
X0375142
X0363358
X0345642
X0333358
X0315642
X0183858Y0247705
X0166142
Y0273295
X0183858
T05
X05945Y02195
Y02295
Y02395
Y02495
Y02595
Y02695
Y02795
X03855Y02895
X03755
X03655
X03555
X03455
X03355
X03255
X03155
T06
X05945Y01125
Y01225
Y01325
Y01425
Y01525
Y01625
T07
X04345Y0125
X04445
Y01535
X04345
X0132Y02495
X0122
Y0275
X0132
T08
X0475Y029
X0485
X0495
X0465
X024
X023
X022
X021
T09
X0506Y01865
X05315
X05565
X05815
M30
