G04*
G04 #@! TF.GenerationSoftware,Altium Limited,Altium Designer,21.8.1 (53)*
G04*
G04 Layer_Color=16711935*
%FSLAX25Y25*%
%MOIN*%
G70*
G04*
G04 #@! TF.SameCoordinates,F694C61F-55F7-4EF8-90FC-B60A50DA021C*
G04*
G04*
G04 #@! TF.FilePolarity,Positive*
G04*
G01*
G75*
%ADD11C,0.00787*%
G36*
X102456Y134207D02*
Y133879D01*
X100538Y133352D01*
X100534D01*
X100527Y133348D01*
X100516Y133344D01*
X100498Y133341D01*
X100458Y133330D01*
X100411Y133319D01*
X100360Y133304D01*
X100312Y133290D01*
X100272Y133279D01*
X100254Y133275D01*
X100243Y133272D01*
X100247D01*
X100250Y133268D01*
X100272Y133264D01*
X100305Y133257D01*
X100345Y133246D01*
X100389Y133235D01*
X100440Y133221D01*
X100491Y133210D01*
X100538Y133195D01*
X102456Y132664D01*
Y132314D01*
X99937Y131656D01*
Y132001D01*
X101590Y132376D01*
X101594D01*
X101601Y132380D01*
X101616Y132384D01*
X101634Y132387D01*
X101659Y132391D01*
X101685Y132398D01*
X101717Y132405D01*
X101754Y132413D01*
X101830Y132431D01*
X101918Y132449D01*
X102012Y132467D01*
X102107Y132485D01*
X102103D01*
X102089Y132489D01*
X102070Y132496D01*
X102041Y132500D01*
X102012Y132507D01*
X101976Y132518D01*
X101896Y132536D01*
X101816Y132558D01*
X101776Y132565D01*
X101739Y132576D01*
X101707Y132584D01*
X101677Y132591D01*
X101656Y132598D01*
X101641Y132602D01*
X99937Y133079D01*
Y133483D01*
X101215Y133839D01*
X101219D01*
X101237Y133847D01*
X101262Y133854D01*
X101295Y133861D01*
X101339Y133872D01*
X101386Y133887D01*
X101441Y133901D01*
X101503Y133916D01*
X101572Y133934D01*
X101641Y133949D01*
X101790Y133982D01*
X101947Y134014D01*
X102107Y134040D01*
X102103D01*
X102096Y134043D01*
X102081D01*
X102063Y134051D01*
X102041Y134054D01*
X102016Y134062D01*
X101983Y134065D01*
X101947Y134076D01*
X101867Y134094D01*
X101772Y134116D01*
X101670Y134138D01*
X101557Y134167D01*
X99937Y134560D01*
Y134899D01*
X102456Y134207D01*
D02*
G37*
G36*
X101823Y131423D02*
X101874Y131415D01*
X101932Y131401D01*
X101994Y131383D01*
X102060Y131353D01*
X102129Y131313D01*
X102132D01*
X102136Y131310D01*
X102158Y131291D01*
X102191Y131266D01*
X102227Y131230D01*
X102271Y131182D01*
X102318Y131124D01*
X102362Y131059D01*
X102402Y130982D01*
Y130979D01*
X102405Y130971D01*
X102409Y130960D01*
X102416Y130946D01*
X102424Y130924D01*
X102435Y130898D01*
X102449Y130840D01*
X102467Y130771D01*
X102486Y130687D01*
X102496Y130596D01*
X102500Y130498D01*
Y130440D01*
X102496Y130411D01*
Y130378D01*
X102493Y130341D01*
X102489Y130298D01*
X102474Y130207D01*
X102460Y130112D01*
X102435Y130017D01*
X102402Y129927D01*
Y129923D01*
X102398Y129916D01*
X102391Y129905D01*
X102384Y129890D01*
X102362Y129846D01*
X102329Y129796D01*
X102285Y129737D01*
X102234Y129675D01*
X102172Y129617D01*
X102103Y129562D01*
X102100D01*
X102092Y129555D01*
X102081Y129552D01*
X102067Y129541D01*
X102049Y129533D01*
X102027Y129523D01*
X101972Y129497D01*
X101903Y129472D01*
X101827Y129450D01*
X101739Y129435D01*
X101648Y129428D01*
X101619Y129741D01*
X101623D01*
X101626D01*
X101637Y129745D01*
X101652D01*
X101685Y129752D01*
X101732Y129763D01*
X101779Y129777D01*
X101834Y129792D01*
X101885Y129817D01*
X101932Y129843D01*
X101936Y129846D01*
X101950Y129857D01*
X101976Y129876D01*
X102001Y129905D01*
X102034Y129941D01*
X102067Y129981D01*
X102100Y130036D01*
X102129Y130094D01*
Y130098D01*
X102132Y130101D01*
X102136Y130112D01*
X102140Y130123D01*
X102151Y130159D01*
X102165Y130207D01*
X102180Y130265D01*
X102191Y130331D01*
X102198Y130403D01*
X102201Y130483D01*
Y130516D01*
X102198Y130553D01*
X102194Y130596D01*
X102187Y130647D01*
X102180Y130705D01*
X102165Y130764D01*
X102147Y130818D01*
X102143Y130826D01*
X102136Y130844D01*
X102121Y130869D01*
X102107Y130902D01*
X102081Y130935D01*
X102056Y130971D01*
X102027Y131008D01*
X101990Y131037D01*
X101987Y131040D01*
X101972Y131048D01*
X101954Y131059D01*
X101925Y131073D01*
X101896Y131088D01*
X101859Y131099D01*
X101819Y131106D01*
X101776Y131109D01*
X101772D01*
X101754D01*
X101732Y131106D01*
X101703Y131102D01*
X101674Y131091D01*
X101637Y131080D01*
X101601Y131062D01*
X101568Y131037D01*
X101565Y131033D01*
X101554Y131022D01*
X101539Y131008D01*
X101517Y130982D01*
X101495Y130953D01*
X101470Y130913D01*
X101444Y130866D01*
X101423Y130811D01*
X101419Y130807D01*
X101415Y130789D01*
X101404Y130760D01*
X101401Y130742D01*
X101393Y130716D01*
X101383Y130691D01*
X101375Y130658D01*
X101364Y130622D01*
X101353Y130578D01*
X101342Y130534D01*
X101328Y130483D01*
X101313Y130425D01*
X101299Y130363D01*
Y130360D01*
X101295Y130349D01*
X101292Y130331D01*
X101284Y130309D01*
X101277Y130280D01*
X101270Y130247D01*
X101248Y130174D01*
X101222Y130094D01*
X101197Y130010D01*
X101171Y129937D01*
X101157Y129905D01*
X101142Y129876D01*
Y129872D01*
X101139Y129868D01*
X101124Y129846D01*
X101106Y129814D01*
X101077Y129777D01*
X101044Y129734D01*
X101004Y129690D01*
X100957Y129646D01*
X100906Y129610D01*
X100898Y129606D01*
X100880Y129595D01*
X100851Y129581D01*
X100815Y129566D01*
X100767Y129552D01*
X100713Y129537D01*
X100654Y129526D01*
X100593Y129523D01*
X100589D01*
X100585D01*
X100575D01*
X100560D01*
X100523Y129530D01*
X100476Y129537D01*
X100422Y129548D01*
X100360Y129566D01*
X100298Y129592D01*
X100236Y129628D01*
X100232D01*
X100229Y129632D01*
X100207Y129650D01*
X100178Y129675D01*
X100141Y129708D01*
X100101Y129752D01*
X100058Y129806D01*
X100018Y129872D01*
X99981Y129945D01*
Y129948D01*
X99977Y129956D01*
X99974Y129967D01*
X99967Y129981D01*
X99959Y129999D01*
X99952Y130025D01*
X99937Y130079D01*
X99923Y130149D01*
X99908Y130229D01*
X99897Y130312D01*
X99894Y130407D01*
Y130454D01*
X99897Y130480D01*
Y130505D01*
X99905Y130574D01*
X99916Y130651D01*
X99934Y130731D01*
X99956Y130818D01*
X99985Y130898D01*
Y130902D01*
X99988Y130909D01*
X99996Y130920D01*
X100003Y130935D01*
X100021Y130971D01*
X100054Y131018D01*
X100090Y131073D01*
X100138Y131128D01*
X100192Y131179D01*
X100254Y131226D01*
X100258D01*
X100261Y131230D01*
X100272Y131237D01*
X100283Y131244D01*
X100320Y131262D01*
X100367Y131284D01*
X100425Y131310D01*
X100494Y131328D01*
X100567Y131346D01*
X100647Y131353D01*
X100673Y131033D01*
X100669D01*
X100662D01*
X100651Y131029D01*
X100633Y131026D01*
X100593Y131015D01*
X100538Y131000D01*
X100480Y130979D01*
X100422Y130946D01*
X100367Y130906D01*
X100316Y130855D01*
X100312Y130847D01*
X100298Y130829D01*
X100276Y130793D01*
X100254Y130745D01*
X100232Y130684D01*
X100210Y130611D01*
X100196Y130520D01*
X100192Y130418D01*
Y130367D01*
X100196Y130345D01*
X100199Y130316D01*
X100207Y130251D01*
X100221Y130178D01*
X100240Y130105D01*
X100269Y130036D01*
X100287Y130007D01*
X100305Y129978D01*
X100309Y129970D01*
X100323Y129956D01*
X100349Y129934D01*
X100378Y129912D01*
X100418Y129886D01*
X100462Y129865D01*
X100513Y129850D01*
X100571Y129843D01*
X100578D01*
X100593D01*
X100618Y129846D01*
X100647Y129854D01*
X100684Y129865D01*
X100720Y129883D01*
X100757Y129905D01*
X100793Y129937D01*
X100796Y129941D01*
X100807Y129959D01*
X100818Y129974D01*
X100826Y129988D01*
X100837Y130010D01*
X100851Y130036D01*
X100862Y130069D01*
X100877Y130105D01*
X100891Y130145D01*
X100909Y130192D01*
X100924Y130243D01*
X100942Y130301D01*
X100957Y130367D01*
X100975Y130440D01*
Y130443D01*
X100979Y130458D01*
X100982Y130480D01*
X100989Y130505D01*
X100997Y130538D01*
X101008Y130578D01*
X101019Y130618D01*
X101030Y130662D01*
X101055Y130756D01*
X101080Y130847D01*
X101095Y130891D01*
X101110Y130931D01*
X101120Y130968D01*
X101135Y130997D01*
Y131000D01*
X101139Y131008D01*
X101146Y131018D01*
X101153Y131033D01*
X101175Y131073D01*
X101204Y131120D01*
X101244Y131175D01*
X101288Y131230D01*
X101339Y131281D01*
X101393Y131324D01*
X101401Y131328D01*
X101419Y131342D01*
X101452Y131357D01*
X101495Y131379D01*
X101546Y131397D01*
X101608Y131415D01*
X101677Y131426D01*
X101750Y131430D01*
X101754D01*
X101758D01*
X101768D01*
X101783D01*
X101823Y131423D01*
D02*
G37*
G36*
X101259Y129078D02*
X101288D01*
X101357Y129075D01*
X101437Y129064D01*
X101521Y129053D01*
X101608Y129035D01*
X101696Y129013D01*
X101699D01*
X101707Y129009D01*
X101717Y129006D01*
X101732Y129002D01*
X101772Y128987D01*
X101823Y128966D01*
X101881Y128944D01*
X101939Y128915D01*
X102001Y128878D01*
X102060Y128842D01*
X102067Y128838D01*
X102085Y128824D01*
X102111Y128802D01*
X102143Y128773D01*
X102180Y128740D01*
X102216Y128700D01*
X102256Y128660D01*
X102289Y128612D01*
X102293Y128605D01*
X102304Y128591D01*
X102318Y128565D01*
X102336Y128529D01*
X102358Y128485D01*
X102376Y128434D01*
X102398Y128376D01*
X102416Y128310D01*
Y128303D01*
X102420Y128292D01*
X102424Y128281D01*
X102427Y128245D01*
X102435Y128194D01*
X102442Y128136D01*
X102449Y128067D01*
X102453Y127990D01*
X102456Y127906D01*
Y127000D01*
X99937D01*
Y127968D01*
X99941Y128034D01*
X99945Y128106D01*
X99952Y128179D01*
X99963Y128252D01*
X99974Y128314D01*
Y128318D01*
X99977Y128325D01*
Y128336D01*
X99985Y128350D01*
X99996Y128390D01*
X100014Y128441D01*
X100039Y128500D01*
X100072Y128561D01*
X100109Y128623D01*
X100156Y128682D01*
X100160Y128685D01*
X100163Y128689D01*
X100174Y128700D01*
X100185Y128714D01*
X100221Y128751D01*
X100272Y128795D01*
X100334Y128842D01*
X100407Y128893D01*
X100491Y128940D01*
X100585Y128980D01*
X100589D01*
X100596Y128984D01*
X100611Y128991D01*
X100633Y128995D01*
X100658Y129006D01*
X100687Y129013D01*
X100720Y129020D01*
X100760Y129031D01*
X100800Y129042D01*
X100847Y129049D01*
X100949Y129068D01*
X101062Y129078D01*
X101186Y129082D01*
X101190D01*
X101197D01*
X101215D01*
X101233D01*
X101259Y129078D01*
D02*
G37*
%LPC*%
G36*
X101179Y128740D02*
X101175D01*
X101161D01*
X101142D01*
X101113Y128736D01*
X101080D01*
X101044Y128733D01*
X101000Y128729D01*
X100957Y128725D01*
X100858Y128707D01*
X100757Y128685D01*
X100662Y128653D01*
X100615Y128631D01*
X100575Y128609D01*
X100571D01*
X100564Y128602D01*
X100553Y128594D01*
X100538Y128587D01*
X100502Y128558D01*
X100458Y128522D01*
X100411Y128474D01*
X100363Y128420D01*
X100323Y128358D01*
X100291Y128292D01*
X100287Y128285D01*
X100283Y128267D01*
X100272Y128234D01*
X100261Y128187D01*
X100254Y128128D01*
X100243Y128056D01*
X100240Y128012D01*
Y127965D01*
X100236Y127917D01*
Y127335D01*
X102158D01*
Y127932D01*
X102154Y127957D01*
X102151Y128012D01*
X102147Y128074D01*
X102140Y128139D01*
X102129Y128205D01*
X102114Y128259D01*
X102111Y128267D01*
X102107Y128285D01*
X102096Y128310D01*
X102081Y128343D01*
X102060Y128379D01*
X102038Y128416D01*
X102012Y128452D01*
X101983Y128489D01*
X101976Y128492D01*
X101961Y128507D01*
X101936Y128529D01*
X101899Y128554D01*
X101852Y128583D01*
X101797Y128616D01*
X101736Y128645D01*
X101666Y128671D01*
X101663D01*
X101656Y128674D01*
X101645Y128678D01*
X101630Y128682D01*
X101612Y128685D01*
X101586Y128693D01*
X101561Y128700D01*
X101532Y128707D01*
X101459Y128718D01*
X101375Y128729D01*
X101281Y128736D01*
X101179Y128740D01*
D02*
G37*
%LPD*%
D11*
X98661Y111449D02*
X106339D01*
Y142551D01*
X98661D02*
X106339D01*
X98661Y111449D02*
Y142551D01*
M02*
