G04*
G04 #@! TF.GenerationSoftware,Altium Limited,Altium Designer,21.8.1 (53)*
G04*
G04 Layer_Color=16711935*
%FSLAX25Y25*%
%MOIN*%
G70*
G04*
G04 #@! TF.SameCoordinates,F694C61F-55F7-4EF8-90FC-B60A50DA021C*
G04*
G04*
G04 #@! TF.FilePolarity,Positive*
G04*
G01*
G75*
%ADD35C,0.00394*%
%ADD36C,0.00100*%
D35*
X52740Y55000D02*
G03*
X52740Y55000I-6240J0D01*
G01*
Y87000D02*
G03*
X52740Y87000I-6240J0D01*
G01*
Y72500D02*
G03*
X52740Y72500I-6240J0D01*
G01*
X37006Y33500D02*
G03*
X37006Y33500I-11506J0D01*
G01*
X76130Y124500D02*
G03*
X76130Y124500I-9783J0D01*
G01*
X56759Y130844D02*
G03*
X60019Y134098I9587J-6344D01*
G01*
X135000Y95000D02*
Y135000D01*
X145000Y95000D02*
Y135000D01*
X135000Y95000D02*
X145000D01*
X135000Y135000D02*
X145000D01*
X55000Y5000D02*
X95000D01*
X55000Y15000D02*
X95000D01*
Y5000D02*
Y15000D01*
X55000Y5000D02*
Y15000D01*
X5000Y95000D02*
Y135000D01*
X15000Y95000D02*
Y135000D01*
X5000Y95000D02*
X15000D01*
X5000Y135000D02*
X15000D01*
X53393Y134209D02*
X56761Y130841D01*
X53393Y134209D02*
X56650Y137466D01*
X60019Y134098D01*
D36*
X60278Y97902D02*
X65278D01*
X62778Y95402D02*
Y97902D01*
X66278Y103414D02*
X126478D01*
X66278Y28614D02*
X126478D01*
Y103414D01*
X66278Y28614D02*
Y103414D01*
M02*
