G04*
G04 #@! TF.GenerationSoftware,Altium Limited,Altium Designer,21.8.1 (53)*
G04*
G04 Layer_Color=255*
%FSLAX25Y25*%
%MOIN*%
G70*
G04*
G04 #@! TF.SameCoordinates,877E9D1F-A915-4287-B3E1-9CAB09CAFBF8*
G04*
G04*
G04 #@! TF.FilePolarity,Positive*
G04*
G01*
G75*
%ADD14C,0.07100*%
%ADD15R,0.07100X0.07100*%
%ADD23C,0.04724*%
%ADD24R,0.04724X0.04724*%
%ADD26C,0.05512*%
%ADD27C,0.08268*%
%ADD28C,0.06299*%
%ADD29R,0.06299X0.06299*%
%ADD30R,0.06299X0.06299*%
%ADD31C,0.06102*%
%ADD32R,0.06102X0.06102*%
%ADD33C,0.05118*%
D14*
X120000Y90028D02*
D03*
Y42000D02*
D03*
X72756D02*
D03*
Y90028D02*
D03*
D15*
X96378Y97902D02*
D03*
D23*
X102500Y139795D02*
D03*
D24*
Y114205D02*
D03*
D26*
X37500Y109500D02*
D03*
Y119500D02*
D03*
X40500Y10500D02*
D03*
X30500D02*
D03*
D27*
X46500Y55000D02*
D03*
Y87000D02*
D03*
Y72500D02*
D03*
D28*
X140000Y130000D02*
D03*
Y120000D02*
D03*
Y110000D02*
D03*
X60000Y10000D02*
D03*
X70000D02*
D03*
X80000D02*
D03*
X10000Y130000D02*
D03*
Y120000D02*
D03*
Y110000D02*
D03*
D29*
X140000Y100000D02*
D03*
X10000D02*
D03*
D30*
X90000Y10000D02*
D03*
D31*
X30500Y33500D02*
D03*
D32*
X20500D02*
D03*
D33*
X66347Y119500D02*
D03*
X60500Y124500D02*
D03*
X72193D02*
D03*
M02*
