G04*
G04 #@! TF.GenerationSoftware,Altium Limited,Altium Designer,21.8.1 (53)*
G04*
G04 Layer_Color=128*
%FSLAX25Y25*%
%MOIN*%
G70*
G04*
G04 #@! TF.SameCoordinates,877E9D1F-A915-4287-B3E1-9CAB09CAFBF8*
G04*
G04*
G04 #@! TF.FilePolarity,Positive*
G04*
G01*
G75*
%ADD38C,0.00200*%
D38*
X35827Y109500D02*
X39173D01*
X37500Y107827D02*
Y111173D01*
X35827Y119500D02*
X39173D01*
X37500Y117827D02*
Y121173D01*
X117450Y90028D02*
X122550D01*
X120000Y87478D02*
Y92578D01*
X117450Y42000D02*
X122550D01*
X120000Y39450D02*
Y44550D01*
X70206Y42000D02*
X75306D01*
X72756Y39450D02*
Y44550D01*
X70206Y90028D02*
X75306D01*
X72756Y87478D02*
Y92578D01*
X93828Y97902D02*
X98928D01*
X96378Y95352D02*
Y100452D01*
X43350Y55000D02*
X49650D01*
X46500Y51850D02*
Y58150D01*
X43350Y87000D02*
X49650D01*
X46500Y83850D02*
Y90150D01*
X137835Y130000D02*
X142165D01*
X140000Y127835D02*
Y132165D01*
X137835Y120000D02*
X142165D01*
X140000Y117835D02*
Y122165D01*
X137835Y100000D02*
X142165D01*
X140000Y97835D02*
Y102165D01*
X137835Y110000D02*
X142165D01*
X140000Y107835D02*
Y112165D01*
X43350Y72500D02*
X49650D01*
X46500Y69350D02*
Y75650D01*
X57835Y10000D02*
X62165D01*
X60000Y7835D02*
Y12165D01*
X67835Y10000D02*
X72165D01*
X70000Y7835D02*
Y12165D01*
X87835Y10000D02*
X92165D01*
X90000Y7835D02*
Y12165D01*
X77835Y10000D02*
X82165D01*
X80000Y7835D02*
Y12165D01*
X28433Y33500D02*
X32567D01*
X30500Y31433D02*
Y35567D01*
X18433Y33500D02*
X22567D01*
X20500Y31433D02*
Y35567D01*
X38827Y10500D02*
X42173D01*
X40500Y8827D02*
Y12173D01*
X28827Y10500D02*
X32173D01*
X30500Y8827D02*
Y12173D01*
X64772Y119500D02*
X67921D01*
X66347Y117925D02*
Y121075D01*
X7835Y130000D02*
X12165D01*
X10000Y127835D02*
Y132165D01*
X7835Y120000D02*
X12165D01*
X10000Y117835D02*
Y122165D01*
X7835Y100000D02*
X12165D01*
X10000Y97835D02*
Y102165D01*
X7835Y110000D02*
X12165D01*
X10000Y107835D02*
Y112165D01*
X101122Y139795D02*
X103878D01*
X102500Y138417D02*
Y141173D01*
X101122Y114205D02*
X103878D01*
X102500Y112827D02*
Y115583D01*
X58925Y124500D02*
X62075D01*
X60500Y122925D02*
Y126075D01*
X70618Y124500D02*
X73768D01*
X72193Y122925D02*
Y126075D01*
M02*
