G04*
G04 #@! TF.GenerationSoftware,Altium Limited,Altium Designer,21.8.1 (53)*
G04*
G04 Layer_Physical_Order=2*
G04 Layer_Color=16711680*
%FSLAX25Y25*%
%MOIN*%
G70*
G04*
G04 #@! TF.SameCoordinates,877E9D1F-A915-4287-B3E1-9CAB09CAFBF8*
G04*
G04*
G04 #@! TF.FilePolarity,Positive*
G04*
G01*
G75*
%ADD10C,0.01000*%
%ADD14C,0.07100*%
%ADD15R,0.07100X0.07100*%
%ADD23C,0.04724*%
%ADD24R,0.04724X0.04724*%
%ADD25C,0.01500*%
%ADD26C,0.05512*%
%ADD27C,0.08268*%
%ADD28C,0.06299*%
%ADD29R,0.06299X0.06299*%
%ADD30R,0.06299X0.06299*%
%ADD31C,0.06102*%
%ADD32R,0.06102X0.06102*%
%ADD33C,0.05118*%
G36*
X149500Y500D02*
X500D01*
Y149500D01*
X149500D01*
Y500D01*
D02*
G37*
%LPC*%
G36*
X102943Y143157D02*
X102057D01*
X101202Y142928D01*
X100436Y142486D01*
X99810Y141860D01*
X99367Y141093D01*
X99138Y140238D01*
Y139353D01*
X99367Y138497D01*
X99810Y137731D01*
X100436Y137105D01*
X101202Y136662D01*
X102057Y136433D01*
X102943D01*
X103798Y136662D01*
X104564Y137105D01*
X105190Y137731D01*
X105633Y138497D01*
X105862Y139353D01*
Y140238D01*
X105633Y141093D01*
X105190Y141860D01*
X104564Y142486D01*
X103798Y142928D01*
X102943Y143157D01*
D02*
G37*
G36*
X140546Y134150D02*
X140500D01*
Y130500D01*
X144150D01*
Y130546D01*
X143867Y131602D01*
X143321Y132548D01*
X142548Y133320D01*
X141602Y133867D01*
X140546Y134150D01*
D02*
G37*
G36*
X10546D02*
X10500D01*
Y130500D01*
X14150D01*
Y130546D01*
X13867Y131602D01*
X13320Y132548D01*
X12548Y133320D01*
X11602Y133867D01*
X10546Y134150D01*
D02*
G37*
G36*
X9500D02*
X9454D01*
X8398Y133867D01*
X7452Y133320D01*
X6679Y132548D01*
X6133Y131602D01*
X5850Y130546D01*
Y130500D01*
X9500D01*
Y134150D01*
D02*
G37*
G36*
X139500D02*
X139454D01*
X138398Y133867D01*
X137452Y133320D01*
X136679Y132548D01*
X136133Y131602D01*
X135850Y130546D01*
Y130500D01*
X139500D01*
Y134150D01*
D02*
G37*
G36*
X144150Y129500D02*
X140500D01*
Y125850D01*
X140546D01*
X141602Y126133D01*
X142548Y126680D01*
X143321Y127452D01*
X143867Y128398D01*
X144150Y129454D01*
Y129500D01*
D02*
G37*
G36*
X139500D02*
X135850D01*
Y129454D01*
X136133Y128398D01*
X136679Y127452D01*
X137452Y126680D01*
X138398Y126133D01*
X139454Y125850D01*
X139500D01*
Y129500D01*
D02*
G37*
G36*
X14150D02*
X10500D01*
Y125850D01*
X10546D01*
X11602Y126133D01*
X12548Y126680D01*
X13320Y127452D01*
X13867Y128398D01*
X14150Y129454D01*
Y129500D01*
D02*
G37*
G36*
X9500D02*
X5850D01*
Y129454D01*
X6133Y128398D01*
X6679Y127452D01*
X7452Y126680D01*
X8398Y126133D01*
X9454Y125850D01*
X9500D01*
Y129500D01*
D02*
G37*
G36*
X61000Y128051D02*
Y125000D01*
X64051D01*
X63816Y125874D01*
X63348Y126685D01*
X62685Y127348D01*
X61874Y127816D01*
X61000Y128051D01*
D02*
G37*
G36*
X60000D02*
X59126Y127816D01*
X58315Y127348D01*
X57652Y126685D01*
X57183Y125874D01*
X56949Y125000D01*
X60000D01*
Y128051D01*
D02*
G37*
G36*
X64051Y124000D02*
X61000D01*
Y120949D01*
X61874Y121184D01*
X62685Y121652D01*
X63348Y122315D01*
X63816Y123126D01*
X64051Y124000D01*
D02*
G37*
G36*
X60000D02*
X56949D01*
X57183Y123126D01*
X57652Y122315D01*
X58315Y121652D01*
X59126Y121184D01*
X60000Y120949D01*
Y124000D01*
D02*
G37*
G36*
X72662Y128059D02*
X71724D01*
X70819Y127816D01*
X70008Y127348D01*
X69345Y126685D01*
X68876Y125874D01*
X68634Y124969D01*
Y124031D01*
X68876Y123126D01*
X69345Y122315D01*
X70008Y121652D01*
X70819Y121184D01*
X71724Y120941D01*
X72662D01*
X73567Y121184D01*
X74378Y121652D01*
X75041Y122315D01*
X75509Y123126D01*
X75752Y124031D01*
Y124969D01*
X75509Y125874D01*
X75041Y126685D01*
X74378Y127348D01*
X73567Y127816D01*
X72662Y128059D01*
D02*
G37*
G36*
X10546Y124150D02*
X10500D01*
Y120500D01*
X14150D01*
Y120546D01*
X13867Y121602D01*
X13320Y122548D01*
X12548Y123320D01*
X11602Y123867D01*
X10546Y124150D01*
D02*
G37*
G36*
X9500D02*
X9454D01*
X8398Y123867D01*
X7452Y123320D01*
X6679Y122548D01*
X6133Y121602D01*
X5850Y120546D01*
Y120500D01*
X9500D01*
Y124150D01*
D02*
G37*
G36*
X66815Y123059D02*
X65878D01*
X64973Y122817D01*
X64161Y122348D01*
X63499Y121685D01*
X63030Y120874D01*
X62787Y119969D01*
Y119031D01*
X63030Y118126D01*
X63499Y117315D01*
X64161Y116652D01*
X64973Y116183D01*
X65878Y115941D01*
X66815D01*
X67720Y116183D01*
X68532Y116652D01*
X69194Y117315D01*
X69663Y118126D01*
X69906Y119031D01*
Y119969D01*
X69663Y120874D01*
X69194Y121685D01*
X68532Y122348D01*
X67720Y122817D01*
X66815Y123059D01*
D02*
G37*
G36*
X14150Y119500D02*
X10500D01*
Y115850D01*
X10546D01*
X11602Y116133D01*
X12548Y116680D01*
X13320Y117452D01*
X13867Y118398D01*
X14150Y119454D01*
Y119500D01*
D02*
G37*
G36*
X9500D02*
X5850D01*
Y119454D01*
X6133Y118398D01*
X6679Y117452D01*
X7452Y116680D01*
X8398Y116133D01*
X9454Y115850D01*
X9500D01*
Y119500D01*
D02*
G37*
G36*
X37995Y123256D02*
X37005D01*
X36050Y123000D01*
X35194Y122505D01*
X34495Y121806D01*
X34000Y120950D01*
X33744Y119994D01*
Y119006D01*
X34000Y118050D01*
X34495Y117194D01*
X35194Y116495D01*
X36050Y116000D01*
X37005Y115744D01*
X37995D01*
X38950Y116000D01*
X39806Y116495D01*
X40505Y117194D01*
X41000Y118050D01*
X41256Y119006D01*
Y119994D01*
X41000Y120950D01*
X40505Y121806D01*
X39806Y122505D01*
X38950Y123000D01*
X37995Y123256D01*
D02*
G37*
G36*
X140546Y124150D02*
X139454D01*
X138398Y123867D01*
X137452Y123320D01*
X136679Y122548D01*
X136133Y121602D01*
X135850Y120546D01*
Y119454D01*
X136133Y118398D01*
X136171Y118333D01*
X128867Y111029D01*
X105862D01*
Y117567D01*
X99138D01*
Y111029D01*
X40954D01*
X40505Y111806D01*
X39806Y112505D01*
X38950Y113000D01*
X37995Y113256D01*
X37005D01*
X36050Y113000D01*
X35194Y112505D01*
X34495Y111806D01*
X34000Y110950D01*
X33744Y109994D01*
Y109005D01*
X34000Y108050D01*
X34495Y107194D01*
X35194Y106494D01*
X36050Y106000D01*
X37005Y105744D01*
X37995D01*
X38950Y106000D01*
X39806Y106494D01*
X40505Y107194D01*
X40954Y107971D01*
X129500D01*
X130085Y108087D01*
X130581Y108419D01*
X138333Y116171D01*
X138398Y116133D01*
X139454Y115850D01*
X140546D01*
X141602Y116133D01*
X142548Y116680D01*
X143321Y117452D01*
X143867Y118398D01*
X144150Y119454D01*
Y120546D01*
X143867Y121602D01*
X143321Y122548D01*
X142548Y123320D01*
X141602Y123867D01*
X140546Y124150D01*
D02*
G37*
G36*
Y114150D02*
X139454D01*
X138398Y113867D01*
X137452Y113321D01*
X136679Y112548D01*
X136133Y111602D01*
X135850Y110546D01*
Y109454D01*
X136133Y108398D01*
X136679Y107452D01*
X137452Y106679D01*
X138398Y106133D01*
X139454Y105850D01*
X140546D01*
X141602Y106133D01*
X142548Y106679D01*
X143321Y107452D01*
X143867Y108398D01*
X144150Y109454D01*
Y110546D01*
X143867Y111602D01*
X143321Y112548D01*
X142548Y113321D01*
X141602Y113867D01*
X140546Y114150D01*
D02*
G37*
G36*
X144150Y104150D02*
X135850D01*
Y95850D01*
X144150D01*
Y104150D01*
D02*
G37*
G36*
X10546Y114150D02*
X9454D01*
X8398Y113867D01*
X7452Y113321D01*
X6679Y112548D01*
X6133Y111602D01*
X5850Y110546D01*
Y109454D01*
X6133Y108398D01*
X6679Y107452D01*
X7452Y106679D01*
X8216Y106239D01*
Y104150D01*
X5850D01*
Y95850D01*
X14150D01*
Y98216D01*
X91828D01*
Y93352D01*
X100928D01*
Y102452D01*
X91828D01*
Y101784D01*
X14150D01*
Y104150D01*
X11784D01*
Y106239D01*
X12548Y106679D01*
X13320Y107452D01*
X13867Y108398D01*
X14150Y109454D01*
Y110546D01*
X13867Y111602D01*
X13320Y112548D01*
X12548Y113321D01*
X11602Y113867D01*
X10546Y114150D01*
D02*
G37*
G36*
X120599Y94578D02*
X119401D01*
X118244Y94268D01*
X117206Y93669D01*
X116359Y92822D01*
X115760Y91785D01*
X115450Y90627D01*
Y89429D01*
X115760Y88272D01*
X116359Y87235D01*
X117206Y86387D01*
X118244Y85788D01*
X119401Y85478D01*
X120599D01*
X121756Y85788D01*
X122794Y86387D01*
X123641Y87235D01*
X124240Y88272D01*
X124550Y89429D01*
Y90627D01*
X124240Y91785D01*
X123641Y92822D01*
X122794Y93669D01*
X121756Y94268D01*
X120599Y94578D01*
D02*
G37*
G36*
X73355D02*
X72157D01*
X71000Y94268D01*
X69962Y93669D01*
X69115Y92822D01*
X68516Y91785D01*
X68206Y90627D01*
Y89429D01*
X68516Y88272D01*
X69115Y87235D01*
X69962Y86387D01*
X71000Y85788D01*
X72157Y85478D01*
X73355D01*
X74512Y85788D01*
X75550Y86387D01*
X76397Y87235D01*
X76996Y88272D01*
X77306Y89429D01*
Y90627D01*
X76996Y91785D01*
X76397Y92822D01*
X75550Y93669D01*
X74512Y94268D01*
X73355Y94578D01*
D02*
G37*
G36*
X47176Y92134D02*
X45824D01*
X44518Y91784D01*
X43348Y91108D01*
X42392Y90152D01*
X41716Y88982D01*
X41366Y87676D01*
Y86324D01*
X41716Y85018D01*
X42392Y83848D01*
X43348Y82892D01*
X44518Y82216D01*
X45824Y81866D01*
X47176D01*
X48482Y82216D01*
X49652Y82892D01*
X50608Y83848D01*
X51284Y85018D01*
X51634Y86324D01*
Y87676D01*
X51284Y88982D01*
X50608Y90152D01*
X49652Y91108D01*
X48482Y91784D01*
X47176Y92134D01*
D02*
G37*
G36*
Y77634D02*
X45824D01*
X44518Y77284D01*
X43348Y76608D01*
X42392Y75652D01*
X41716Y74482D01*
X41366Y73176D01*
Y71824D01*
X41716Y70518D01*
X42392Y69348D01*
X43348Y68392D01*
X44518Y67716D01*
X45824Y67366D01*
X47176D01*
X48482Y67716D01*
X49652Y68392D01*
X50608Y69348D01*
X51284Y70518D01*
X51634Y71824D01*
Y73176D01*
X51284Y74482D01*
X50608Y75652D01*
X49652Y76608D01*
X48482Y77284D01*
X47176Y77634D01*
D02*
G37*
G36*
X120599Y46550D02*
X119401D01*
X118244Y46240D01*
X117206Y45641D01*
X116359Y44794D01*
X115760Y43756D01*
X115450Y42599D01*
Y41401D01*
X115760Y40244D01*
X116359Y39206D01*
X117206Y38359D01*
X118244Y37760D01*
X119401Y37450D01*
X120599D01*
X121756Y37760D01*
X122794Y38359D01*
X123641Y39206D01*
X124240Y40244D01*
X124550Y41401D01*
Y42599D01*
X124240Y43756D01*
X123641Y44794D01*
X122794Y45641D01*
X121756Y46240D01*
X120599Y46550D01*
D02*
G37*
G36*
X73355D02*
X72157D01*
X71000Y46240D01*
X69962Y45641D01*
X69115Y44794D01*
X68516Y43756D01*
X68206Y42599D01*
Y41401D01*
X68516Y40244D01*
X69115Y39206D01*
X69962Y38359D01*
X71000Y37760D01*
X72157Y37450D01*
X73355D01*
X74512Y37760D01*
X75550Y38359D01*
X76397Y39206D01*
X76996Y40244D01*
X77306Y41401D01*
Y42599D01*
X76996Y43756D01*
X76397Y44794D01*
X75550Y45641D01*
X74512Y46240D01*
X73355Y46550D01*
D02*
G37*
G36*
X24551Y37551D02*
X21000D01*
Y34000D01*
X24551D01*
Y37551D01*
D02*
G37*
G36*
X20000D02*
X16449D01*
Y34000D01*
X20000D01*
Y37551D01*
D02*
G37*
G36*
X31033D02*
X29967D01*
X28936Y37275D01*
X28012Y36742D01*
X27258Y35987D01*
X26725Y35064D01*
X26449Y34033D01*
Y32967D01*
X26725Y31936D01*
X27258Y31012D01*
X28012Y30258D01*
X28936Y29725D01*
X29967Y29449D01*
X31033D01*
X32064Y29725D01*
X32987Y30258D01*
X33742Y31012D01*
X34275Y31936D01*
X34551Y32967D01*
Y34033D01*
X34275Y35064D01*
X33742Y35987D01*
X32987Y36742D01*
X32064Y37275D01*
X31033Y37551D01*
D02*
G37*
G36*
X24551Y33000D02*
X21000D01*
Y29449D01*
X24551D01*
Y33000D01*
D02*
G37*
G36*
X20000D02*
X16449D01*
Y29449D01*
X20000D01*
Y33000D01*
D02*
G37*
G36*
X60546Y14150D02*
X60500D01*
Y10500D01*
X64150D01*
Y10546D01*
X63867Y11602D01*
X63320Y12548D01*
X62548Y13320D01*
X61602Y13867D01*
X60546Y14150D01*
D02*
G37*
G36*
X70546D02*
X70500D01*
Y10500D01*
X74150D01*
Y10546D01*
X73867Y11602D01*
X73321Y12548D01*
X72548Y13320D01*
X71602Y13867D01*
X70546Y14150D01*
D02*
G37*
G36*
X59500D02*
X59454D01*
X58398Y13867D01*
X57452Y13320D01*
X56679Y12548D01*
X56133Y11602D01*
X55850Y10546D01*
Y10500D01*
X59500D01*
Y14150D01*
D02*
G37*
G36*
X69500D02*
X69454D01*
X68398Y13867D01*
X67452Y13320D01*
X66680Y12548D01*
X66133Y11602D01*
X65850Y10546D01*
Y10500D01*
X69500D01*
Y14150D01*
D02*
G37*
G36*
X40995Y14256D02*
X40005D01*
X39050Y14000D01*
X38194Y13506D01*
X37495Y12806D01*
X37000Y11950D01*
X36744Y10994D01*
Y10006D01*
X37000Y9050D01*
X37495Y8194D01*
X38194Y7495D01*
X39050Y7000D01*
X40005Y6744D01*
X40995D01*
X41950Y7000D01*
X42806Y7495D01*
X43505Y8194D01*
X44000Y9050D01*
X44256Y10006D01*
Y10994D01*
X44000Y11950D01*
X43505Y12806D01*
X42806Y13506D01*
X41950Y14000D01*
X40995Y14256D01*
D02*
G37*
G36*
X30994D02*
X30005D01*
X29050Y14000D01*
X28194Y13506D01*
X27494Y12806D01*
X27000Y11950D01*
X26744Y10994D01*
Y10006D01*
X27000Y9050D01*
X27494Y8194D01*
X28194Y7495D01*
X29050Y7000D01*
X30005Y6744D01*
X30994D01*
X31950Y7000D01*
X32806Y7495D01*
X33505Y8194D01*
X34000Y9050D01*
X34256Y10006D01*
Y10994D01*
X34000Y11950D01*
X33505Y12806D01*
X32806Y13506D01*
X31950Y14000D01*
X30994Y14256D01*
D02*
G37*
G36*
X94150Y14150D02*
X85850D01*
Y5850D01*
X94150D01*
Y14150D01*
D02*
G37*
G36*
X47176Y60134D02*
X45824D01*
X44518Y59784D01*
X43348Y59108D01*
X42392Y58152D01*
X41716Y56982D01*
X41366Y55676D01*
Y54324D01*
X41716Y53018D01*
X42392Y51848D01*
X43348Y50892D01*
X44518Y50216D01*
X44716Y50163D01*
Y43500D01*
X44851Y42817D01*
X45238Y42238D01*
X76079Y11398D01*
X75850Y10546D01*
Y9454D01*
X76133Y8398D01*
X76679Y7452D01*
X77452Y6679D01*
X78398Y6133D01*
X79454Y5850D01*
X80546D01*
X81602Y6133D01*
X82548Y6679D01*
X83320Y7452D01*
X83867Y8398D01*
X84150Y9454D01*
Y10546D01*
X83867Y11602D01*
X83320Y12548D01*
X82548Y13320D01*
X81602Y13867D01*
X80546Y14150D01*
X79454D01*
X78602Y13921D01*
X48284Y44239D01*
Y50163D01*
X48482Y50216D01*
X49652Y50892D01*
X50608Y51848D01*
X51284Y53018D01*
X51634Y54324D01*
Y55676D01*
X51284Y56982D01*
X50608Y58152D01*
X49652Y59108D01*
X48482Y59784D01*
X47176Y60134D01*
D02*
G37*
G36*
X74150Y9500D02*
X70500D01*
Y5850D01*
X70546D01*
X71602Y6133D01*
X72548Y6679D01*
X73321Y7452D01*
X73867Y8398D01*
X74150Y9454D01*
Y9500D01*
D02*
G37*
G36*
X69500D02*
X65850D01*
Y9454D01*
X66133Y8398D01*
X66680Y7452D01*
X67452Y6679D01*
X68398Y6133D01*
X69454Y5850D01*
X69500D01*
Y9500D01*
D02*
G37*
G36*
X64150D02*
X60500D01*
Y5850D01*
X60546D01*
X61602Y6133D01*
X62548Y6679D01*
X63320Y7452D01*
X63867Y8398D01*
X64150Y9454D01*
Y9500D01*
D02*
G37*
G36*
X59500D02*
X55850D01*
Y9454D01*
X56133Y8398D01*
X56679Y7452D01*
X57452Y6679D01*
X58398Y6133D01*
X59454Y5850D01*
X59500D01*
Y9500D01*
D02*
G37*
%LPD*%
D10*
X129500Y109500D02*
X140000Y120000D01*
X37500Y109500D02*
X129500D01*
D14*
X120000Y90028D02*
D03*
Y42000D02*
D03*
X72756D02*
D03*
Y90028D02*
D03*
D15*
X96378Y97902D02*
D03*
D23*
X102500Y139795D02*
D03*
D24*
Y114205D02*
D03*
D25*
X46500Y43500D02*
X80000Y10000D01*
X46500Y43500D02*
Y55000D01*
X94280Y100000D02*
X96378Y97902D01*
X10000Y100000D02*
X94280D01*
X10000D02*
Y110000D01*
D26*
X37500Y109500D02*
D03*
Y119500D02*
D03*
X40500Y10500D02*
D03*
X30500D02*
D03*
D27*
X46500Y55000D02*
D03*
Y87000D02*
D03*
Y72500D02*
D03*
D28*
X140000Y130000D02*
D03*
Y120000D02*
D03*
Y110000D02*
D03*
X60000Y10000D02*
D03*
X70000D02*
D03*
X80000D02*
D03*
X10000Y130000D02*
D03*
Y120000D02*
D03*
Y110000D02*
D03*
D29*
X140000Y100000D02*
D03*
X10000D02*
D03*
D30*
X90000Y10000D02*
D03*
D31*
X30500Y33500D02*
D03*
D32*
X20500D02*
D03*
D33*
X66347Y119500D02*
D03*
X60500Y124500D02*
D03*
X72193D02*
D03*
M02*
