M48
;Layer_Color=9474304
;FILE_FORMAT=2:5
INCH,LZ
;TYPE=PLATED
T1F00S00C0.02756
T2F00S00C0.03150
T3F00S00C0.03346
T4F00S00C0.04134
T5F00S00C0.04331
T6F00S00C0.05100
T7F00S00C0.06299
%
T01
X01025Y0114205
Y0139795
T02
X00605Y01245
X0066347Y01195
X0072193Y01245
T03
X00305Y00105
X00405
X00375Y01095
Y01195
T04
X00205Y00335
X00305
T05
X006Y001
X007
X008
X009
X014Y01
Y011
Y012
Y013
X001
Y012
Y011
Y01
T06
X0072756Y0042
X012
Y0090028
X0096378Y0097902
X0072756Y0090028
T07
X00465Y0055
Y00725
Y0087
M30
