G04*
G04 #@! TF.GenerationSoftware,Altium Limited,Altium Designer,21.8.1 (53)*
G04*
G04 Layer_Color=2752767*
%FSLAX25Y25*%
%MOIN*%
G70*
G04*
G04 #@! TF.SameCoordinates,070E7AC9-1739-4787-A23A-BD7F06799364*
G04*
G04*
G04 #@! TF.FilePolarity,Positive*
G04*
G01*
G75*
%ADD40C,0.00200*%
%ADD41C,0.00267*%
D40*
X141200Y228200D02*
Y229800D01*
X142800D01*
Y228200D01*
X141200D01*
X151200D02*
Y229800D01*
X152800D01*
Y228200D01*
X151200D01*
X161200D02*
Y229800D01*
X162800D01*
Y228200D01*
X161200D01*
X171200D02*
Y229800D01*
X172800D01*
Y228200D01*
X171200D01*
X181200D02*
Y229800D01*
X182800D01*
Y228200D01*
X181200D01*
X191200D02*
Y229800D01*
X192800D01*
Y228200D01*
X191200D01*
X201200D02*
Y229800D01*
X202800D01*
Y228200D01*
X201200D01*
X211200D02*
Y229800D01*
X212800D01*
Y228200D01*
X211200D01*
X221200D02*
Y229800D01*
X222800D01*
Y228200D01*
X221200D01*
X231200D02*
Y229800D01*
X232800D01*
Y228200D01*
X231200D01*
Y108200D02*
Y109800D01*
X232800D01*
Y108200D01*
X231200D01*
X221200D02*
Y109800D01*
X222800D01*
Y108200D01*
X221200D01*
X151200D02*
Y109800D01*
X152800D01*
Y108200D01*
X151200D01*
X141200D02*
Y109800D01*
X142800D01*
Y108200D01*
X141200D01*
X166142Y272495D02*
X165342Y274095D01*
X166942D01*
X166142Y272495D01*
X183858D02*
X183058Y274095D01*
X184658D01*
X183858Y272495D01*
Y246905D02*
X183058Y248505D01*
X184658D01*
X183858Y246905D01*
X166142D02*
X165342Y248505D01*
X166942D01*
X166142Y246905D01*
X594500Y111700D02*
X594900Y112100D01*
X595300D01*
X594900Y112500D01*
X595300Y112900D01*
X594900D01*
X594500Y113300D01*
X594100Y112900D01*
X593700D01*
X594100Y112500D01*
X593700Y112100D01*
X594100D01*
X594500Y111700D01*
Y121700D02*
X594900Y122100D01*
X595300D01*
X594900Y122500D01*
X595300Y122900D01*
X594900D01*
X594500Y123300D01*
X594100Y122900D01*
X593700D01*
X594100Y122500D01*
X593700Y122100D01*
X594100D01*
X594500Y121700D01*
Y131700D02*
X594900Y132100D01*
X595300D01*
X594900Y132500D01*
X595300Y132900D01*
X594900D01*
X594500Y133300D01*
X594100Y132900D01*
X593700D01*
X594100Y132500D01*
X593700Y132100D01*
X594100D01*
X594500Y131700D01*
Y141700D02*
X594900Y142100D01*
X595300D01*
X594900Y142500D01*
X595300Y142900D01*
X594900D01*
X594500Y143300D01*
X594100Y142900D01*
X593700D01*
X594100Y142500D01*
X593700Y142100D01*
X594100D01*
X594500Y141700D01*
Y151700D02*
X594900Y152100D01*
X595300D01*
X594900Y152500D01*
X595300Y152900D01*
X594900D01*
X594500Y153300D01*
X594100Y152900D01*
X593700D01*
X594100Y152500D01*
X593700Y152100D01*
X594100D01*
X594500Y151700D01*
Y161700D02*
X594900Y162100D01*
X595300D01*
X594900Y162500D01*
X595300Y162900D01*
X594900D01*
X594500Y163300D01*
X594100Y162900D01*
X593700D01*
X594100Y162500D01*
X593700Y162100D01*
X594100D01*
X594500Y161700D01*
X593700Y278700D02*
X594100Y279500D01*
X593700Y280300D01*
X594500Y279900D01*
X595300Y280300D01*
X594900Y279500D01*
X595300Y278700D01*
X594500Y279100D01*
X593700Y278700D01*
Y268700D02*
X594100Y269500D01*
X593700Y270300D01*
X594500Y269900D01*
X595300Y270300D01*
X594900Y269500D01*
X595300Y268700D01*
X594500Y269100D01*
X593700Y268700D01*
Y258700D02*
X594100Y259500D01*
X593700Y260300D01*
X594500Y259900D01*
X595300Y260300D01*
X594900Y259500D01*
X595300Y258700D01*
X594500Y259100D01*
X593700Y258700D01*
Y248700D02*
X594100Y249500D01*
X593700Y250300D01*
X594500Y249900D01*
X595300Y250300D01*
X594900Y249500D01*
X595300Y248700D01*
X594500Y249100D01*
X593700Y248700D01*
Y238700D02*
X594100Y239500D01*
X593700Y240300D01*
X594500Y239900D01*
X595300Y240300D01*
X594900Y239500D01*
X595300Y238700D01*
X594500Y239100D01*
X593700Y238700D01*
Y228700D02*
X594100Y229500D01*
X593700Y230300D01*
X594500Y229900D01*
X595300Y230300D01*
X594900Y229500D01*
X595300Y228700D01*
X594500Y229100D01*
X593700Y228700D01*
Y218700D02*
X594100Y219500D01*
X593700Y220300D01*
X594500Y219900D01*
X595300Y220300D01*
X594900Y219500D01*
X595300Y218700D01*
X594500Y219100D01*
X593700Y218700D01*
X581100Y186100D02*
Y185700D01*
X581900D01*
Y186100D01*
X582300D01*
Y186900D01*
X581900D01*
Y187300D01*
X581100D01*
Y186900D01*
X580700D01*
Y186100D01*
X581100D01*
X474200Y289200D02*
X474600D01*
X475000Y289600D01*
X475400Y289200D01*
X475800D01*
Y289600D01*
X475400Y290000D01*
X475800Y290400D01*
Y290800D01*
X475400D01*
X475000Y290400D01*
X474600Y290800D01*
X474200D01*
Y290400D01*
X474600Y290000D01*
X474200Y289600D01*
Y289200D01*
X464200D02*
X464600D01*
X465000Y289600D01*
X465400Y289200D01*
X465800D01*
Y289600D01*
X465400Y290000D01*
X465800Y290400D01*
Y290800D01*
X465400D01*
X465000Y290400D01*
X464600Y290800D01*
X464200D01*
Y290400D01*
X464600Y290000D01*
X464200Y289600D01*
Y289200D01*
X484200D02*
X484600D01*
X485000Y289600D01*
X485400Y289200D01*
X485800D01*
Y289600D01*
X485400Y290000D01*
X485800Y290400D01*
Y290800D01*
X485400D01*
X485000Y290400D01*
X484600Y290800D01*
X484200D01*
Y290400D01*
X484600Y290000D01*
X484200Y289600D01*
Y289200D01*
X494200D02*
X494600D01*
X495000Y289600D01*
X495400Y289200D01*
X495800D01*
Y289600D01*
X495400Y290000D01*
X495800Y290400D01*
Y290800D01*
X495400D01*
X495000Y290400D01*
X494600Y290800D01*
X494200D01*
Y290400D01*
X494600Y290000D01*
X494200Y289600D01*
Y289200D01*
X531100Y186100D02*
Y185700D01*
X531900D01*
Y186100D01*
X532300D01*
Y186900D01*
X531900D01*
Y187300D01*
X531100D01*
Y186900D01*
X530700D01*
Y186100D01*
X531100D01*
X131200Y275000D02*
X132000Y275800D01*
X132800Y275000D01*
X132000Y274200D01*
X131200Y275000D01*
X121200D02*
X122000Y275800D01*
X122800Y275000D01*
X122000Y274200D01*
X121200Y275000D01*
X131200Y249500D02*
X132000Y250300D01*
X132800Y249500D01*
X132000Y248700D01*
X131200Y249500D01*
X121200D02*
X122000Y250300D01*
X122800Y249500D01*
X122000Y248700D01*
X121200Y249500D01*
X443700Y125000D02*
X444500Y125800D01*
X445300Y125000D01*
X444500Y124200D01*
X443700Y125000D01*
X433700D02*
X434500Y125800D01*
X435300Y125000D01*
X434500Y124200D01*
X433700Y125000D01*
X443700Y153500D02*
X444500Y154300D01*
X445300Y153500D01*
X444500Y152700D01*
X443700Y153500D01*
X433700D02*
X434500Y154300D01*
X435300Y153500D01*
X434500Y152700D01*
X433700Y153500D01*
X290200Y190700D02*
Y192300D01*
X291800D01*
Y190700D01*
X290200D01*
X290600Y191100D02*
Y191900D01*
X291400D01*
Y191100D01*
X290600D01*
X300200Y190700D02*
Y192300D01*
X301800D01*
Y190700D01*
X300200D01*
X300600Y191100D02*
Y191900D01*
X301400D01*
Y191100D01*
X300600D01*
X310200Y190700D02*
Y192300D01*
X311800D01*
Y190700D01*
X310200D01*
X310600Y191100D02*
Y191900D01*
X311400D01*
Y191100D01*
X310600D01*
X320200Y190700D02*
Y192300D01*
X321800D01*
Y190700D01*
X320200D01*
X320600Y191100D02*
Y191900D01*
X321400D01*
Y191100D01*
X320600D01*
X330200Y190700D02*
Y192300D01*
X331800D01*
Y190700D01*
X330200D01*
X330600Y191100D02*
Y191900D01*
X331400D01*
Y191100D01*
X330600D01*
X340200Y190700D02*
Y192300D01*
X341800D01*
Y190700D01*
X340200D01*
X340600Y191100D02*
Y191900D01*
X341400D01*
Y191100D01*
X340600D01*
X350200Y190700D02*
Y192300D01*
X351800D01*
Y190700D01*
X350200D01*
X350600Y191100D02*
Y191900D01*
X351400D01*
Y191100D01*
X350600D01*
X360200Y190700D02*
Y192300D01*
X361800D01*
Y190700D01*
X360200D01*
X360600Y191100D02*
Y191900D01*
X361400D01*
Y191100D01*
X360600D01*
X370200Y190700D02*
Y192300D01*
X371800D01*
Y190700D01*
X370200D01*
X370600Y191100D02*
Y191900D01*
X371400D01*
Y191100D01*
X370600D01*
X380200Y190700D02*
Y192300D01*
X381800D01*
Y190700D01*
X380200D01*
X380600Y191100D02*
Y191900D01*
X381400D01*
Y191100D01*
X380600D01*
X390200Y190700D02*
Y192300D01*
X391800D01*
Y190700D01*
X390200D01*
X390600Y191100D02*
Y191900D01*
X391400D01*
Y191100D01*
X390600D01*
X400200Y190700D02*
Y192300D01*
X401800D01*
Y190700D01*
X400200D01*
X400600Y191100D02*
Y191900D01*
X401400D01*
Y191100D01*
X400600D01*
X410200Y190700D02*
Y192300D01*
X411800D01*
Y190700D01*
X410200D01*
X410600Y191100D02*
Y191900D01*
X411400D01*
Y191100D01*
X410600D01*
X420200Y190700D02*
Y192300D01*
X421800D01*
Y190700D01*
X420200D01*
X420600Y191100D02*
Y191900D01*
X421400D01*
Y191100D01*
X420600D01*
X430200Y190700D02*
Y192300D01*
X431800D01*
Y190700D01*
X430200D01*
X430600Y191100D02*
Y191900D01*
X431400D01*
Y191100D01*
X430600D01*
X440200Y190700D02*
Y192300D01*
X441800D01*
Y190700D01*
X440200D01*
X440600Y191100D02*
Y191900D01*
X441400D01*
Y191100D01*
X440600D01*
X450200Y190700D02*
Y192300D01*
X451800D01*
Y190700D01*
X450200D01*
X450600Y191100D02*
Y191900D01*
X451400D01*
Y191100D01*
X450600D01*
X460200Y190700D02*
Y192300D01*
X461800D01*
Y190700D01*
X460200D01*
X460600Y191100D02*
Y191900D01*
X461400D01*
Y191100D01*
X460600D01*
X470200Y190700D02*
Y192300D01*
X471800D01*
Y190700D01*
X470200D01*
X470600Y191100D02*
Y191900D01*
X471400D01*
Y191100D01*
X470600D01*
X480200Y190700D02*
Y192300D01*
X481800D01*
Y190700D01*
X480200D01*
X480600Y191100D02*
Y191900D01*
X481400D01*
Y191100D01*
X480600D01*
X290200Y250700D02*
Y252300D01*
X291800D01*
Y250700D01*
X290200D01*
X290600Y251100D02*
Y251900D01*
X291400D01*
Y251100D01*
X290600D01*
X300200Y250700D02*
Y252300D01*
X301800D01*
Y250700D01*
X300200D01*
X300600Y251100D02*
Y251900D01*
X301400D01*
Y251100D01*
X300600D01*
X310200Y250700D02*
Y252300D01*
X311800D01*
Y250700D01*
X310200D01*
X310600Y251100D02*
Y251900D01*
X311400D01*
Y251100D01*
X310600D01*
X320200Y250700D02*
Y252300D01*
X321800D01*
Y250700D01*
X320200D01*
X320600Y251100D02*
Y251900D01*
X321400D01*
Y251100D01*
X320600D01*
X330200Y250700D02*
Y252300D01*
X331800D01*
Y250700D01*
X330200D01*
X330600Y251100D02*
Y251900D01*
X331400D01*
Y251100D01*
X330600D01*
X340200Y250700D02*
Y252300D01*
X341800D01*
Y250700D01*
X340200D01*
X340600Y251100D02*
Y251900D01*
X341400D01*
Y251100D01*
X340600D01*
X350200Y250700D02*
Y252300D01*
X351800D01*
Y250700D01*
X350200D01*
X350600Y251100D02*
Y251900D01*
X351400D01*
Y251100D01*
X350600D01*
X360200Y250700D02*
Y252300D01*
X361800D01*
Y250700D01*
X360200D01*
X360600Y251100D02*
Y251900D01*
X361400D01*
Y251100D01*
X360600D01*
X370200Y250700D02*
Y252300D01*
X371800D01*
Y250700D01*
X370200D01*
X370600Y251100D02*
Y251900D01*
X371400D01*
Y251100D01*
X370600D01*
X380200Y250700D02*
Y252300D01*
X381800D01*
Y250700D01*
X380200D01*
X380600Y251100D02*
Y251900D01*
X381400D01*
Y251100D01*
X380600D01*
X390200Y250700D02*
Y252300D01*
X391800D01*
Y250700D01*
X390200D01*
X390600Y251100D02*
Y251900D01*
X391400D01*
Y251100D01*
X390600D01*
X400200Y250700D02*
Y252300D01*
X401800D01*
Y250700D01*
X400200D01*
X400600Y251100D02*
Y251900D01*
X401400D01*
Y251100D01*
X400600D01*
X410200Y250700D02*
Y252300D01*
X411800D01*
Y250700D01*
X410200D01*
X410600Y251100D02*
Y251900D01*
X411400D01*
Y251100D01*
X410600D01*
X420200Y250700D02*
Y252300D01*
X421800D01*
Y250700D01*
X420200D01*
X420600Y251100D02*
Y251900D01*
X421400D01*
Y251100D01*
X420600D01*
X430200Y250700D02*
Y252300D01*
X431800D01*
Y250700D01*
X430200D01*
X430600Y251100D02*
Y251900D01*
X431400D01*
Y251100D01*
X430600D01*
X440200Y250700D02*
Y252300D01*
X441800D01*
Y250700D01*
X440200D01*
X440600Y251100D02*
Y251900D01*
X441400D01*
Y251100D01*
X440600D01*
X450200Y250700D02*
Y252300D01*
X451800D01*
Y250700D01*
X450200D01*
X450600Y251100D02*
Y251900D01*
X451400D01*
Y251100D01*
X450600D01*
X460200Y250700D02*
Y252300D01*
X461800D01*
Y250700D01*
X460200D01*
X460600Y251100D02*
Y251900D01*
X461400D01*
Y251100D01*
X460600D01*
X470200Y250700D02*
Y252300D01*
X471800D01*
Y250700D01*
X470200D01*
X470600Y251100D02*
Y251900D01*
X471400D01*
Y251100D01*
X470600D01*
X480200Y250700D02*
Y252300D01*
X481800D01*
Y250700D01*
X480200D01*
X480600Y251100D02*
Y251900D01*
X481400D01*
Y251100D01*
X480600D01*
X384700Y288700D02*
X385100Y289500D01*
X384700Y290300D01*
X385500Y289900D01*
X386300Y290300D01*
X385900Y289500D01*
X386300Y288700D01*
X385500Y289100D01*
X384700Y288700D01*
X374700D02*
X375100Y289500D01*
X374700Y290300D01*
X375500Y289900D01*
X376300Y290300D01*
X375900Y289500D01*
X376300Y288700D01*
X375500Y289100D01*
X374700Y288700D01*
X364700D02*
X365100Y289500D01*
X364700Y290300D01*
X365500Y289900D01*
X366300Y290300D01*
X365900Y289500D01*
X366300Y288700D01*
X365500Y289100D01*
X364700Y288700D01*
X314700D02*
X315100Y289500D01*
X314700Y290300D01*
X315500Y289900D01*
X316300Y290300D01*
X315900Y289500D01*
X316300Y288700D01*
X315500Y289100D01*
X314700Y288700D01*
X324700D02*
X325100Y289500D01*
X324700Y290300D01*
X325500Y289900D01*
X326300Y290300D01*
X325900Y289500D01*
X326300Y288700D01*
X325500Y289100D01*
X324700Y288700D01*
X334700D02*
X335100Y289500D01*
X334700Y290300D01*
X335500Y289900D01*
X336300Y290300D01*
X335900Y289500D01*
X336300Y288700D01*
X335500Y289100D01*
X334700Y288700D01*
X344700D02*
X345100Y289500D01*
X344700Y290300D01*
X345500Y289900D01*
X346300Y290300D01*
X345900Y289500D01*
X346300Y288700D01*
X345500Y289100D01*
X344700Y288700D01*
X354700D02*
X355100Y289500D01*
X354700Y290300D01*
X355500Y289900D01*
X356300Y290300D01*
X355900Y289500D01*
X356300Y288700D01*
X355500Y289100D01*
X354700Y288700D01*
X209200Y289200D02*
X209600D01*
X210000Y289600D01*
X210400Y289200D01*
X210800D01*
Y289600D01*
X210400Y290000D01*
X210800Y290400D01*
Y290800D01*
X210400D01*
X210000Y290400D01*
X209600Y290800D01*
X209200D01*
Y290400D01*
X209600Y290000D01*
X209200Y289600D01*
Y289200D01*
X219200D02*
X219600D01*
X220000Y289600D01*
X220400Y289200D01*
X220800D01*
Y289600D01*
X220400Y290000D01*
X220800Y290400D01*
Y290800D01*
X220400D01*
X220000Y290400D01*
X219600Y290800D01*
X219200D01*
Y290400D01*
X219600Y290000D01*
X219200Y289600D01*
Y289200D01*
X239200D02*
X239600D01*
X240000Y289600D01*
X240400Y289200D01*
X240800D01*
Y289600D01*
X240400Y290000D01*
X240800Y290400D01*
Y290800D01*
X240400D01*
X240000Y290400D01*
X239600Y290800D01*
X239200D01*
Y290400D01*
X239600Y290000D01*
X239200Y289600D01*
Y289200D01*
X229200D02*
X229600D01*
X230000Y289600D01*
X230400Y289200D01*
X230800D01*
Y289600D01*
X230400Y290000D01*
X230800Y290400D01*
Y290800D01*
X230400D01*
X230000Y290400D01*
X229600Y290800D01*
X229200D01*
Y290400D01*
X229600Y290000D01*
X229200Y289600D01*
Y289200D01*
X556100Y186100D02*
Y185700D01*
X556900D01*
Y186100D01*
X557300D01*
Y186900D01*
X556900D01*
Y187300D01*
X556100D01*
Y186900D01*
X555700D01*
Y186100D01*
X556100D01*
X505600D02*
Y185700D01*
X506400D01*
Y186100D01*
X506800D01*
Y186900D01*
X506400D01*
Y187300D01*
X505600D01*
Y186900D01*
X505200D01*
Y186100D01*
X505600D01*
X375142Y108405D02*
X374342Y110005D01*
X375942D01*
X375142Y108405D01*
X392858D02*
X392058Y110005D01*
X393658D01*
X392858Y108405D01*
Y133995D02*
X392058Y135595D01*
X393658D01*
X392858Y133995D01*
X375142D02*
X374342Y135595D01*
X375942D01*
X375142Y133995D01*
X345642Y108405D02*
X344842Y110005D01*
X346442D01*
X345642Y108405D01*
X363358D02*
X362558Y110005D01*
X364158D01*
X363358Y108405D01*
Y133995D02*
X362558Y135595D01*
X364158D01*
X363358Y133995D01*
X345642D02*
X344842Y135595D01*
X346442D01*
X345642Y133995D01*
X315642Y108405D02*
X314842Y110005D01*
X316442D01*
X315642Y108405D01*
X333358D02*
X332558Y110005D01*
X334158D01*
X333358Y108405D01*
Y133995D02*
X332558Y135595D01*
X334158D01*
X333358Y133995D01*
X315642D02*
X314842Y135595D01*
X316442D01*
X315642Y133995D01*
X286142Y108405D02*
X285342Y110005D01*
X286942D01*
X286142Y108405D01*
X303858D02*
X303058Y110005D01*
X304658D01*
X303858Y108405D01*
Y133995D02*
X303058Y135595D01*
X304658D01*
X303858Y133995D01*
X286142D02*
X285342Y135595D01*
X286942D01*
X286142Y133995D01*
D41*
X225300Y249500D02*
G03*
X225300Y249500I-800J0D01*
G01*
X235300D02*
G03*
X235300Y249500I-800J0D01*
G01*
X203300D02*
G03*
X203300Y249500I-800J0D01*
G01*
X213300D02*
G03*
X213300Y249500I-800J0D01*
G01*
X207800Y272500D02*
G03*
X207800Y272500I-800J0D01*
G01*
X217800D02*
G03*
X217800Y272500I-800J0D01*
G01*
X381800Y266000D02*
G03*
X381800Y266000I-800J0D01*
G01*
X391800D02*
G03*
X391800Y266000I-800J0D01*
G01*
X561300Y258000D02*
G03*
X561300Y258000I-800J0D01*
G01*
X571300D02*
G03*
X571300Y258000I-800J0D01*
G01*
X561300Y233500D02*
G03*
X561300Y233500I-800J0D01*
G01*
X571300D02*
G03*
X571300Y233500I-800J0D01*
G01*
X257800Y254000D02*
G03*
X257800Y254000I-800J0D01*
G01*
Y244000D02*
G03*
X257800Y244000I-800J0D01*
G01*
X258300Y277000D02*
G03*
X258300Y277000I-800J0D01*
G01*
Y267000D02*
G03*
X258300Y267000I-800J0D01*
G01*
X505800Y137500D02*
G03*
X505800Y137500I-800J0D01*
G01*
X495800D02*
G03*
X495800Y137500I-800J0D01*
G01*
X505300Y154500D02*
G03*
X505300Y154500I-800J0D01*
G01*
X495300D02*
G03*
X495300Y154500I-800J0D01*
G01*
X505800Y120500D02*
G03*
X505800Y120500I-800J0D01*
G01*
X495800D02*
G03*
X495800Y120500I-800J0D01*
G01*
X385800Y156500D02*
G03*
X385800Y156500I-800J0D01*
G01*
X375800D02*
G03*
X375800Y156500I-800J0D01*
G01*
X356300D02*
G03*
X356300Y156500I-800J0D01*
G01*
X346300D02*
G03*
X346300Y156500I-800J0D01*
G01*
X326800D02*
G03*
X326800Y156500I-800J0D01*
G01*
X316800D02*
G03*
X316800Y156500I-800J0D01*
G01*
X296800D02*
G03*
X296800Y156500I-800J0D01*
G01*
X286800D02*
G03*
X286800Y156500I-800J0D01*
G01*
X381800Y176000D02*
G03*
X381800Y176000I-800J0D01*
G01*
X391800D02*
G03*
X391800Y176000I-800J0D01*
G01*
M02*
