G04*
G04 #@! TF.GenerationSoftware,Altium Limited,Altium Designer,21.8.1 (53)*
G04*
G04 Layer_Color=65535*
%FSLAX25Y25*%
%MOIN*%
G70*
G04*
G04 #@! TF.SameCoordinates,ADBD87D6-F356-4956-B268-16D96FCF202B*
G04*
G04*
G04 #@! TF.FilePolarity,Positive*
G04*
G01*
G75*
%ADD10C,0.01000*%
%ADD11C,0.00787*%
%ADD12C,0.00984*%
%ADD13C,0.02362*%
%ADD14C,0.00500*%
D10*
X239342Y249500D02*
G03*
X239342Y249500I-9843J0D01*
G01*
X217342D02*
G03*
X217342Y249500I-9843J0D01*
G01*
X213021Y272500D02*
G03*
X213021Y272500I-6021J0D01*
G01*
X211243D02*
G03*
X211243Y272500I-4243J0D01*
G01*
X395843Y266000D02*
G03*
X395843Y266000I-9843J0D01*
G01*
X574743Y258000D02*
G03*
X574743Y258000I-4243J0D01*
G01*
X576521D02*
G03*
X576521Y258000I-6021J0D01*
G01*
X574743Y233500D02*
G03*
X574743Y233500I-4243J0D01*
G01*
X576521D02*
G03*
X576521Y233500I-6021J0D01*
G01*
X261243Y244000D02*
G03*
X261243Y244000I-4243J0D01*
G01*
X263021D02*
G03*
X263021Y244000I-6021J0D01*
G01*
X261743Y267000D02*
G03*
X261743Y267000I-4243J0D01*
G01*
X263521D02*
G03*
X263521Y267000I-6021J0D01*
G01*
X499243Y137500D02*
G03*
X499243Y137500I-4243J0D01*
G01*
X501021D02*
G03*
X501021Y137500I-6021J0D01*
G01*
X498743Y154500D02*
G03*
X498743Y154500I-4243J0D01*
G01*
X500521D02*
G03*
X500521Y154500I-6021J0D01*
G01*
X499243Y120500D02*
G03*
X499243Y120500I-4243J0D01*
G01*
X501021D02*
G03*
X501021Y120500I-6021J0D01*
G01*
X379243Y156500D02*
G03*
X379243Y156500I-4243J0D01*
G01*
X381021D02*
G03*
X381021Y156500I-6021J0D01*
G01*
X349743D02*
G03*
X349743Y156500I-4243J0D01*
G01*
X351521D02*
G03*
X351521Y156500I-6021J0D01*
G01*
X320243D02*
G03*
X320243Y156500I-4243J0D01*
G01*
X322021D02*
G03*
X322021Y156500I-6021J0D01*
G01*
X290243D02*
G03*
X290243Y156500I-4243J0D01*
G01*
X292021D02*
G03*
X292021Y156500I-6021J0D01*
G01*
X395843Y176000D02*
G03*
X395843Y176000I-9843J0D01*
G01*
X224199Y267798D02*
X223199Y268798D01*
X221200D01*
X220200Y267798D01*
Y263800D01*
X221200Y262800D01*
X223199D01*
X224199Y263800D01*
X226198Y268798D02*
Y262800D01*
X230197D01*
X236195D02*
X232196D01*
X236195Y266799D01*
Y267798D01*
X235195Y268798D01*
X233196D01*
X232196Y267798D01*
X192501Y265499D02*
X191501Y266499D01*
X189502D01*
X188502Y265499D01*
Y261501D01*
X189502Y260501D01*
X191501D01*
X192501Y261501D01*
X194500Y266499D02*
Y260501D01*
X198499D01*
X200498D02*
X202498D01*
X201498D01*
Y266499D01*
X200498Y265499D01*
X221503Y272501D02*
Y278499D01*
X224502D01*
X225501Y277499D01*
Y275500D01*
X224502Y274500D01*
X221503D01*
X223502D02*
X225501Y272501D01*
X227501D02*
Y278499D01*
X230500D01*
X231499Y277499D01*
Y275500D01*
X230500Y274500D01*
X227501D01*
X229500D02*
X231499Y272501D01*
X237497Y277499D02*
X236498Y278499D01*
X234498D01*
X233499Y277499D01*
Y276500D01*
X234498Y275500D01*
X236498D01*
X237497Y274500D01*
Y273501D01*
X236498Y272501D01*
X234498D01*
X233499Y273501D01*
X402001Y267999D02*
X401002Y268999D01*
X399002D01*
X398003Y267999D01*
Y264001D01*
X399002Y263001D01*
X401002D01*
X402001Y264001D01*
X404001Y268999D02*
Y265000D01*
X406000Y263001D01*
X407999Y265000D01*
Y268999D01*
X413997Y263001D02*
X409999D01*
X413997Y267000D01*
Y267999D01*
X412998Y268999D01*
X410998D01*
X409999Y267999D01*
X111003Y224499D02*
Y218501D01*
X115002D01*
X121000Y223499D02*
X120000Y224499D01*
X118001D01*
X117001Y223499D01*
Y219501D01*
X118001Y218501D01*
X120000D01*
X121000Y219501D01*
X122999Y224499D02*
Y218501D01*
X125998D01*
X126998Y219501D01*
Y223499D01*
X125998Y224499D01*
X122999D01*
X128997Y218501D02*
X130997D01*
X129997D01*
Y224499D01*
X128997Y223499D01*
X113504Y294999D02*
Y289001D01*
X116503D01*
X117503Y290001D01*
Y293999D01*
X116503Y294999D01*
X113504D01*
X119502Y293999D02*
X120502Y294999D01*
X122502D01*
X123501Y293999D01*
Y293000D01*
X122502Y292000D01*
X121502D01*
X122502D01*
X123501Y291000D01*
Y290001D01*
X122502Y289001D01*
X120502D01*
X119502Y290001D01*
X125501Y289001D02*
Y290001D01*
X126500D01*
Y289001D01*
X125501D01*
X130499Y293999D02*
X131499Y294999D01*
X133498D01*
X134498Y293999D01*
Y293000D01*
X133498Y292000D01*
X132498D01*
X133498D01*
X134498Y291000D01*
Y290001D01*
X133498Y289001D01*
X131499D01*
X130499Y290001D01*
X136497Y294999D02*
Y291000D01*
X138496Y289001D01*
X140496Y291000D01*
Y294999D01*
X152504Y284999D02*
X151505Y285999D01*
X149505D01*
X148505Y284999D01*
Y283999D01*
X149505Y283000D01*
X151505D01*
X152504Y282000D01*
Y281000D01*
X151505Y280001D01*
X149505D01*
X148505Y281000D01*
X154504Y285999D02*
Y280001D01*
X156503Y282000D01*
X158502Y280001D01*
Y285999D01*
X160502Y279001D02*
X164500D01*
X166500Y280001D02*
Y285999D01*
X169499D01*
X170498Y284999D01*
Y283000D01*
X169499Y282000D01*
X166500D01*
X168499D02*
X170498Y280001D01*
X176497Y284999D02*
X175497Y285999D01*
X173497D01*
X172498Y284999D01*
Y283999D01*
X173497Y283000D01*
X175497D01*
X176497Y282000D01*
Y281000D01*
X175497Y280001D01*
X173497D01*
X172498Y281000D01*
X178496Y285999D02*
X182494D01*
X180495D01*
Y280001D01*
X545506Y113999D02*
X543507D01*
X544506D01*
Y109001D01*
X543507Y108001D01*
X542507D01*
X541507Y109001D01*
X547505Y107001D02*
X551504D01*
X557502Y112999D02*
X556502Y113999D01*
X554503D01*
X553503Y112999D01*
Y111999D01*
X554503Y111000D01*
X556502D01*
X557502Y110000D01*
Y109001D01*
X556502Y108001D01*
X554503D01*
X553503Y109001D01*
X563500Y113999D02*
X559502D01*
Y108001D01*
X563500D01*
X559502Y111000D02*
X561501D01*
X565499Y108001D02*
Y113999D01*
X568499D01*
X569498Y112999D01*
Y111000D01*
X568499Y110000D01*
X565499D01*
X567499D02*
X569498Y108001D01*
X571498Y113999D02*
X573497D01*
X572497D01*
Y108001D01*
X571498D01*
X573497D01*
X576496D02*
Y111999D01*
X578495Y113999D01*
X580495Y111999D01*
Y108001D01*
Y111000D01*
X576496D01*
X582494Y113999D02*
Y108001D01*
X586493D01*
X565506Y175999D02*
X569504D01*
X567505D01*
Y170001D01*
X571504D02*
Y175999D01*
X574503D01*
X575502Y174999D01*
Y173000D01*
X574503Y172000D01*
X571504D01*
X577502Y169001D02*
X581500D01*
X587498Y174999D02*
X586499Y175999D01*
X584499D01*
X583500Y174999D01*
Y174000D01*
X584499Y173000D01*
X586499D01*
X587498Y172000D01*
Y171001D01*
X586499Y170001D01*
X584499D01*
X583500Y171001D01*
X589498Y175999D02*
Y170001D01*
X592497D01*
X593497Y171001D01*
Y174999D01*
X592497Y175999D01*
X589498D01*
X595496Y170001D02*
Y174000D01*
X597495Y175999D01*
X599495Y174000D01*
Y170001D01*
Y173000D01*
X595496D01*
X560003Y289999D02*
X558004D01*
X559004D01*
Y285000D01*
X558004Y284001D01*
X557004D01*
X556004Y285000D01*
X562003Y283001D02*
X566001D01*
X568001Y284001D02*
Y289999D01*
X571000D01*
X571999Y288999D01*
Y287000D01*
X571000Y286000D01*
X568001D01*
X573999Y289999D02*
Y284001D01*
X577997D01*
X579997Y289999D02*
Y284001D01*
X583995D01*
X289004Y242499D02*
Y237501D01*
X290004Y236501D01*
X292004D01*
X293003Y237501D01*
Y242499D01*
X295003Y235501D02*
X299001D01*
X301001Y236501D02*
Y242499D01*
X303000Y240499D01*
X304999Y242499D01*
Y236501D01*
X310997Y241499D02*
X309998Y242499D01*
X307998D01*
X306999Y241499D01*
Y237501D01*
X307998Y236501D01*
X309998D01*
X310997Y237501D01*
X312997Y242499D02*
Y237501D01*
X313997Y236501D01*
X315996D01*
X316996Y237501D01*
Y242499D01*
X548500Y205498D02*
X552499D01*
X550499D01*
Y199500D01*
X554498D02*
Y205498D01*
X557497D01*
X558497Y204498D01*
Y202499D01*
X557497Y201499D01*
X554498D01*
X560496Y198500D02*
X564495D01*
X570493Y204498D02*
X569493Y205498D01*
X567494D01*
X566494Y204498D01*
Y203499D01*
X567494Y202499D01*
X569493D01*
X570493Y201499D01*
Y200500D01*
X569493Y199500D01*
X567494D01*
X566494Y200500D01*
X576491Y204498D02*
X575491Y205498D01*
X573492D01*
X572492Y204498D01*
Y200500D01*
X573492Y199500D01*
X575491D01*
X576491Y200500D01*
X578490Y205498D02*
Y199500D01*
X582489D01*
X511007Y175499D02*
X515006D01*
X513007D01*
Y169501D01*
X517005D02*
Y175499D01*
X520005D01*
X521004Y174499D01*
Y172500D01*
X520005Y171500D01*
X517005D01*
X523004Y168501D02*
X527002D01*
X529002Y175499D02*
Y169501D01*
X533000D01*
X537999Y175499D02*
X535999D01*
X535000Y174499D01*
Y170501D01*
X535999Y169501D01*
X537999D01*
X538998Y170501D01*
Y174499D01*
X537999Y175499D01*
X540998Y168501D02*
X544997D01*
X546996Y170501D02*
X547996Y169501D01*
X549995D01*
X550994Y170501D01*
Y174499D01*
X549995Y175499D01*
X547996D01*
X546996Y174499D01*
Y173500D01*
X547996Y172500D01*
X550994D01*
X552994Y174499D02*
X553994Y175499D01*
X555993D01*
X556993Y174499D01*
Y170501D01*
X555993Y169501D01*
X553994D01*
X552994Y170501D01*
Y174499D01*
X498000Y205498D02*
X501999D01*
X499999D01*
Y199500D01*
X503998D02*
Y205498D01*
X506997D01*
X507997Y204498D01*
Y202499D01*
X506997Y201499D01*
X503998D01*
X509996Y198500D02*
X513995D01*
X515994Y205498D02*
Y199500D01*
X519993D01*
X524991Y205498D02*
X522992D01*
X521992Y204498D01*
Y200500D01*
X522992Y199500D01*
X524991D01*
X525991Y200500D01*
Y204498D01*
X524991Y205498D01*
X527990Y198500D02*
X531989D01*
X533988Y204498D02*
X534988Y205498D01*
X536987D01*
X537987Y204498D01*
Y200500D01*
X536987Y199500D01*
X534988D01*
X533988Y200500D01*
Y204498D01*
X538503Y254001D02*
Y259999D01*
X541502D01*
X542501Y258999D01*
Y257000D01*
X541502Y256000D01*
X538503D01*
X540502D02*
X542501Y254001D01*
X544501D02*
Y259999D01*
X547500D01*
X548499Y258999D01*
Y257000D01*
X547500Y256000D01*
X544501D01*
X554497Y254001D02*
X550499D01*
X554497Y258000D01*
Y258999D01*
X553498Y259999D01*
X551498D01*
X550499Y258999D01*
X540502Y231001D02*
Y236999D01*
X543501D01*
X544501Y235999D01*
Y234000D01*
X543501Y233000D01*
X540502D01*
X542502D02*
X544501Y231001D01*
X546500D02*
Y236999D01*
X549499D01*
X550499Y235999D01*
Y234000D01*
X549499Y233000D01*
X546500D01*
X552498Y231001D02*
X554498D01*
X553498D01*
Y236999D01*
X552498Y235999D01*
X391503Y154001D02*
Y159999D01*
X394502D01*
X395501Y158999D01*
Y157000D01*
X394502Y156000D01*
X391503D01*
X393502D02*
X395501Y154001D01*
X397501Y159999D02*
Y154001D01*
Y156000D01*
X401499Y159999D01*
X398500Y157000D01*
X401499Y154001D01*
X403499Y158999D02*
X404498Y159999D01*
X406498D01*
X407497Y158999D01*
Y158000D01*
X406498Y157000D01*
X405498D01*
X406498D01*
X407497Y156000D01*
Y155001D01*
X406498Y154001D01*
X404498D01*
X403499Y155001D01*
X349503Y164001D02*
Y169999D01*
X352502D01*
X353501Y168999D01*
Y167000D01*
X352502Y166000D01*
X349503D01*
X351502D02*
X353501Y164001D01*
X355501Y169999D02*
Y164001D01*
Y166000D01*
X359499Y169999D01*
X356500Y167000D01*
X359499Y164001D01*
X365497D02*
X361499D01*
X365497Y168000D01*
Y168999D01*
X364498Y169999D01*
X362498D01*
X361499Y168999D01*
X322502Y164001D02*
Y169999D01*
X325501D01*
X326501Y168999D01*
Y167000D01*
X325501Y166000D01*
X322502D01*
X324502D02*
X326501Y164001D01*
X328500Y169999D02*
Y164001D01*
Y166000D01*
X332499Y169999D01*
X329500Y167000D01*
X332499Y164001D01*
X334498D02*
X336498D01*
X335498D01*
Y169999D01*
X334498Y168999D01*
X292503Y164001D02*
Y169999D01*
X295502D01*
X296501Y168999D01*
Y167000D01*
X295502Y166000D01*
X292503D01*
X294502D02*
X296501Y164001D01*
X298501Y169999D02*
Y164001D01*
Y166000D01*
X302499Y169999D01*
X299500Y167000D01*
X302499Y164001D01*
X304499Y168999D02*
X305498Y169999D01*
X307498D01*
X308497Y168999D01*
Y165001D01*
X307498Y164001D01*
X305498D01*
X304499Y165001D01*
Y168999D01*
X509505Y151501D02*
Y157499D01*
X512504D01*
X513503Y156499D01*
Y154500D01*
X512504Y153500D01*
X509505D01*
X511504D02*
X513503Y151501D01*
X515503Y150501D02*
X519501D01*
X521501Y151501D02*
Y157499D01*
X523500Y155499D01*
X525499Y157499D01*
Y151501D01*
X531497Y156499D02*
X530498Y157499D01*
X528498D01*
X527499Y156499D01*
Y152500D01*
X528498Y151501D01*
X530498D01*
X531497Y152500D01*
X533497Y157499D02*
Y152500D01*
X534496Y151501D01*
X536496D01*
X537496Y152500D01*
Y157499D01*
X510005Y117501D02*
Y123499D01*
X513004D01*
X514003Y122499D01*
Y120500D01*
X513004Y119500D01*
X510005D01*
X512004D02*
X514003Y117501D01*
X516003Y116501D02*
X520001D01*
X522001Y123499D02*
Y117501D01*
X525999D01*
X531997Y123499D02*
X527999D01*
Y117501D01*
X531997D01*
X527999Y120500D02*
X529998D01*
X533997Y123499D02*
Y117501D01*
X536996D01*
X537995Y118500D01*
Y122499D01*
X536996Y123499D01*
X533997D01*
X510005Y134501D02*
Y140499D01*
X513004D01*
X514003Y139499D01*
Y137500D01*
X513004Y136500D01*
X510005D01*
X512004D02*
X514003Y134501D01*
X516003Y133501D02*
X520001D01*
X522001Y140499D02*
Y134501D01*
X525000D01*
X525999Y135501D01*
Y139499D01*
X525000Y140499D01*
X522001D01*
X527999D02*
X531997D01*
X529998D01*
Y134501D01*
X533997D02*
Y140499D01*
X536996D01*
X537995Y139499D01*
Y137500D01*
X536996Y136500D01*
X533997D01*
X535996D02*
X537995Y134501D01*
X263503Y250001D02*
Y255999D01*
X266502D01*
X267501Y254999D01*
Y253000D01*
X266502Y252000D01*
X263503D01*
X265502D02*
X267501Y250001D01*
X273499Y255999D02*
X269501D01*
Y253000D01*
X271500Y254000D01*
X272500D01*
X273499Y253000D01*
Y251001D01*
X272500Y250001D01*
X270500D01*
X269501Y251001D01*
X275499Y255999D02*
Y252000D01*
X277498Y250001D01*
X279497Y252000D01*
Y255999D01*
X263504Y273501D02*
Y279499D01*
X266503D01*
X267503Y278499D01*
Y276500D01*
X266503Y275500D01*
X263504D01*
X265504D02*
X267503Y273501D01*
X269502Y278499D02*
X270502Y279499D01*
X272501D01*
X273501Y278499D01*
Y277500D01*
X272501Y276500D01*
X271502D01*
X272501D01*
X273501Y275500D01*
Y274501D01*
X272501Y273501D01*
X270502D01*
X269502Y274501D01*
X275500Y273501D02*
Y274501D01*
X276500D01*
Y273501D01*
X275500D01*
X280499Y278499D02*
X281499Y279499D01*
X283498D01*
X284498Y278499D01*
Y277500D01*
X283498Y276500D01*
X282498D01*
X283498D01*
X284498Y275500D01*
Y274501D01*
X283498Y273501D01*
X281499D01*
X280499Y274501D01*
X286497Y279499D02*
Y275500D01*
X288496Y273501D01*
X290496Y275500D01*
Y279499D01*
X372700Y147198D02*
Y141200D01*
Y143199D01*
X376699Y147198D01*
X373700Y144199D01*
X376699Y141200D01*
X382697Y147198D02*
X378698D01*
Y141200D01*
X382697D01*
X378698Y144199D02*
X380697D01*
X384696Y147198D02*
Y146198D01*
X386696Y144199D01*
X388695Y146198D01*
Y147198D01*
X386696Y144199D02*
Y141200D01*
X390694Y146198D02*
X391694Y147198D01*
X393693D01*
X394693Y146198D01*
Y145199D01*
X393693Y144199D01*
X392693D01*
X393693D01*
X394693Y143199D01*
Y142200D01*
X393693Y141200D01*
X391694D01*
X390694Y142200D01*
X343200Y147198D02*
Y141200D01*
Y143199D01*
X347199Y147198D01*
X344200Y144199D01*
X347199Y141200D01*
X353197Y147198D02*
X349198D01*
Y141200D01*
X353197D01*
X349198Y144199D02*
X351197D01*
X355196Y147198D02*
Y146198D01*
X357195Y144199D01*
X359195Y146198D01*
Y147198D01*
X357195Y144199D02*
Y141200D01*
X365193D02*
X361194D01*
X365193Y145199D01*
Y146198D01*
X364193Y147198D01*
X362194D01*
X361194Y146198D01*
X313200Y147198D02*
Y141200D01*
Y143199D01*
X317199Y147198D01*
X314200Y144199D01*
X317199Y141200D01*
X323197Y147198D02*
X319198D01*
Y141200D01*
X323197D01*
X319198Y144199D02*
X321197D01*
X325196Y147198D02*
Y146198D01*
X327196Y144199D01*
X329195Y146198D01*
Y147198D01*
X327196Y144199D02*
Y141200D01*
X331194D02*
X333193D01*
X332194D01*
Y147198D01*
X331194Y146198D01*
X283700Y147198D02*
Y141200D01*
Y143199D01*
X287699Y147198D01*
X284700Y144199D01*
X287699Y141200D01*
X293697Y147198D02*
X289698D01*
Y141200D01*
X293697D01*
X289698Y144199D02*
X291697D01*
X295696Y147198D02*
Y146198D01*
X297695Y144199D01*
X299695Y146198D01*
Y147198D01*
X297695Y144199D02*
Y141200D01*
X301694Y146198D02*
X302694Y147198D01*
X304693D01*
X305693Y146198D01*
Y142200D01*
X304693Y141200D01*
X302694D01*
X301694Y142200D01*
Y146198D01*
X276504Y292999D02*
X274505D01*
X275504D01*
Y288000D01*
X274505Y287001D01*
X273505D01*
X272505Y288000D01*
X278504Y286001D02*
X282502D01*
X288500Y292999D02*
X286501D01*
X287501D01*
Y288000D01*
X286501Y287001D01*
X285501D01*
X284502Y288000D01*
X290500Y292999D02*
X294498D01*
X292499D01*
Y287001D01*
X296498D02*
Y291000D01*
X298497Y292999D01*
X300497Y291000D01*
Y287001D01*
Y290000D01*
X296498D01*
X306494Y291999D02*
X305495Y292999D01*
X303496D01*
X302496Y291999D01*
Y288000D01*
X303496Y287001D01*
X305495D01*
X306494Y288000D01*
Y290000D01*
X304495D01*
X189501Y292499D02*
X187502D01*
X188502D01*
Y287501D01*
X187502Y286501D01*
X186502D01*
X185502Y287501D01*
X191500Y286501D02*
X193500D01*
X192500D01*
Y292499D01*
X191500Y291499D01*
X196499D02*
X197499Y292499D01*
X199498D01*
X200498Y291499D01*
Y287501D01*
X199498Y286501D01*
X197499D01*
X196499Y287501D01*
Y291499D01*
X450000Y293999D02*
X448001D01*
X449001D01*
Y289001D01*
X448001Y288001D01*
X447001D01*
X446002Y289001D01*
X452000D02*
X452999Y288001D01*
X454999D01*
X455998Y289001D01*
Y292999D01*
X454999Y293999D01*
X452999D01*
X452000Y292999D01*
Y292000D01*
X452999Y291000D01*
X455998D01*
X453505Y155499D02*
Y149501D01*
X456504D01*
X457503Y150501D01*
Y154499D01*
X456504Y155499D01*
X453505D01*
X459503Y148501D02*
X463501D01*
X465501Y149501D02*
Y155499D01*
X467500Y153499D01*
X469499Y155499D01*
Y149501D01*
X475497Y154499D02*
X474498Y155499D01*
X472498D01*
X471499Y154499D01*
Y150501D01*
X472498Y149501D01*
X474498D01*
X475497Y150501D01*
X477497Y155499D02*
Y150501D01*
X478497Y149501D01*
X480496D01*
X481496Y150501D01*
Y155499D01*
X453005Y127499D02*
Y121501D01*
X456004D01*
X457003Y122501D01*
Y126499D01*
X456004Y127499D01*
X453005D01*
X459003Y120501D02*
X463001D01*
X465001Y127499D02*
Y121501D01*
X468000D01*
X468999Y122501D01*
Y126499D01*
X468000Y127499D01*
X465001D01*
X470999D02*
X474997D01*
X472998D01*
Y121501D01*
X476997D02*
Y127499D01*
X479996D01*
X480996Y126499D01*
Y124500D01*
X479996Y123500D01*
X476997D01*
X478996D02*
X480996Y121501D01*
X140503Y252499D02*
Y246501D01*
X143502D01*
X144501Y247501D01*
Y251499D01*
X143502Y252499D01*
X140503D01*
X150499D02*
X146501D01*
Y249500D01*
X148500Y250500D01*
X149500D01*
X150499Y249500D01*
Y247501D01*
X149500Y246501D01*
X147500D01*
X146501Y247501D01*
X152499Y252499D02*
Y248500D01*
X154498Y246501D01*
X156497Y248500D01*
Y252499D01*
X402001Y177999D02*
X401001Y178999D01*
X399002D01*
X398002Y177999D01*
Y174001D01*
X399002Y173001D01*
X401001D01*
X402001Y174001D01*
X404000Y178999D02*
Y175000D01*
X406000Y173001D01*
X407999Y175000D01*
Y178999D01*
X409998Y173001D02*
X411998D01*
X410998D01*
Y178999D01*
X409998Y177999D01*
D11*
X142394Y102071D02*
G03*
X142394Y102071I-394J0D01*
G01*
X587740Y186500D02*
G03*
X587740Y186500I-6240J0D01*
G01*
X537740D02*
G03*
X537740Y186500I-6240J0D01*
G01*
X138506Y275000D02*
G03*
X138506Y275000I-11506J0D01*
G01*
Y249500D02*
G03*
X138506Y249500I-11506J0D01*
G01*
X451006Y125000D02*
G03*
X451006Y125000I-11506J0D01*
G01*
Y153500D02*
G03*
X451006Y153500I-11506J0D01*
G01*
X281669Y219000D02*
G03*
X281669Y224000I0J2500D01*
G01*
X562740Y186500D02*
G03*
X562740Y186500I-6240J0D01*
G01*
X512240D02*
G03*
X512240Y186500I-6240J0D01*
G01*
X170555Y248709D02*
X179445D01*
X170555Y272291D02*
X179331D01*
X163209Y252217D02*
Y268768D01*
X186791Y252217D02*
Y268768D01*
X589756Y106496D02*
Y168504D01*
X599244D01*
Y106496D02*
Y168504D01*
X589756Y106496D02*
X599244D01*
X589756Y213004D02*
X599244D01*
Y285996D01*
X589756Y213004D02*
Y285996D01*
X599244D01*
X459410Y284705D02*
X500591D01*
X459410D02*
Y295295D01*
X500591D01*
Y284705D02*
Y295295D01*
X110000Y272500D02*
Y277500D01*
X107500Y275000D02*
X112500D01*
X110000Y247000D02*
Y252000D01*
X107500Y249500D02*
X112500D01*
X422500Y122500D02*
Y127500D01*
X420000Y125000D02*
X425000D01*
X422500Y151000D02*
Y156000D01*
X420000Y153500D02*
X425000D01*
X281669Y196106D02*
X490331D01*
X281669Y246894D02*
X490331D01*
X281669Y196106D02*
Y219000D01*
Y224000D02*
Y246894D01*
X490331Y196106D02*
Y246894D01*
X391484Y284500D02*
Y294500D01*
X309516Y284500D02*
X391484D01*
X309516D02*
Y294500D01*
X391484D01*
X204409Y284705D02*
Y295295D01*
Y284705D02*
X245590D01*
Y295295D01*
X204409D02*
X245590D01*
X395791Y113716D02*
Y130268D01*
X372209Y113716D02*
Y130268D01*
X379555Y133791D02*
X388331D01*
X379555Y110209D02*
X388445D01*
X366291Y113716D02*
Y130268D01*
X342709Y113716D02*
Y130268D01*
X350055Y133791D02*
X358831D01*
X350055Y110209D02*
X358945D01*
X336291Y113716D02*
Y130268D01*
X312709Y113716D02*
Y130268D01*
X320055Y133791D02*
X328831D01*
X320055Y110209D02*
X328945D01*
X306791Y113716D02*
Y130268D01*
X283209Y113716D02*
Y130268D01*
X290555Y133791D02*
X299331D01*
X290555Y110209D02*
X299445D01*
D12*
X166634Y242587D02*
G03*
X166634Y242587I-492J0D01*
G01*
X286374Y191500D02*
G03*
X286374Y191500I-492J0D01*
G01*
X315992Y297059D02*
G03*
X315992Y297059I-492J0D01*
G01*
X375634Y104087D02*
G03*
X375634Y104087I-492J0D01*
G01*
X346134D02*
G03*
X346134Y104087I-492J0D01*
G01*
X316134D02*
G03*
X316134Y104087I-492J0D01*
G01*
X286634D02*
G03*
X286634Y104087I-492J0D01*
G01*
D13*
X286787Y200043D02*
G03*
X286787Y200043I-1181J0D01*
G01*
D14*
X225484Y228410D02*
X228516D01*
X215484D02*
X218516D01*
X205484D02*
X208516D01*
X195484D02*
X198516D01*
X185484D02*
X188516D01*
X175484D02*
X178516D01*
X165484D02*
X168516D01*
X235484D02*
X265740D01*
X108260D02*
X138516D01*
X155484D02*
X158516D01*
X145484D02*
X148516D01*
X235484Y109591D02*
X265740D01*
X225484D02*
X228516D01*
X155484D02*
X218516D01*
X145484D02*
X148516D01*
X108260D02*
X138516D01*
X265740D02*
Y228410D01*
X108260Y109591D02*
Y228410D01*
M02*
