G04*
G04 #@! TF.GenerationSoftware,Altium Limited,Altium Designer,21.8.1 (53)*
G04*
G04 Layer_Color=16711935*
%FSLAX25Y25*%
%MOIN*%
G70*
G04*
G04 #@! TF.SameCoordinates,070E7AC9-1739-4787-A23A-BD7F06799364*
G04*
G04*
G04 #@! TF.FilePolarity,Negative*
G04*
G01*
G75*
%ADD15C,0.05249*%
%ADD16R,0.05249X0.05249*%
%ADD17C,0.06312*%
%ADD18C,0.06706*%
%ADD19R,0.06706X0.06706*%
%ADD20R,0.06902X0.06902*%
%ADD21C,0.06902*%
%ADD22C,0.09068*%
%ADD23C,0.07099*%
%ADD24R,0.07099X0.07099*%
%ADD25R,0.06902X0.06902*%
D15*
X142000Y229000D02*
D03*
X152000D02*
D03*
X162000D02*
D03*
X172000D02*
D03*
X182000D02*
D03*
X192000D02*
D03*
X202000D02*
D03*
X212000D02*
D03*
X222000D02*
D03*
X232000D02*
D03*
Y109000D02*
D03*
X222000D02*
D03*
X152000D02*
D03*
D16*
X142000D02*
D03*
D17*
X224500Y249500D02*
D03*
X234500D02*
D03*
X202500D02*
D03*
X212500D02*
D03*
X207000Y272500D02*
D03*
X217000D02*
D03*
X381000Y266000D02*
D03*
X391000D02*
D03*
X560500Y258000D02*
D03*
X570500D02*
D03*
X560500Y233500D02*
D03*
X570500D02*
D03*
X257000Y254000D02*
D03*
Y244000D02*
D03*
X257500Y277000D02*
D03*
Y267000D02*
D03*
X505000Y137500D02*
D03*
X495000D02*
D03*
X504500Y154500D02*
D03*
X494500D02*
D03*
X505000Y120500D02*
D03*
X495000D02*
D03*
X385000Y156500D02*
D03*
X375000D02*
D03*
X355500D02*
D03*
X345500D02*
D03*
X326000D02*
D03*
X316000D02*
D03*
X296000D02*
D03*
X286000D02*
D03*
X381000Y176000D02*
D03*
X391000D02*
D03*
D18*
X166142Y273295D02*
D03*
X183858D02*
D03*
Y247705D02*
D03*
X301000Y191500D02*
D03*
X311000D02*
D03*
X321000D02*
D03*
X331000D02*
D03*
X341000D02*
D03*
X351000D02*
D03*
X361000D02*
D03*
X371000D02*
D03*
X381000D02*
D03*
X391000D02*
D03*
X401000D02*
D03*
X411000D02*
D03*
X421000D02*
D03*
X431000D02*
D03*
X441000D02*
D03*
X451000D02*
D03*
X461000D02*
D03*
X471000D02*
D03*
X481000D02*
D03*
X291000Y251500D02*
D03*
X301000D02*
D03*
X311000D02*
D03*
X321000D02*
D03*
X331000D02*
D03*
X341000D02*
D03*
X351000D02*
D03*
X361000D02*
D03*
X371000D02*
D03*
X381000D02*
D03*
X391000D02*
D03*
X401000D02*
D03*
X411000D02*
D03*
X421000D02*
D03*
X431000D02*
D03*
X441000D02*
D03*
X451000D02*
D03*
X461000D02*
D03*
X471000D02*
D03*
X481000D02*
D03*
X392858Y109205D02*
D03*
Y134795D02*
D03*
X375142D02*
D03*
X363358Y109205D02*
D03*
Y134795D02*
D03*
X345642D02*
D03*
X333358Y109205D02*
D03*
Y134795D02*
D03*
X315642D02*
D03*
X303858Y109205D02*
D03*
Y134795D02*
D03*
X286142D02*
D03*
D19*
X166142Y247705D02*
D03*
X291000Y191500D02*
D03*
X375142Y109205D02*
D03*
X345642D02*
D03*
X315642D02*
D03*
X286142D02*
D03*
D20*
X594500Y112500D02*
D03*
Y219500D02*
D03*
D21*
Y122500D02*
D03*
Y132500D02*
D03*
Y142500D02*
D03*
Y152500D02*
D03*
Y162500D02*
D03*
Y279500D02*
D03*
Y269500D02*
D03*
Y259500D02*
D03*
Y249500D02*
D03*
Y239500D02*
D03*
Y229500D02*
D03*
X132000Y275000D02*
D03*
Y249500D02*
D03*
X444500Y125000D02*
D03*
Y153500D02*
D03*
X385500Y289500D02*
D03*
X375500D02*
D03*
X365500D02*
D03*
X325500D02*
D03*
X335500D02*
D03*
X345500D02*
D03*
X355500D02*
D03*
D22*
X581500Y186500D02*
D03*
X531500D02*
D03*
X556500D02*
D03*
X506000D02*
D03*
D23*
X475000Y290000D02*
D03*
X485000D02*
D03*
X495000D02*
D03*
X210000D02*
D03*
X220000D02*
D03*
X230000D02*
D03*
D24*
X465000D02*
D03*
X240000D02*
D03*
D25*
X122000Y275000D02*
D03*
Y249500D02*
D03*
X434500Y125000D02*
D03*
Y153500D02*
D03*
X315500Y289500D02*
D03*
M02*
