G04*
G04 #@! TF.GenerationSoftware,Altium Limited,Altium Designer,21.8.1 (53)*
G04*
G04 Layer_Color=16711935*
%FSLAX25Y25*%
%MOIN*%
G70*
G04*
G04 #@! TF.SameCoordinates,070E7AC9-1739-4787-A23A-BD7F06799364*
G04*
G04*
G04 #@! TF.FilePolarity,Positive*
G04*
G01*
G75*
%ADD10C,0.00787*%
%ADD14C,0.00500*%
%ADD38C,0.00394*%
D10*
X142394Y102071D02*
G03*
X142394Y102071I-394J0D01*
G01*
D14*
X108260Y109591D02*
X265740D01*
Y228410D01*
X108260D02*
X265740D01*
X108260Y109591D02*
Y228410D01*
D38*
X587740Y186500D02*
G03*
X587740Y186500I-6240J0D01*
G01*
X537740D02*
G03*
X537740Y186500I-6240J0D01*
G01*
X138506Y275000D02*
G03*
X138506Y275000I-11506J0D01*
G01*
Y249500D02*
G03*
X138506Y249500I-11506J0D01*
G01*
X451006Y125000D02*
G03*
X451006Y125000I-11506J0D01*
G01*
Y153500D02*
G03*
X451006Y153500I-11506J0D01*
G01*
X287280Y197287D02*
G03*
X287280Y197287I-1969J0D01*
G01*
X562740Y186500D02*
G03*
X562740Y186500I-6240J0D01*
G01*
X512240D02*
G03*
X512240Y186500I-6240J0D01*
G01*
X163209Y248709D02*
X186791D01*
X163209D02*
Y272291D01*
X186791D01*
Y248709D02*
Y272291D01*
X589756Y106496D02*
Y168504D01*
X599244D01*
Y106496D02*
Y168504D01*
X589756Y106496D02*
X599244D01*
Y213004D02*
Y285996D01*
X589756D02*
X599244D01*
X589756Y213004D02*
X599244D01*
X589756D02*
Y285996D01*
X500000Y285000D02*
Y295000D01*
X460000Y285000D02*
Y295000D01*
Y285000D02*
X500000D01*
X460000Y295000D02*
X500000D01*
X281768Y193744D02*
X490232D01*
X281768Y249256D02*
X490232D01*
X281768Y193744D02*
Y249256D01*
X490232Y193744D02*
Y249256D01*
X391484Y284500D02*
Y294500D01*
X309516Y284500D02*
X391484D01*
X309516D02*
Y294500D01*
X391484D01*
X205000Y285000D02*
X245000D01*
X205000Y295000D02*
X245000D01*
Y285000D02*
Y295000D01*
X205000Y285000D02*
Y295000D01*
X395791Y110209D02*
Y133791D01*
X372209D02*
X395791D01*
X372209Y110209D02*
Y133791D01*
Y110209D02*
X395791D01*
X366291D02*
Y133791D01*
X342709D02*
X366291D01*
X342709Y110209D02*
Y133791D01*
Y110209D02*
X366291D01*
X336291D02*
Y133791D01*
X312709D02*
X336291D01*
X312709Y110209D02*
Y133791D01*
Y110209D02*
X336291D01*
X306791D02*
Y133791D01*
X283209D02*
X306791D01*
X283209Y110209D02*
Y133791D01*
Y110209D02*
X306791D01*
M02*
