G04*
G04 #@! TF.GenerationSoftware,Altium Limited,Altium Designer,21.8.1 (53)*
G04*
G04 Layer_Physical_Order=2*
G04 Layer_Color=16711680*
%FSLAX25Y25*%
%MOIN*%
G70*
G04*
G04 #@! TF.SameCoordinates,070E7AC9-1739-4787-A23A-BD7F06799364*
G04*
G04*
G04 #@! TF.FilePolarity,Positive*
G04*
G01*
G75*
%ADD11C,0.01000*%
%ADD26C,0.04449*%
%ADD27R,0.04449X0.04449*%
%ADD28C,0.05512*%
%ADD29C,0.05906*%
%ADD30R,0.05906X0.05906*%
%ADD31R,0.06102X0.06102*%
%ADD32C,0.06102*%
%ADD33C,0.08268*%
%ADD34C,0.06299*%
%ADD35R,0.06299X0.06299*%
%ADD36R,0.06102X0.06102*%
G36*
X605000Y100000D02*
X100000D01*
Y300000D01*
X605000D01*
Y100000D01*
D02*
G37*
%LPC*%
G36*
X495546Y294150D02*
X495500D01*
Y290500D01*
X499150D01*
Y290546D01*
X498867Y291602D01*
X498320Y292548D01*
X497548Y293320D01*
X496602Y293867D01*
X495546Y294150D01*
D02*
G37*
G36*
X494500D02*
X494454D01*
X493398Y293867D01*
X492452Y293320D01*
X491679Y292548D01*
X491133Y291602D01*
X490850Y290546D01*
Y290500D01*
X494500D01*
Y294150D01*
D02*
G37*
G36*
X336033Y293551D02*
X336000D01*
Y290000D01*
X339551D01*
Y290033D01*
X339275Y291064D01*
X338742Y291987D01*
X337987Y292742D01*
X337064Y293275D01*
X336033Y293551D01*
D02*
G37*
G36*
X335000D02*
X334967D01*
X333936Y293275D01*
X333013Y292742D01*
X332258Y291987D01*
X331725Y291064D01*
X331449Y290033D01*
Y290000D01*
X335000D01*
Y293551D01*
D02*
G37*
G36*
X386033D02*
X384967D01*
X383936Y293275D01*
X383013Y292742D01*
X382258Y291987D01*
X381725Y291064D01*
X381449Y290033D01*
Y289947D01*
X380949Y289721D01*
X380625Y289937D01*
X380040Y290053D01*
X379546D01*
X379275Y291064D01*
X378742Y291987D01*
X377988Y292742D01*
X377064Y293275D01*
X376033Y293551D01*
X374967D01*
X373936Y293275D01*
X373012Y292742D01*
X372258Y291987D01*
X371725Y291064D01*
X371449Y290033D01*
Y288967D01*
X371725Y287936D01*
X372258Y287013D01*
X373012Y286258D01*
X373936Y285725D01*
X374967Y285449D01*
X376033D01*
X377064Y285725D01*
X377988Y286258D01*
X378724Y286994D01*
X379406D01*
X397001Y269400D01*
X397497Y269068D01*
X398082Y268952D01*
X401385D01*
X417315Y253022D01*
X417047Y252020D01*
Y250980D01*
X417317Y249974D01*
X417837Y249073D01*
X417871Y249039D01*
X417680Y248577D01*
X414320D01*
X414129Y249039D01*
X414163Y249073D01*
X414683Y249974D01*
X414953Y250980D01*
Y252020D01*
X414683Y253026D01*
X414163Y253927D01*
X413427Y254663D01*
X412526Y255183D01*
X411520Y255453D01*
X410480D01*
X409474Y255183D01*
X408573Y254663D01*
X407837Y253927D01*
X407317Y253026D01*
X407047Y252020D01*
Y250980D01*
X407317Y249974D01*
X407837Y249073D01*
X407871Y249039D01*
X407680Y248577D01*
X404320D01*
X404129Y249039D01*
X404163Y249073D01*
X404683Y249974D01*
X404953Y250980D01*
Y252020D01*
X404683Y253026D01*
X404163Y253927D01*
X403427Y254663D01*
X402526Y255183D01*
X401520Y255453D01*
X400480D01*
X399474Y255183D01*
X398573Y254663D01*
X397837Y253927D01*
X397482Y253312D01*
X397168Y253332D01*
X396967Y253420D01*
X396866Y253930D01*
X396534Y254426D01*
X388639Y262321D01*
X388143Y262652D01*
X387558Y262769D01*
X383787D01*
X383580Y263269D01*
X384005Y263694D01*
X384500Y264550D01*
X384754Y265500D01*
X381000D01*
Y266000D01*
X380500D01*
Y269754D01*
X379550Y269500D01*
X378694Y269005D01*
X377994Y268306D01*
X377500Y267450D01*
X377268Y266583D01*
X376798Y266347D01*
X357579Y285565D01*
X357645Y286060D01*
X357987Y286258D01*
X358742Y287013D01*
X359275Y287936D01*
X359551Y288967D01*
Y290033D01*
X359275Y291064D01*
X358742Y291987D01*
X357987Y292742D01*
X357064Y293275D01*
X356033Y293551D01*
X354967D01*
X353936Y293275D01*
X353012Y292742D01*
X352258Y291987D01*
X351725Y291064D01*
X351449Y290033D01*
Y288967D01*
X351725Y287936D01*
X352258Y287013D01*
X353012Y286258D01*
X353936Y285725D01*
X353971Y285716D01*
Y285481D01*
X354087Y284896D01*
X354419Y284400D01*
X378660Y260158D01*
X379157Y259826D01*
X379742Y259710D01*
X386924D01*
X390720Y255915D01*
X390528Y255453D01*
X390480D01*
X389474Y255183D01*
X388573Y254663D01*
X387837Y253927D01*
X387317Y253026D01*
X387047Y252020D01*
Y250980D01*
X387317Y249974D01*
X387837Y249073D01*
X388573Y248337D01*
X389474Y247817D01*
X390480Y247547D01*
X391520D01*
X392526Y247817D01*
X393427Y248337D01*
X394163Y249073D01*
X394252Y249227D01*
X394748Y249292D01*
X398074Y245966D01*
X398570Y245634D01*
X399156Y245518D01*
X446547D01*
X447132Y245634D01*
X447629Y245966D01*
X449478Y247815D01*
X450480Y247547D01*
X451520D01*
X452526Y247817D01*
X453427Y248337D01*
X454163Y249073D01*
X454683Y249974D01*
X454953Y250980D01*
Y252020D01*
X454683Y253026D01*
X454163Y253927D01*
X453427Y254663D01*
X452526Y255183D01*
X451520Y255453D01*
X450480D01*
X449474Y255183D01*
X448573Y254663D01*
X447837Y253927D01*
X447317Y253026D01*
X447047Y252020D01*
Y250980D01*
X447316Y249978D01*
X445914Y248577D01*
X444320D01*
X444129Y249039D01*
X444163Y249073D01*
X444683Y249974D01*
X444953Y250980D01*
Y252020D01*
X444683Y253026D01*
X444163Y253927D01*
X443427Y254663D01*
X442526Y255183D01*
X441520Y255453D01*
X440480D01*
X439478Y255185D01*
X404081Y290581D01*
X403585Y290913D01*
X403000Y291029D01*
X389284D01*
X389275Y291064D01*
X388742Y291987D01*
X387987Y292742D01*
X387064Y293275D01*
X386033Y293551D01*
D02*
G37*
G36*
X499150Y289500D02*
X495500D01*
Y285850D01*
X495546D01*
X496602Y286133D01*
X497548Y286680D01*
X498320Y287452D01*
X498867Y288398D01*
X499150Y289454D01*
Y289500D01*
D02*
G37*
G36*
X494500D02*
X490850D01*
Y289454D01*
X491133Y288398D01*
X491679Y287452D01*
X492452Y286680D01*
X493398Y286133D01*
X494454Y285850D01*
X494500D01*
Y289500D01*
D02*
G37*
G36*
X485546Y294150D02*
X484454D01*
X483398Y293867D01*
X482452Y293320D01*
X481679Y292548D01*
X481133Y291602D01*
X480850Y290546D01*
Y289454D01*
X481133Y288398D01*
X481679Y287452D01*
X482452Y286680D01*
X483398Y286133D01*
X484454Y285850D01*
X485546D01*
X486602Y286133D01*
X487548Y286680D01*
X488320Y287452D01*
X488867Y288398D01*
X489150Y289454D01*
Y290546D01*
X488867Y291602D01*
X488320Y292548D01*
X487548Y293320D01*
X486602Y293867D01*
X485546Y294150D01*
D02*
G37*
G36*
X214150Y289500D02*
X210500D01*
Y285850D01*
X210546D01*
X211602Y286133D01*
X212548Y286680D01*
X213320Y287452D01*
X213867Y288398D01*
X214150Y289454D01*
Y289500D01*
D02*
G37*
G36*
X209500D02*
X205850D01*
Y289454D01*
X206133Y288398D01*
X206680Y287452D01*
X207452Y286680D01*
X208398Y286133D01*
X209454Y285850D01*
X209500D01*
Y289500D01*
D02*
G37*
G36*
X366033Y293551D02*
X364967D01*
X363936Y293275D01*
X363013Y292742D01*
X362258Y291987D01*
X361725Y291064D01*
X361449Y290033D01*
Y288967D01*
X361725Y287936D01*
X362258Y287013D01*
X363013Y286258D01*
X363936Y285725D01*
X364967Y285449D01*
X366033D01*
X367064Y285725D01*
X367987Y286258D01*
X368742Y287013D01*
X369275Y287936D01*
X369551Y288967D01*
Y290033D01*
X369275Y291064D01*
X368742Y291987D01*
X367987Y292742D01*
X367064Y293275D01*
X366033Y293551D01*
D02*
G37*
G36*
X346033D02*
X344967D01*
X343936Y293275D01*
X343012Y292742D01*
X342258Y291987D01*
X341725Y291064D01*
X341449Y290033D01*
Y288967D01*
X341725Y287936D01*
X342258Y287013D01*
X343012Y286258D01*
X343936Y285725D01*
X344967Y285449D01*
X346033D01*
X347064Y285725D01*
X347988Y286258D01*
X348742Y287013D01*
X349275Y287936D01*
X349551Y288967D01*
Y290033D01*
X349275Y291064D01*
X348742Y291987D01*
X347988Y292742D01*
X347064Y293275D01*
X346033Y293551D01*
D02*
G37*
G36*
X339551Y289000D02*
X336000D01*
Y285449D01*
X336033D01*
X337064Y285725D01*
X337987Y286258D01*
X338742Y287013D01*
X339275Y287936D01*
X339551Y288967D01*
Y289000D01*
D02*
G37*
G36*
X335000D02*
X331449D01*
Y288967D01*
X331725Y287936D01*
X332258Y287013D01*
X333013Y286258D01*
X333936Y285725D01*
X334967Y285449D01*
X335000D01*
Y289000D01*
D02*
G37*
G36*
X326033Y293551D02*
X324967D01*
X323936Y293275D01*
X323012Y292742D01*
X322258Y291987D01*
X321725Y291064D01*
X321449Y290033D01*
Y288967D01*
X321725Y287936D01*
X322258Y287013D01*
X323012Y286258D01*
X323936Y285725D01*
X324967Y285449D01*
X326033D01*
X327064Y285725D01*
X327988Y286258D01*
X328742Y287013D01*
X329275Y287936D01*
X329551Y288967D01*
Y290033D01*
X329275Y291064D01*
X328742Y291987D01*
X327988Y292742D01*
X327064Y293275D01*
X326033Y293551D01*
D02*
G37*
G36*
X319551D02*
X311449D01*
Y285449D01*
X319551D01*
Y293551D01*
D02*
G37*
G36*
X126051Y279051D02*
X122500D01*
Y275500D01*
X126051D01*
Y279051D01*
D02*
G37*
G36*
X121500D02*
X117949D01*
Y275500D01*
X121500D01*
Y279051D01*
D02*
G37*
G36*
X475546Y294150D02*
X474454D01*
X473398Y293867D01*
X472452Y293320D01*
X471679Y292548D01*
X471133Y291602D01*
X470850Y290546D01*
Y289454D01*
X471133Y288398D01*
X471679Y287452D01*
X472452Y286680D01*
X473398Y286133D01*
X474454Y285850D01*
X475546D01*
X476602Y286133D01*
X476666Y286171D01*
X484419Y278419D01*
X484915Y278087D01*
X485500Y277971D01*
X590716D01*
X590725Y277936D01*
X591258Y277012D01*
X592013Y276258D01*
X592936Y275725D01*
X593967Y275449D01*
X595033D01*
X596064Y275725D01*
X596987Y276258D01*
X597742Y277012D01*
X598275Y277936D01*
X598551Y278967D01*
Y280033D01*
X598275Y281064D01*
X597742Y281988D01*
X596987Y282742D01*
X596064Y283275D01*
X595033Y283551D01*
X593967D01*
X592936Y283275D01*
X592013Y282742D01*
X591258Y281988D01*
X590725Y281064D01*
X590716Y281029D01*
X486133D01*
X478829Y288334D01*
X478867Y288398D01*
X479150Y289454D01*
Y290546D01*
X478867Y291602D01*
X478321Y292548D01*
X477548Y293320D01*
X476602Y293867D01*
X475546Y294150D01*
D02*
G37*
G36*
X257995Y280756D02*
X257006D01*
X256050Y280500D01*
X255194Y280006D01*
X254495Y279306D01*
X254000Y278450D01*
X253744Y277495D01*
Y276505D01*
X254000Y275550D01*
X254495Y274694D01*
X255194Y273994D01*
X256050Y273500D01*
X257006Y273244D01*
X257995D01*
X258950Y273500D01*
X259806Y273994D01*
X260506Y274694D01*
X261000Y275550D01*
X261256Y276505D01*
Y277495D01*
X261000Y278450D01*
X260506Y279306D01*
X259806Y280006D01*
X258950Y280500D01*
X257995Y280756D01*
D02*
G37*
G36*
X126051Y274500D02*
X122500D01*
Y270949D01*
X126051D01*
Y274500D01*
D02*
G37*
G36*
X121500D02*
X117949D01*
Y270949D01*
X121500D01*
Y274500D01*
D02*
G37*
G36*
X184379Y277248D02*
X183338D01*
X182333Y276979D01*
X181431Y276458D01*
X180695Y275722D01*
X180175Y274821D01*
X179905Y273816D01*
Y272775D01*
X180175Y271769D01*
X180695Y270868D01*
X181431Y270132D01*
X182333Y269612D01*
X183338Y269342D01*
X184379D01*
X185384Y269612D01*
X186285Y270132D01*
X187021Y270868D01*
X187542Y271769D01*
X187811Y272775D01*
Y273816D01*
X187542Y274821D01*
X187021Y275722D01*
X186285Y276458D01*
X185384Y276979D01*
X184379Y277248D01*
D02*
G37*
G36*
X166662D02*
X165621D01*
X164616Y276979D01*
X163715Y276458D01*
X162979Y275722D01*
X162458Y274821D01*
X162189Y273816D01*
Y272775D01*
X162458Y271769D01*
X162979Y270868D01*
X163715Y270132D01*
X164616Y269612D01*
X165621Y269342D01*
X166662D01*
X167667Y269612D01*
X168569Y270132D01*
X169305Y270868D01*
X169825Y271769D01*
X170095Y272775D01*
Y273816D01*
X169825Y274821D01*
X169305Y275722D01*
X168569Y276458D01*
X167667Y276979D01*
X166662Y277248D01*
D02*
G37*
G36*
X217495Y276256D02*
X216506D01*
X215550Y276000D01*
X214694Y275505D01*
X213995Y274806D01*
X213500Y273950D01*
X213244Y272994D01*
Y272006D01*
X213500Y271050D01*
X213995Y270194D01*
X214694Y269495D01*
X215550Y269000D01*
X216506Y268744D01*
X217495D01*
X218450Y269000D01*
X219306Y269495D01*
X220005Y270194D01*
X220500Y271050D01*
X220756Y272006D01*
Y272994D01*
X220500Y273950D01*
X220005Y274806D01*
X219306Y275505D01*
X218450Y276000D01*
X217495Y276256D01*
D02*
G37*
G36*
X207494D02*
X206505D01*
X205550Y276000D01*
X204694Y275505D01*
X203994Y274806D01*
X203500Y273950D01*
X203244Y272994D01*
Y272006D01*
X203500Y271050D01*
X203994Y270194D01*
X204694Y269495D01*
X205550Y269000D01*
X206505Y268744D01*
X207494D01*
X208450Y269000D01*
X209306Y269495D01*
X210005Y270194D01*
X210500Y271050D01*
X210756Y272006D01*
Y272994D01*
X210500Y273950D01*
X210005Y274806D01*
X209306Y275505D01*
X208450Y276000D01*
X207494Y276256D01*
D02*
G37*
G36*
X381500Y269754D02*
Y266500D01*
X384754D01*
X384500Y267450D01*
X384005Y268306D01*
X383306Y269005D01*
X382450Y269500D01*
X381500Y269754D01*
D02*
G37*
G36*
X595033Y273551D02*
X593967D01*
X592936Y273275D01*
X592013Y272742D01*
X591258Y271988D01*
X590725Y271064D01*
X590449Y270033D01*
Y268967D01*
X590725Y267936D01*
X591258Y267013D01*
X592013Y266258D01*
X592936Y265725D01*
X593967Y265449D01*
X595033D01*
X596064Y265725D01*
X596987Y266258D01*
X597742Y267013D01*
X598275Y267936D01*
X598551Y268967D01*
Y270033D01*
X598275Y271064D01*
X597742Y271988D01*
X596987Y272742D01*
X596064Y273275D01*
X595033Y273551D01*
D02*
G37*
G36*
X231926Y296179D02*
X151650D01*
X151064Y296063D01*
X150568Y295731D01*
X133595Y278757D01*
X133564Y278775D01*
X132533Y279051D01*
X131467D01*
X130436Y278775D01*
X129513Y278242D01*
X128758Y277487D01*
X128225Y276564D01*
X127949Y275533D01*
Y274467D01*
X128225Y273436D01*
X128758Y272513D01*
X129513Y271758D01*
X130436Y271225D01*
X131467Y270949D01*
X132533D01*
X133564Y271225D01*
X134487Y271758D01*
X135242Y272513D01*
X135775Y273436D01*
X136051Y274467D01*
Y275533D01*
X135775Y276564D01*
X135757Y276594D01*
X152283Y293120D01*
X206598D01*
X206790Y292658D01*
X206680Y292548D01*
X206133Y291602D01*
X205850Y290546D01*
Y290500D01*
X210000D01*
X214150D01*
Y290546D01*
X213867Y291602D01*
X213320Y292548D01*
X213210Y292658D01*
X213402Y293120D01*
X216599D01*
X216790Y292658D01*
X216680Y292548D01*
X216133Y291602D01*
X215850Y290546D01*
Y289454D01*
X216133Y288398D01*
X216680Y287452D01*
X217452Y286680D01*
X218398Y286133D01*
X219454Y285850D01*
X220546D01*
X221602Y286133D01*
X222548Y286680D01*
X223321Y287452D01*
X223867Y288398D01*
X224150Y289454D01*
Y290546D01*
X223867Y291602D01*
X223321Y292548D01*
X223210Y292658D01*
X223401Y293120D01*
X226599D01*
X226790Y292658D01*
X226679Y292548D01*
X226133Y291602D01*
X225850Y290546D01*
Y289454D01*
X226133Y288398D01*
X226679Y287452D01*
X227452Y286680D01*
X228398Y286133D01*
X228471Y286114D01*
Y279000D01*
X228587Y278415D01*
X228919Y277919D01*
X253055Y253782D01*
X253244Y253656D01*
Y253505D01*
X253500Y252550D01*
X253994Y251694D01*
X254694Y250994D01*
X255550Y250500D01*
X256505Y250244D01*
X257494D01*
X258450Y250500D01*
X259306Y250994D01*
X260005Y251694D01*
X260500Y252550D01*
X260756Y253505D01*
Y254495D01*
X260500Y255450D01*
X260005Y256306D01*
X259306Y257006D01*
X258450Y257500D01*
X257494Y257756D01*
X256505D01*
X255550Y257500D01*
X254694Y257006D01*
X254426Y256737D01*
X231529Y279633D01*
Y286114D01*
X231602Y286133D01*
X232548Y286680D01*
X233320Y287452D01*
X233338Y287482D01*
X233821Y287353D01*
Y286229D01*
X233937Y285644D01*
X234269Y285148D01*
X252949Y266468D01*
X253445Y266136D01*
X253866Y266053D01*
X254000Y265550D01*
X254495Y264694D01*
X255194Y263995D01*
X256050Y263500D01*
X257006Y263244D01*
X257995D01*
X258950Y263500D01*
X259806Y263995D01*
X260506Y264694D01*
X261000Y265550D01*
X261256Y266506D01*
Y267495D01*
X261000Y268450D01*
X260506Y269306D01*
X259806Y270005D01*
X258950Y270500D01*
X257995Y270756D01*
X257006D01*
X256050Y270500D01*
X255194Y270005D01*
X254495Y269306D01*
X254443Y269299D01*
X238354Y285388D01*
X238545Y285850D01*
X244150D01*
Y294150D01*
X235850D01*
Y293541D01*
X235388Y293350D01*
X233007Y295731D01*
X232511Y296063D01*
X231926Y296179D01*
D02*
G37*
G36*
X391494Y269756D02*
X390506D01*
X389550Y269500D01*
X388694Y269005D01*
X387995Y268306D01*
X387500Y267450D01*
X387244Y266494D01*
Y265506D01*
X387500Y264550D01*
X387995Y263694D01*
X388694Y262995D01*
X389550Y262500D01*
X390506Y262244D01*
X391494D01*
X392450Y262500D01*
X393306Y262995D01*
X394005Y263694D01*
X394500Y264550D01*
X394756Y265506D01*
Y266494D01*
X394500Y267450D01*
X394005Y268306D01*
X393306Y269005D01*
X392450Y269500D01*
X391494Y269756D01*
D02*
G37*
G36*
X595033Y263551D02*
X593967D01*
X592936Y263275D01*
X592013Y262742D01*
X591258Y261987D01*
X590725Y261064D01*
X590449Y260033D01*
Y258967D01*
X590725Y257936D01*
X591258Y257013D01*
X592013Y256258D01*
X592936Y255725D01*
X593967Y255449D01*
X595033D01*
X596064Y255725D01*
X596987Y256258D01*
X597742Y257013D01*
X598275Y257936D01*
X598551Y258967D01*
Y260033D01*
X598275Y261064D01*
X597742Y261987D01*
X596987Y262742D01*
X596064Y263275D01*
X595033Y263551D01*
D02*
G37*
G36*
X560994Y261756D02*
X560006D01*
X559050Y261500D01*
X558194Y261005D01*
X557494Y260306D01*
X557000Y259450D01*
X556744Y258494D01*
Y257505D01*
X557000Y256550D01*
X557494Y255694D01*
X558194Y254995D01*
X559050Y254500D01*
X560006Y254244D01*
X560994D01*
X561950Y254500D01*
X562806Y254995D01*
X563506Y255694D01*
X564000Y256550D01*
X564256Y257505D01*
Y258494D01*
X564000Y259450D01*
X563506Y260306D01*
X562806Y261005D01*
X561950Y261500D01*
X560994Y261756D01*
D02*
G37*
G36*
X247244Y255285D02*
X137256D01*
X136671Y255169D01*
X136174Y254837D01*
X134228Y252891D01*
X133564Y253275D01*
X132533Y253551D01*
X131467D01*
X130436Y253275D01*
X129513Y252742D01*
X128758Y251988D01*
X128225Y251064D01*
X127949Y250033D01*
Y248967D01*
X128225Y247936D01*
X128758Y247012D01*
X129513Y246258D01*
X130436Y245725D01*
X131467Y245449D01*
X132533D01*
X133564Y245725D01*
X134487Y246258D01*
X135242Y247012D01*
X135775Y247936D01*
X136051Y248967D01*
Y250033D01*
X135976Y250313D01*
X137889Y252226D01*
X199284D01*
X199449Y251727D01*
X199000Y250950D01*
X198746Y250000D01*
X206254D01*
X206000Y250950D01*
X205552Y251727D01*
X205716Y252226D01*
X209283D01*
X209449Y251727D01*
X209000Y250950D01*
X208744Y249994D01*
Y249006D01*
X209000Y248050D01*
X209494Y247194D01*
X210194Y246495D01*
X211050Y246000D01*
X212005Y245744D01*
X212995D01*
X213950Y246000D01*
X214806Y246495D01*
X215506Y247194D01*
X216000Y248050D01*
X216256Y249006D01*
Y249994D01*
X216000Y250950D01*
X215551Y251727D01*
X215717Y252226D01*
X221284D01*
X221448Y251727D01*
X221000Y250950D01*
X220746Y250000D01*
X228254D01*
X228000Y250950D01*
X227552Y251727D01*
X227716Y252226D01*
X231283D01*
X231449Y251727D01*
X231000Y250950D01*
X230744Y249994D01*
Y249006D01*
X231000Y248050D01*
X231494Y247194D01*
X232194Y246495D01*
X233050Y246000D01*
X234005Y245744D01*
X234995D01*
X235950Y246000D01*
X236806Y246495D01*
X237506Y247194D01*
X238000Y248050D01*
X238256Y249006D01*
Y249994D01*
X238000Y250950D01*
X237551Y251727D01*
X237717Y252226D01*
X246611D01*
X253476Y245361D01*
X253244Y244495D01*
Y243506D01*
X253500Y242550D01*
X253994Y241694D01*
X254694Y240995D01*
X255550Y240500D01*
X256505Y240244D01*
X257494D01*
X258450Y240500D01*
X259306Y240995D01*
X260005Y241694D01*
X260500Y242550D01*
X260756Y243506D01*
Y244495D01*
X260500Y245450D01*
X260005Y246306D01*
X259306Y247006D01*
X258450Y247500D01*
X257494Y247756D01*
X256505D01*
X255639Y247524D01*
X248325Y254837D01*
X247829Y255169D01*
X247244Y255285D01*
D02*
G37*
G36*
X381520Y255453D02*
X381500D01*
Y252000D01*
X384953D01*
Y252020D01*
X384683Y253026D01*
X384163Y253927D01*
X383427Y254663D01*
X382526Y255183D01*
X381520Y255453D01*
D02*
G37*
G36*
X371520D02*
X371500D01*
Y252000D01*
X374953D01*
Y252020D01*
X374683Y253026D01*
X374163Y253927D01*
X373427Y254663D01*
X372526Y255183D01*
X371520Y255453D01*
D02*
G37*
G36*
X380500D02*
X380480D01*
X379474Y255183D01*
X378573Y254663D01*
X377837Y253927D01*
X377317Y253026D01*
X377047Y252020D01*
Y252000D01*
X380500D01*
Y255453D01*
D02*
G37*
G36*
X370500D02*
X370480D01*
X369474Y255183D01*
X368573Y254663D01*
X367837Y253927D01*
X367317Y253026D01*
X367047Y252020D01*
Y252000D01*
X370500D01*
Y255453D01*
D02*
G37*
G36*
X126051Y253551D02*
X122500D01*
Y250000D01*
X126051D01*
Y253551D01*
D02*
G37*
G36*
X121500D02*
X117949D01*
Y250000D01*
X121500D01*
Y253551D01*
D02*
G37*
G36*
X184379Y251658D02*
X184358D01*
Y248205D01*
X187811D01*
Y248225D01*
X187542Y249230D01*
X187021Y250132D01*
X186285Y250868D01*
X185384Y251388D01*
X184379Y251658D01*
D02*
G37*
G36*
X183358D02*
X183338D01*
X182333Y251388D01*
X181431Y250868D01*
X180695Y250132D01*
X180175Y249230D01*
X179905Y248225D01*
Y248205D01*
X183358D01*
Y251658D01*
D02*
G37*
G36*
X469150Y294150D02*
X460850D01*
Y285850D01*
X463471D01*
Y267500D01*
X463587Y266915D01*
X463919Y266419D01*
X477316Y253022D01*
X477047Y252020D01*
Y250980D01*
X477317Y249974D01*
X477837Y249073D01*
X478573Y248337D01*
X479474Y247817D01*
X480480Y247547D01*
X481520D01*
X482526Y247817D01*
X483427Y248337D01*
X484163Y249073D01*
X484683Y249974D01*
X484953Y250980D01*
Y252020D01*
X484683Y253026D01*
X484163Y253927D01*
X483427Y254663D01*
X482526Y255183D01*
X481520Y255453D01*
X480480D01*
X479478Y255185D01*
X466529Y268133D01*
Y285850D01*
X469150D01*
Y294150D01*
D02*
G37*
G36*
X471520Y255453D02*
X470480D01*
X469474Y255183D01*
X468573Y254663D01*
X467837Y253927D01*
X467317Y253026D01*
X467047Y252020D01*
Y250980D01*
X467315Y249978D01*
X439642Y222305D01*
X180858D01*
X175090Y228073D01*
X175224Y228575D01*
Y229425D01*
X175005Y230245D01*
X174580Y230980D01*
X173980Y231580D01*
X173245Y232005D01*
X172424Y232224D01*
X171575D01*
X170755Y232005D01*
X170020Y231580D01*
X169420Y230980D01*
X168995Y230245D01*
X168776Y229425D01*
Y228575D01*
X168995Y227755D01*
X169420Y227020D01*
X170020Y226420D01*
X170755Y225995D01*
X171575Y225776D01*
X172424D01*
X172927Y225910D01*
X179143Y219694D01*
X179639Y219363D01*
X180224Y219246D01*
X440276D01*
X440861Y219363D01*
X441357Y219694D01*
X469478Y247815D01*
X470480Y247547D01*
X471520D01*
X472526Y247817D01*
X473427Y248337D01*
X474163Y249073D01*
X474683Y249974D01*
X474953Y250980D01*
Y252020D01*
X474683Y253026D01*
X474163Y253927D01*
X473427Y254663D01*
X472526Y255183D01*
X471520Y255453D01*
D02*
G37*
G36*
X461520D02*
X460480D01*
X459474Y255183D01*
X458573Y254663D01*
X457837Y253927D01*
X457317Y253026D01*
X457047Y252020D01*
Y250980D01*
X457315Y249978D01*
X434142Y226805D01*
X235033D01*
X234745Y227305D01*
X235005Y227755D01*
X235224Y228575D01*
Y229425D01*
X235005Y230245D01*
X234580Y230980D01*
X233980Y231580D01*
X233245Y232005D01*
X232424Y232224D01*
X231575D01*
X230755Y232005D01*
X230020Y231580D01*
X229420Y230980D01*
X228995Y230245D01*
X228776Y229425D01*
Y228575D01*
X228995Y227755D01*
X229255Y227305D01*
X228967Y226805D01*
X225033D01*
X224745Y227305D01*
X225005Y227755D01*
X225204Y228500D01*
X222000D01*
X218796D01*
X218995Y227755D01*
X219255Y227305D01*
X218967Y226805D01*
X215033D01*
X214745Y227305D01*
X215005Y227755D01*
X215224Y228575D01*
Y229425D01*
X215005Y230245D01*
X214580Y230980D01*
X213980Y231580D01*
X213245Y232005D01*
X212424Y232224D01*
X211576D01*
X210755Y232005D01*
X210020Y231580D01*
X209420Y230980D01*
X208995Y230245D01*
X208776Y229425D01*
Y228575D01*
X208995Y227755D01*
X209255Y227305D01*
X208967Y226805D01*
X205033D01*
X204745Y227305D01*
X205005Y227755D01*
X205204Y228500D01*
X202000D01*
X198796D01*
X198995Y227755D01*
X199255Y227305D01*
X198967Y226805D01*
X196358D01*
X195090Y228073D01*
X195224Y228575D01*
Y229425D01*
X195005Y230245D01*
X194580Y230980D01*
X193980Y231580D01*
X193245Y232005D01*
X192424Y232224D01*
X191576D01*
X190755Y232005D01*
X190020Y231580D01*
X189420Y230980D01*
X189160Y230529D01*
X184840D01*
X184580Y230980D01*
X183980Y231580D01*
X183245Y232005D01*
X182424Y232224D01*
X181576D01*
X180755Y232005D01*
X180020Y231580D01*
X179420Y230980D01*
X178995Y230245D01*
X178776Y229425D01*
Y228575D01*
X178995Y227755D01*
X179420Y227020D01*
X180020Y226420D01*
X180755Y225995D01*
X181576Y225776D01*
X182424D01*
X183245Y225995D01*
X183980Y226420D01*
X184580Y227020D01*
X184840Y227471D01*
X189160D01*
X189420Y227020D01*
X190020Y226420D01*
X190755Y225995D01*
X191129Y225895D01*
X191415Y225704D01*
X192000Y225588D01*
X192585Y225704D01*
X192871Y225895D01*
X192927Y225910D01*
X194643Y224194D01*
X195139Y223863D01*
X195724Y223746D01*
X434776D01*
X435361Y223863D01*
X435857Y224194D01*
X459478Y247815D01*
X460480Y247547D01*
X461520D01*
X462526Y247817D01*
X463427Y248337D01*
X464163Y249073D01*
X464683Y249974D01*
X464953Y250980D01*
Y252020D01*
X464683Y253026D01*
X464163Y253927D01*
X463427Y254663D01*
X462526Y255183D01*
X461520Y255453D01*
D02*
G37*
G36*
X384953Y251000D02*
X381500D01*
Y247547D01*
X381520D01*
X382526Y247817D01*
X383427Y248337D01*
X384163Y249073D01*
X384683Y249974D01*
X384953Y250980D01*
Y251000D01*
D02*
G37*
G36*
X380500D02*
X377047D01*
Y250980D01*
X377317Y249974D01*
X377837Y249073D01*
X378573Y248337D01*
X379474Y247817D01*
X380480Y247547D01*
X380500D01*
Y251000D01*
D02*
G37*
G36*
X374953D02*
X371500D01*
Y247547D01*
X371520D01*
X372526Y247817D01*
X373427Y248337D01*
X374163Y249073D01*
X374683Y249974D01*
X374953Y250980D01*
Y251000D01*
D02*
G37*
G36*
X370500D02*
X367047D01*
Y250980D01*
X367317Y249974D01*
X367837Y249073D01*
X368573Y248337D01*
X369474Y247817D01*
X370480Y247547D01*
X370500D01*
Y251000D01*
D02*
G37*
G36*
X361520Y255453D02*
X360480D01*
X359474Y255183D01*
X358573Y254663D01*
X357837Y253927D01*
X357317Y253026D01*
X357047Y252020D01*
Y250980D01*
X357317Y249974D01*
X357837Y249073D01*
X358573Y248337D01*
X359474Y247817D01*
X360480Y247547D01*
X361520D01*
X362526Y247817D01*
X363427Y248337D01*
X364163Y249073D01*
X364683Y249974D01*
X364953Y250980D01*
Y252020D01*
X364683Y253026D01*
X364163Y253927D01*
X363427Y254663D01*
X362526Y255183D01*
X361520Y255453D01*
D02*
G37*
G36*
X351520D02*
X350480D01*
X349474Y255183D01*
X348573Y254663D01*
X347837Y253927D01*
X347317Y253026D01*
X347047Y252020D01*
Y250980D01*
X347317Y249974D01*
X347837Y249073D01*
X348573Y248337D01*
X349474Y247817D01*
X350480Y247547D01*
X351520D01*
X352526Y247817D01*
X353427Y248337D01*
X354163Y249073D01*
X354683Y249974D01*
X354953Y250980D01*
Y252020D01*
X354683Y253026D01*
X354163Y253927D01*
X353427Y254663D01*
X352526Y255183D01*
X351520Y255453D01*
D02*
G37*
G36*
X341520D02*
X340480D01*
X339474Y255183D01*
X338573Y254663D01*
X337837Y253927D01*
X337317Y253026D01*
X337047Y252020D01*
Y250980D01*
X337317Y249974D01*
X337837Y249073D01*
X338573Y248337D01*
X339474Y247817D01*
X340480Y247547D01*
X341520D01*
X342526Y247817D01*
X343427Y248337D01*
X344163Y249073D01*
X344683Y249974D01*
X344953Y250980D01*
Y252020D01*
X344683Y253026D01*
X344163Y253927D01*
X343427Y254663D01*
X342526Y255183D01*
X341520Y255453D01*
D02*
G37*
G36*
X331520D02*
X330480D01*
X329474Y255183D01*
X328573Y254663D01*
X327837Y253927D01*
X327317Y253026D01*
X327047Y252020D01*
Y250980D01*
X327317Y249974D01*
X327837Y249073D01*
X328573Y248337D01*
X329474Y247817D01*
X330480Y247547D01*
X331520D01*
X332526Y247817D01*
X333427Y248337D01*
X334163Y249073D01*
X334683Y249974D01*
X334953Y250980D01*
Y252020D01*
X334683Y253026D01*
X334163Y253927D01*
X333427Y254663D01*
X332526Y255183D01*
X331520Y255453D01*
D02*
G37*
G36*
X321520D02*
X320480D01*
X319474Y255183D01*
X318573Y254663D01*
X317837Y253927D01*
X317317Y253026D01*
X317047Y252020D01*
Y250980D01*
X317317Y249974D01*
X317837Y249073D01*
X318573Y248337D01*
X319474Y247817D01*
X320480Y247547D01*
X321520D01*
X322526Y247817D01*
X323427Y248337D01*
X324163Y249073D01*
X324683Y249974D01*
X324953Y250980D01*
Y252020D01*
X324683Y253026D01*
X324163Y253927D01*
X323427Y254663D01*
X322526Y255183D01*
X321520Y255453D01*
D02*
G37*
G36*
X311520D02*
X310480D01*
X309474Y255183D01*
X308573Y254663D01*
X307837Y253927D01*
X307317Y253026D01*
X307047Y252020D01*
Y250980D01*
X307317Y249974D01*
X307837Y249073D01*
X308573Y248337D01*
X309474Y247817D01*
X310480Y247547D01*
X311520D01*
X312526Y247817D01*
X313427Y248337D01*
X314163Y249073D01*
X314683Y249974D01*
X314953Y250980D01*
Y252020D01*
X314683Y253026D01*
X314163Y253927D01*
X313427Y254663D01*
X312526Y255183D01*
X311520Y255453D01*
D02*
G37*
G36*
X301520D02*
X300480D01*
X299474Y255183D01*
X298573Y254663D01*
X297837Y253927D01*
X297317Y253026D01*
X297047Y252020D01*
Y250980D01*
X297317Y249974D01*
X297837Y249073D01*
X298573Y248337D01*
X299474Y247817D01*
X300480Y247547D01*
X301520D01*
X302526Y247817D01*
X303427Y248337D01*
X304163Y249073D01*
X304683Y249974D01*
X304953Y250980D01*
Y252020D01*
X304683Y253026D01*
X304163Y253927D01*
X303427Y254663D01*
X302526Y255183D01*
X301520Y255453D01*
D02*
G37*
G36*
X291520D02*
X290480D01*
X289474Y255183D01*
X288573Y254663D01*
X287837Y253927D01*
X287317Y253026D01*
X287047Y252020D01*
Y250980D01*
X287317Y249974D01*
X287837Y249073D01*
X288573Y248337D01*
X289474Y247817D01*
X290480Y247547D01*
X291520D01*
X292526Y247817D01*
X293427Y248337D01*
X294163Y249073D01*
X294683Y249974D01*
X294953Y250980D01*
Y252020D01*
X294683Y253026D01*
X294163Y253927D01*
X293427Y254663D01*
X292526Y255183D01*
X291520Y255453D01*
D02*
G37*
G36*
X228254Y249000D02*
X225000D01*
Y245746D01*
X225950Y246000D01*
X226806Y246495D01*
X227505Y247194D01*
X228000Y248050D01*
X228254Y249000D01*
D02*
G37*
G36*
X224000D02*
X220746D01*
X221000Y248050D01*
X221495Y247194D01*
X222194Y246495D01*
X223050Y246000D01*
X224000Y245746D01*
Y249000D01*
D02*
G37*
G36*
X206254D02*
X203000D01*
Y245746D01*
X203950Y246000D01*
X204806Y246495D01*
X205505Y247194D01*
X206000Y248050D01*
X206254Y249000D01*
D02*
G37*
G36*
X202000D02*
X198746D01*
X199000Y248050D01*
X199495Y247194D01*
X200194Y246495D01*
X201050Y246000D01*
X202000Y245746D01*
Y249000D01*
D02*
G37*
G36*
X570995Y261756D02*
X570006D01*
X569050Y261500D01*
X568194Y261005D01*
X567494Y260306D01*
X567000Y259450D01*
X566744Y258494D01*
Y257505D01*
X566976Y256639D01*
X555163Y244826D01*
X554831Y244329D01*
X554715Y243744D01*
Y191337D01*
X554518Y191284D01*
X553348Y190608D01*
X552392Y189652D01*
X551716Y188482D01*
X551366Y187176D01*
Y185824D01*
X551716Y184518D01*
X552392Y183348D01*
X553348Y182392D01*
X554518Y181716D01*
X555824Y181366D01*
X557176D01*
X558482Y181716D01*
X559652Y182392D01*
X560608Y183348D01*
X561284Y184518D01*
X561634Y185824D01*
Y187176D01*
X561284Y188482D01*
X560608Y189652D01*
X559652Y190608D01*
X558482Y191284D01*
X557773Y191474D01*
Y230283D01*
X558274Y230449D01*
X559050Y230000D01*
X560006Y229744D01*
X560994D01*
X561950Y230000D01*
X562806Y230494D01*
X563506Y231194D01*
X564000Y232050D01*
X564256Y233005D01*
Y233995D01*
X564000Y234950D01*
X563506Y235806D01*
X562806Y236506D01*
X561950Y237000D01*
X560994Y237256D01*
X560006D01*
X559050Y237000D01*
X558274Y236551D01*
X557773Y236717D01*
Y243111D01*
X569139Y254476D01*
X570006Y254244D01*
X570995D01*
X571861Y254476D01*
X577899Y248438D01*
X578395Y248106D01*
X578981Y247990D01*
X590710D01*
X590725Y247936D01*
X591258Y247012D01*
X592013Y246258D01*
X592936Y245725D01*
X593967Y245449D01*
X595033D01*
X596064Y245725D01*
X596987Y246258D01*
X597742Y247012D01*
X598275Y247936D01*
X598551Y248967D01*
Y250033D01*
X598275Y251064D01*
X597742Y251988D01*
X596987Y252742D01*
X596064Y253275D01*
X595033Y253551D01*
X593967D01*
X592936Y253275D01*
X592013Y252742D01*
X591258Y251988D01*
X590725Y251064D01*
X590721Y251049D01*
X579614D01*
X574024Y256639D01*
X574256Y257505D01*
Y258494D01*
X574000Y259450D01*
X573505Y260306D01*
X572806Y261005D01*
X571950Y261500D01*
X570995Y261756D01*
D02*
G37*
G36*
X126051Y249000D02*
X122500D01*
Y245449D01*
X126051D01*
Y249000D01*
D02*
G37*
G36*
X121500D02*
X117949D01*
Y245449D01*
X121500D01*
Y249000D01*
D02*
G37*
G36*
X187811Y247205D02*
X184358D01*
Y243752D01*
X184379D01*
X185384Y244021D01*
X186285Y244542D01*
X187021Y245278D01*
X187542Y246179D01*
X187811Y247184D01*
Y247205D01*
D02*
G37*
G36*
X183358D02*
X179905D01*
Y247184D01*
X180175Y246179D01*
X180695Y245278D01*
X181431Y244542D01*
X182333Y244021D01*
X183338Y243752D01*
X183358D01*
Y247205D01*
D02*
G37*
G36*
X170095Y251658D02*
X162189D01*
Y243752D01*
X170095D01*
Y251658D01*
D02*
G37*
G36*
X595033Y243551D02*
X593967D01*
X592936Y243275D01*
X592013Y242742D01*
X591258Y241987D01*
X590725Y241064D01*
X590716Y241029D01*
X576500D01*
X575915Y240913D01*
X575419Y240581D01*
X571861Y237024D01*
X570995Y237256D01*
X570006D01*
X569050Y237000D01*
X568194Y236506D01*
X567494Y235806D01*
X567000Y234950D01*
X566744Y233995D01*
Y233005D01*
X567000Y232050D01*
X567494Y231194D01*
X568194Y230494D01*
X569050Y230000D01*
X570006Y229744D01*
X570995D01*
X571861Y229976D01*
X579971Y221866D01*
Y191405D01*
X579518Y191284D01*
X578348Y190608D01*
X577392Y189652D01*
X576716Y188482D01*
X576366Y187176D01*
Y185824D01*
X576716Y184518D01*
X577392Y183348D01*
X578348Y182392D01*
X579518Y181716D01*
X580824Y181366D01*
X582176D01*
X583482Y181716D01*
X584652Y182392D01*
X585608Y183348D01*
X586284Y184518D01*
X586634Y185824D01*
Y187176D01*
X586284Y188482D01*
X585608Y189652D01*
X584652Y190608D01*
X583482Y191284D01*
X583029Y191405D01*
Y222500D01*
X582913Y223085D01*
X582581Y223581D01*
X574024Y232139D01*
X574256Y233005D01*
Y233995D01*
X574024Y234861D01*
X577134Y237971D01*
X590716D01*
X590725Y237936D01*
X591258Y237013D01*
X592013Y236258D01*
X592936Y235725D01*
X593967Y235449D01*
X595033D01*
X596064Y235725D01*
X596987Y236258D01*
X597742Y237013D01*
X598275Y237936D01*
X598551Y238967D01*
Y240033D01*
X598275Y241064D01*
X597742Y241987D01*
X596987Y242742D01*
X596064Y243275D01*
X595033Y243551D01*
D02*
G37*
G36*
Y233551D02*
X595000D01*
Y230000D01*
X598551D01*
Y230033D01*
X598275Y231064D01*
X597742Y231988D01*
X596987Y232742D01*
X596064Y233275D01*
X595033Y233551D01*
D02*
G37*
G36*
X594000D02*
X593967D01*
X592936Y233275D01*
X592013Y232742D01*
X591258Y231988D01*
X590725Y231064D01*
X590449Y230033D01*
Y230000D01*
X594000D01*
Y233551D01*
D02*
G37*
G36*
X222500Y232204D02*
Y229500D01*
X225204D01*
X225005Y230245D01*
X224580Y230980D01*
X223980Y231580D01*
X223245Y232005D01*
X222500Y232204D01*
D02*
G37*
G36*
X202500D02*
Y229500D01*
X205204D01*
X205005Y230245D01*
X204580Y230980D01*
X203980Y231580D01*
X203245Y232005D01*
X202500Y232204D01*
D02*
G37*
G36*
X162500D02*
Y229500D01*
X165204D01*
X165005Y230245D01*
X164580Y230980D01*
X163980Y231580D01*
X163245Y232005D01*
X162500Y232204D01*
D02*
G37*
G36*
X152500D02*
Y229500D01*
X155204D01*
X155005Y230245D01*
X154580Y230980D01*
X153980Y231580D01*
X153245Y232005D01*
X152500Y232204D01*
D02*
G37*
G36*
X221500D02*
X220755Y232005D01*
X220020Y231580D01*
X219420Y230980D01*
X218995Y230245D01*
X218796Y229500D01*
X221500D01*
Y232204D01*
D02*
G37*
G36*
X201500D02*
X200755Y232005D01*
X200020Y231580D01*
X199420Y230980D01*
X198995Y230245D01*
X198796Y229500D01*
X201500D01*
Y232204D01*
D02*
G37*
G36*
X161500D02*
X160755Y232005D01*
X160020Y231580D01*
X159420Y230980D01*
X158995Y230245D01*
X158796Y229500D01*
X161500D01*
Y232204D01*
D02*
G37*
G36*
X151500D02*
X150755Y232005D01*
X150020Y231580D01*
X149420Y230980D01*
X148995Y230245D01*
X148796Y229500D01*
X151500D01*
Y232204D01*
D02*
G37*
G36*
X165204Y228500D02*
X162500D01*
Y225796D01*
X163245Y225995D01*
X163980Y226420D01*
X164580Y227020D01*
X165005Y227755D01*
X165204Y228500D01*
D02*
G37*
G36*
X155204D02*
X152500D01*
Y225796D01*
X153245Y225995D01*
X153980Y226420D01*
X154580Y227020D01*
X155005Y227755D01*
X155204Y228500D01*
D02*
G37*
G36*
X161500D02*
X158796D01*
X158995Y227755D01*
X159420Y227020D01*
X160020Y226420D01*
X160755Y225995D01*
X161500Y225796D01*
Y228500D01*
D02*
G37*
G36*
X151500D02*
X148796D01*
X148995Y227755D01*
X149420Y227020D01*
X150020Y226420D01*
X150755Y225995D01*
X151500Y225796D01*
Y228500D01*
D02*
G37*
G36*
X598551Y229000D02*
X595000D01*
Y225449D01*
X595033D01*
X596064Y225725D01*
X596987Y226258D01*
X597742Y227012D01*
X598275Y227936D01*
X598551Y228967D01*
Y229000D01*
D02*
G37*
G36*
X594000D02*
X590449D01*
Y228967D01*
X590725Y227936D01*
X591258Y227012D01*
X592013Y226258D01*
X592936Y225725D01*
X593967Y225449D01*
X594000D01*
Y229000D01*
D02*
G37*
G36*
X598551Y223551D02*
X590449D01*
Y215449D01*
X598551D01*
Y223551D01*
D02*
G37*
G36*
X391520Y195453D02*
X391500D01*
Y192000D01*
X394953D01*
Y192020D01*
X394683Y193026D01*
X394163Y193927D01*
X393427Y194663D01*
X392526Y195183D01*
X391520Y195453D01*
D02*
G37*
G36*
X390500D02*
X390480D01*
X389474Y195183D01*
X388573Y194663D01*
X387837Y193927D01*
X387317Y193026D01*
X387047Y192020D01*
Y192000D01*
X390500D01*
Y195453D01*
D02*
G37*
G36*
X142424Y232224D02*
X141576D01*
X140755Y232005D01*
X140020Y231580D01*
X139420Y230980D01*
X138995Y230245D01*
X138776Y229425D01*
Y228575D01*
X138995Y227755D01*
X139420Y227020D01*
X140020Y226420D01*
X140755Y225995D01*
X141576Y225776D01*
X142424D01*
X142927Y225910D01*
X160779Y208058D01*
X161275Y207726D01*
X161861Y207610D01*
X462727D01*
X477316Y193022D01*
X477047Y192020D01*
Y190980D01*
X477317Y189974D01*
X477837Y189073D01*
X478573Y188337D01*
X479474Y187817D01*
X480480Y187547D01*
X481520D01*
X482526Y187817D01*
X483427Y188337D01*
X484163Y189073D01*
X484683Y189974D01*
X484953Y190980D01*
Y192020D01*
X484683Y193026D01*
X484163Y193927D01*
X483427Y194663D01*
X482526Y195183D01*
X481520Y195453D01*
X480480D01*
X479478Y195185D01*
X464442Y210221D01*
X463946Y210552D01*
X463361Y210669D01*
X162494D01*
X145090Y228073D01*
X145224Y228575D01*
Y229425D01*
X145005Y230245D01*
X144580Y230980D01*
X143980Y231580D01*
X143245Y232005D01*
X142424Y232224D01*
D02*
G37*
G36*
X471520Y195453D02*
X470480D01*
X469474Y195183D01*
X468573Y194663D01*
X467837Y193927D01*
X467317Y193026D01*
X467047Y192020D01*
Y190980D01*
X467317Y189974D01*
X467837Y189073D01*
X468573Y188337D01*
X469474Y187817D01*
X470480Y187547D01*
X471520D01*
X472526Y187817D01*
X473427Y188337D01*
X474163Y189073D01*
X474683Y189974D01*
X474953Y190980D01*
Y192020D01*
X474683Y193026D01*
X474163Y193927D01*
X473427Y194663D01*
X472526Y195183D01*
X471520Y195453D01*
D02*
G37*
G36*
X461520D02*
X460480D01*
X459474Y195183D01*
X458573Y194663D01*
X457837Y193927D01*
X457317Y193026D01*
X457047Y192020D01*
Y190980D01*
X457317Y189974D01*
X457837Y189073D01*
X458573Y188337D01*
X459474Y187817D01*
X460480Y187547D01*
X461520D01*
X462526Y187817D01*
X463427Y188337D01*
X464163Y189073D01*
X464683Y189974D01*
X464953Y190980D01*
Y192020D01*
X464683Y193026D01*
X464163Y193927D01*
X463427Y194663D01*
X462526Y195183D01*
X461520Y195453D01*
D02*
G37*
G36*
X451520D02*
X450480D01*
X449474Y195183D01*
X448573Y194663D01*
X447837Y193927D01*
X447317Y193026D01*
X447047Y192020D01*
Y190980D01*
X447317Y189974D01*
X447837Y189073D01*
X448573Y188337D01*
X449474Y187817D01*
X450480Y187547D01*
X451520D01*
X452526Y187817D01*
X453427Y188337D01*
X454163Y189073D01*
X454683Y189974D01*
X454953Y190980D01*
Y192020D01*
X454683Y193026D01*
X454163Y193927D01*
X453427Y194663D01*
X452526Y195183D01*
X451520Y195453D01*
D02*
G37*
G36*
X441520D02*
X440480D01*
X439474Y195183D01*
X438573Y194663D01*
X437837Y193927D01*
X437317Y193026D01*
X437047Y192020D01*
Y190980D01*
X437317Y189974D01*
X437837Y189073D01*
X438573Y188337D01*
X439474Y187817D01*
X440480Y187547D01*
X441520D01*
X442526Y187817D01*
X443427Y188337D01*
X444163Y189073D01*
X444683Y189974D01*
X444953Y190980D01*
Y192020D01*
X444683Y193026D01*
X444163Y193927D01*
X443427Y194663D01*
X442526Y195183D01*
X441520Y195453D01*
D02*
G37*
G36*
X411520D02*
X410480D01*
X409474Y195183D01*
X408573Y194663D01*
X407837Y193927D01*
X407317Y193026D01*
X407047Y192020D01*
Y190980D01*
X407317Y189974D01*
X407837Y189073D01*
X408573Y188337D01*
X409474Y187817D01*
X410480Y187547D01*
X411520D01*
X412526Y187817D01*
X413427Y188337D01*
X414163Y189073D01*
X414683Y189974D01*
X414953Y190980D01*
Y192020D01*
X414683Y193026D01*
X414163Y193927D01*
X413427Y194663D01*
X412526Y195183D01*
X411520Y195453D01*
D02*
G37*
G36*
X401520D02*
X400480D01*
X399474Y195183D01*
X398573Y194663D01*
X397837Y193927D01*
X397317Y193026D01*
X397047Y192020D01*
Y190980D01*
X397317Y189974D01*
X397837Y189073D01*
X398573Y188337D01*
X399474Y187817D01*
X400480Y187547D01*
X401520D01*
X402526Y187817D01*
X403427Y188337D01*
X404163Y189073D01*
X404683Y189974D01*
X404953Y190980D01*
Y192020D01*
X404683Y193026D01*
X404163Y193927D01*
X403427Y194663D01*
X402526Y195183D01*
X401520Y195453D01*
D02*
G37*
G36*
X394953Y191000D02*
X391500D01*
Y187547D01*
X391520D01*
X392526Y187817D01*
X393427Y188337D01*
X394163Y189073D01*
X394683Y189974D01*
X394953Y190980D01*
Y191000D01*
D02*
G37*
G36*
X390500D02*
X387047D01*
Y190980D01*
X387317Y189974D01*
X387837Y189073D01*
X388573Y188337D01*
X389474Y187817D01*
X390480Y187547D01*
X390500D01*
Y191000D01*
D02*
G37*
G36*
X381520Y195453D02*
X380480D01*
X379474Y195183D01*
X378573Y194663D01*
X377837Y193927D01*
X377317Y193026D01*
X377047Y192020D01*
Y190980D01*
X377317Y189974D01*
X377837Y189073D01*
X378573Y188337D01*
X379474Y187817D01*
X380480Y187547D01*
X381520D01*
X382526Y187817D01*
X383427Y188337D01*
X384163Y189073D01*
X384683Y189974D01*
X384953Y190980D01*
Y192020D01*
X384683Y193026D01*
X384163Y193927D01*
X383427Y194663D01*
X382526Y195183D01*
X381520Y195453D01*
D02*
G37*
G36*
X371520D02*
X370480D01*
X369474Y195183D01*
X368573Y194663D01*
X367837Y193927D01*
X367317Y193026D01*
X367047Y192020D01*
Y190980D01*
X367317Y189974D01*
X367837Y189073D01*
X368573Y188337D01*
X369474Y187817D01*
X370480Y187547D01*
X371520D01*
X372526Y187817D01*
X373427Y188337D01*
X374163Y189073D01*
X374683Y189974D01*
X374953Y190980D01*
Y192020D01*
X374683Y193026D01*
X374163Y193927D01*
X373427Y194663D01*
X372526Y195183D01*
X371520Y195453D01*
D02*
G37*
G36*
X361520D02*
X360480D01*
X359474Y195183D01*
X358573Y194663D01*
X357837Y193927D01*
X357317Y193026D01*
X357047Y192020D01*
Y190980D01*
X357317Y189974D01*
X357837Y189073D01*
X358573Y188337D01*
X359474Y187817D01*
X360480Y187547D01*
X361520D01*
X362526Y187817D01*
X363427Y188337D01*
X364163Y189073D01*
X364683Y189974D01*
X364953Y190980D01*
Y192020D01*
X364683Y193026D01*
X364163Y193927D01*
X363427Y194663D01*
X362526Y195183D01*
X361520Y195453D01*
D02*
G37*
G36*
X351520D02*
X350480D01*
X349474Y195183D01*
X348573Y194663D01*
X347837Y193927D01*
X347317Y193026D01*
X347047Y192020D01*
Y190980D01*
X347317Y189974D01*
X347837Y189073D01*
X348573Y188337D01*
X349474Y187817D01*
X350480Y187547D01*
X351520D01*
X352526Y187817D01*
X353427Y188337D01*
X354163Y189073D01*
X354683Y189974D01*
X354953Y190980D01*
Y192020D01*
X354683Y193026D01*
X354163Y193927D01*
X353427Y194663D01*
X352526Y195183D01*
X351520Y195453D01*
D02*
G37*
G36*
X341520D02*
X340480D01*
X339474Y195183D01*
X338573Y194663D01*
X337837Y193927D01*
X337317Y193026D01*
X337047Y192020D01*
Y190980D01*
X337317Y189974D01*
X337837Y189073D01*
X338573Y188337D01*
X339474Y187817D01*
X340480Y187547D01*
X341520D01*
X342526Y187817D01*
X343427Y188337D01*
X344163Y189073D01*
X344683Y189974D01*
X344953Y190980D01*
Y192020D01*
X344683Y193026D01*
X344163Y193927D01*
X343427Y194663D01*
X342526Y195183D01*
X341520Y195453D01*
D02*
G37*
G36*
X331520D02*
X330480D01*
X329474Y195183D01*
X328573Y194663D01*
X327837Y193927D01*
X327317Y193026D01*
X327047Y192020D01*
Y190980D01*
X327317Y189974D01*
X327837Y189073D01*
X328573Y188337D01*
X329474Y187817D01*
X330480Y187547D01*
X331520D01*
X332526Y187817D01*
X333427Y188337D01*
X334163Y189073D01*
X334683Y189974D01*
X334953Y190980D01*
Y192020D01*
X334683Y193026D01*
X334163Y193927D01*
X333427Y194663D01*
X332526Y195183D01*
X331520Y195453D01*
D02*
G37*
G36*
X321520D02*
X320480D01*
X319474Y195183D01*
X318573Y194663D01*
X317837Y193927D01*
X317317Y193026D01*
X317047Y192020D01*
Y190980D01*
X317317Y189974D01*
X317837Y189073D01*
X318573Y188337D01*
X319474Y187817D01*
X320480Y187547D01*
X321520D01*
X322526Y187817D01*
X323427Y188337D01*
X324163Y189073D01*
X324683Y189974D01*
X324953Y190980D01*
Y192020D01*
X324683Y193026D01*
X324163Y193927D01*
X323427Y194663D01*
X322526Y195183D01*
X321520Y195453D01*
D02*
G37*
G36*
X311520D02*
X310480D01*
X309474Y195183D01*
X308573Y194663D01*
X307837Y193927D01*
X307317Y193026D01*
X307047Y192020D01*
Y190980D01*
X307317Y189974D01*
X307837Y189073D01*
X308573Y188337D01*
X309474Y187817D01*
X310480Y187547D01*
X311520D01*
X312526Y187817D01*
X313427Y188337D01*
X314163Y189073D01*
X314683Y189974D01*
X314953Y190980D01*
Y192020D01*
X314683Y193026D01*
X314163Y193927D01*
X313427Y194663D01*
X312526Y195183D01*
X311520Y195453D01*
D02*
G37*
G36*
X301520D02*
X300480D01*
X299474Y195183D01*
X298573Y194663D01*
X297837Y193927D01*
X297317Y193026D01*
X297047Y192020D01*
Y190980D01*
X297317Y189974D01*
X297837Y189073D01*
X298573Y188337D01*
X299474Y187817D01*
X300480Y187547D01*
X301520D01*
X302526Y187817D01*
X303427Y188337D01*
X304163Y189073D01*
X304683Y189974D01*
X304953Y190980D01*
Y192020D01*
X304683Y193026D01*
X304163Y193927D01*
X303427Y194663D01*
X302526Y195183D01*
X301520Y195453D01*
D02*
G37*
G36*
X294953D02*
X287047D01*
Y187547D01*
X294953D01*
Y195453D01*
D02*
G37*
G36*
X532176Y191634D02*
X530824D01*
X529518Y191284D01*
X528348Y190608D01*
X527392Y189652D01*
X526716Y188482D01*
X526366Y187176D01*
Y185824D01*
X526716Y184518D01*
X527392Y183348D01*
X528348Y182392D01*
X529518Y181716D01*
X530824Y181366D01*
X532176D01*
X533482Y181716D01*
X534652Y182392D01*
X535608Y183348D01*
X536284Y184518D01*
X536634Y185824D01*
Y187176D01*
X536284Y188482D01*
X535608Y189652D01*
X534652Y190608D01*
X533482Y191284D01*
X532176Y191634D01*
D02*
G37*
G36*
X506676D02*
X505324D01*
X504018Y191284D01*
X502848Y190608D01*
X501892Y189652D01*
X501216Y188482D01*
X500866Y187176D01*
Y185824D01*
X501216Y184518D01*
X501892Y183348D01*
X502848Y182392D01*
X504018Y181716D01*
X505324Y181366D01*
X506676D01*
X507982Y181716D01*
X509152Y182392D01*
X510108Y183348D01*
X510784Y184518D01*
X511134Y185824D01*
Y187176D01*
X510784Y188482D01*
X510108Y189652D01*
X509152Y190608D01*
X507982Y191284D01*
X506676Y191634D01*
D02*
G37*
G36*
X391500Y179754D02*
Y176500D01*
X394754D01*
X394500Y177450D01*
X394005Y178306D01*
X393306Y179006D01*
X392450Y179500D01*
X391500Y179754D01*
D02*
G37*
G36*
X390500D02*
X389550Y179500D01*
X388694Y179006D01*
X387995Y178306D01*
X387500Y177450D01*
X387246Y176500D01*
X390500D01*
Y179754D01*
D02*
G37*
G36*
X394754Y175500D02*
X391500D01*
Y172246D01*
X392450Y172500D01*
X393306Y172994D01*
X394005Y173694D01*
X394500Y174550D01*
X394754Y175500D01*
D02*
G37*
G36*
X390500D02*
X387246D01*
X387500Y174550D01*
X387995Y173694D01*
X388694Y172994D01*
X389550Y172500D01*
X390500Y172246D01*
Y175500D01*
D02*
G37*
G36*
X381494Y179756D02*
X380505D01*
X379550Y179500D01*
X378694Y179006D01*
X377994Y178306D01*
X377500Y177450D01*
X377244Y176495D01*
Y175505D01*
X377500Y174550D01*
X377994Y173694D01*
X378694Y172994D01*
X379550Y172500D01*
X380505Y172244D01*
X381494D01*
X382450Y172500D01*
X383306Y172994D01*
X384005Y173694D01*
X384500Y174550D01*
X384756Y175505D01*
Y176495D01*
X384500Y177450D01*
X384005Y178306D01*
X383306Y179006D01*
X382450Y179500D01*
X381494Y179756D01*
D02*
G37*
G36*
X595033Y166551D02*
X595000D01*
Y163000D01*
X598551D01*
Y163033D01*
X598275Y164064D01*
X597742Y164988D01*
X596987Y165742D01*
X596064Y166275D01*
X595033Y166551D01*
D02*
G37*
G36*
X594000D02*
X593967D01*
X592936Y166275D01*
X592013Y165742D01*
X591258Y164988D01*
X590725Y164064D01*
X590449Y163033D01*
Y163000D01*
X594000D01*
Y166551D01*
D02*
G37*
G36*
X598551Y162000D02*
X595000D01*
Y158449D01*
X595033D01*
X596064Y158725D01*
X596987Y159258D01*
X597742Y160012D01*
X598275Y160936D01*
X598551Y161967D01*
Y162000D01*
D02*
G37*
G36*
X594000D02*
X590449D01*
Y161967D01*
X590725Y160936D01*
X591258Y160012D01*
X592013Y159258D01*
X592936Y158725D01*
X593967Y158449D01*
X594000D01*
Y162000D01*
D02*
G37*
G36*
X438551Y157551D02*
X435000D01*
Y154000D01*
X438551D01*
Y157551D01*
D02*
G37*
G36*
X434000D02*
X430449D01*
Y154000D01*
X434000D01*
Y157551D01*
D02*
G37*
G36*
X385494Y160256D02*
X384506D01*
X383550Y160000D01*
X382694Y159505D01*
X381995Y158806D01*
X381500Y157950D01*
X381244Y156994D01*
Y156006D01*
X381500Y155050D01*
X381995Y154194D01*
X382694Y153495D01*
X383550Y153000D01*
X384506Y152744D01*
X385494D01*
X386450Y153000D01*
X387306Y153495D01*
X388005Y154194D01*
X388500Y155050D01*
X388756Y156006D01*
Y156994D01*
X388500Y157950D01*
X388005Y158806D01*
X387306Y159505D01*
X386450Y160000D01*
X385494Y160256D01*
D02*
G37*
G36*
X375495D02*
X374505D01*
X373550Y160000D01*
X372694Y159505D01*
X371994Y158806D01*
X371500Y157950D01*
X371244Y156994D01*
Y156006D01*
X371500Y155050D01*
X371994Y154194D01*
X372694Y153495D01*
X373550Y153000D01*
X374505Y152744D01*
X375495D01*
X376450Y153000D01*
X377306Y153495D01*
X378006Y154194D01*
X378500Y155050D01*
X378756Y156006D01*
Y156994D01*
X378500Y157950D01*
X378006Y158806D01*
X377306Y159505D01*
X376450Y160000D01*
X375495Y160256D01*
D02*
G37*
G36*
X355995D02*
X355006D01*
X354050Y160000D01*
X353194Y159505D01*
X352495Y158806D01*
X352000Y157950D01*
X351744Y156994D01*
Y156006D01*
X352000Y155050D01*
X352495Y154194D01*
X353194Y153495D01*
X354050Y153000D01*
X355006Y152744D01*
X355995D01*
X356950Y153000D01*
X357806Y153495D01*
X358506Y154194D01*
X359000Y155050D01*
X359256Y156006D01*
Y156994D01*
X359000Y157950D01*
X358506Y158806D01*
X357806Y159505D01*
X356950Y160000D01*
X355995Y160256D01*
D02*
G37*
G36*
X345994D02*
X345005D01*
X344050Y160000D01*
X343194Y159505D01*
X342495Y158806D01*
X342000Y157950D01*
X341744Y156994D01*
Y156006D01*
X342000Y155050D01*
X342495Y154194D01*
X343194Y153495D01*
X344050Y153000D01*
X345005Y152744D01*
X345994D01*
X346950Y153000D01*
X347806Y153495D01*
X348505Y154194D01*
X349000Y155050D01*
X349256Y156006D01*
Y156994D01*
X349000Y157950D01*
X348505Y158806D01*
X347806Y159505D01*
X346950Y160000D01*
X345994Y160256D01*
D02*
G37*
G36*
X326495D02*
X325505D01*
X324550Y160000D01*
X323694Y159505D01*
X322994Y158806D01*
X322500Y157950D01*
X322244Y156994D01*
Y156006D01*
X322500Y155050D01*
X322994Y154194D01*
X323694Y153495D01*
X324550Y153000D01*
X325505Y152744D01*
X326495D01*
X327450Y153000D01*
X328306Y153495D01*
X329006Y154194D01*
X329500Y155050D01*
X329756Y156006D01*
Y156994D01*
X329500Y157950D01*
X329006Y158806D01*
X328306Y159505D01*
X327450Y160000D01*
X326495Y160256D01*
D02*
G37*
G36*
X316494D02*
X315506D01*
X314550Y160000D01*
X313694Y159505D01*
X312995Y158806D01*
X312500Y157950D01*
X312244Y156994D01*
Y156006D01*
X312500Y155050D01*
X312995Y154194D01*
X313694Y153495D01*
X314550Y153000D01*
X315506Y152744D01*
X316494D01*
X317450Y153000D01*
X318306Y153495D01*
X319005Y154194D01*
X319500Y155050D01*
X319756Y156006D01*
Y156994D01*
X319500Y157950D01*
X319005Y158806D01*
X318306Y159505D01*
X317450Y160000D01*
X316494Y160256D01*
D02*
G37*
G36*
X296495D02*
X295505D01*
X294550Y160000D01*
X293694Y159505D01*
X292994Y158806D01*
X292500Y157950D01*
X292244Y156994D01*
Y156006D01*
X292500Y155050D01*
X292994Y154194D01*
X293694Y153495D01*
X294550Y153000D01*
X295505Y152744D01*
X296495D01*
X297450Y153000D01*
X298306Y153495D01*
X299006Y154194D01*
X299500Y155050D01*
X299756Y156006D01*
Y156994D01*
X299500Y157950D01*
X299006Y158806D01*
X298306Y159505D01*
X297450Y160000D01*
X296495Y160256D01*
D02*
G37*
G36*
X286494D02*
X285506D01*
X284550Y160000D01*
X283694Y159505D01*
X282995Y158806D01*
X282500Y157950D01*
X282244Y156994D01*
Y156006D01*
X282500Y155050D01*
X282995Y154194D01*
X283694Y153495D01*
X284550Y153000D01*
X285506Y152744D01*
X286494D01*
X287450Y153000D01*
X288306Y153495D01*
X289005Y154194D01*
X289500Y155050D01*
X289756Y156006D01*
Y156994D01*
X289500Y157950D01*
X289005Y158806D01*
X288306Y159505D01*
X287450Y160000D01*
X286494Y160256D01*
D02*
G37*
G36*
X504994Y158256D02*
X504005D01*
X503050Y158000D01*
X502194Y157506D01*
X501495Y156806D01*
X501000Y155950D01*
X500744Y154994D01*
Y154006D01*
X501000Y153050D01*
X501495Y152194D01*
X502194Y151495D01*
X503050Y151000D01*
X504005Y150744D01*
X504994D01*
X505950Y151000D01*
X506806Y151495D01*
X507506Y152194D01*
X508000Y153050D01*
X508256Y154006D01*
Y154994D01*
X508000Y155950D01*
X507506Y156806D01*
X506806Y157506D01*
X505950Y158000D01*
X504994Y158256D01*
D02*
G37*
G36*
X494994D02*
X494005D01*
X493050Y158000D01*
X492194Y157506D01*
X491495Y156806D01*
X491000Y155950D01*
X490744Y154994D01*
Y154006D01*
X491000Y153050D01*
X491495Y152194D01*
X492194Y151495D01*
X493050Y151000D01*
X494005Y150744D01*
X494994D01*
X495950Y151000D01*
X496806Y151495D01*
X497506Y152194D01*
X498000Y153050D01*
X498256Y154006D01*
Y154994D01*
X498000Y155950D01*
X497506Y156806D01*
X496806Y157506D01*
X495950Y158000D01*
X494994Y158256D01*
D02*
G37*
G36*
X445033Y157551D02*
X443967D01*
X442936Y157275D01*
X442013Y156742D01*
X441258Y155988D01*
X440725Y155064D01*
X440449Y154033D01*
Y152967D01*
X440725Y151936D01*
X441258Y151013D01*
X442013Y150258D01*
X442936Y149725D01*
X443967Y149449D01*
X445033D01*
X446064Y149725D01*
X446987Y150258D01*
X447742Y151013D01*
X448275Y151936D01*
X448551Y152967D01*
Y154033D01*
X448275Y155064D01*
X447742Y155988D01*
X446987Y156742D01*
X446064Y157275D01*
X445033Y157551D01*
D02*
G37*
G36*
X438551Y153000D02*
X435000D01*
Y149449D01*
X438551D01*
Y153000D01*
D02*
G37*
G36*
X595033Y156551D02*
X593967D01*
X592936Y156275D01*
X592013Y155742D01*
X591258Y154988D01*
X590725Y154064D01*
X590449Y153033D01*
Y151967D01*
X590725Y150936D01*
X591258Y150013D01*
X592013Y149258D01*
X592936Y148725D01*
X593967Y148449D01*
X595033D01*
X596064Y148725D01*
X596987Y149258D01*
X597742Y150013D01*
X598275Y150936D01*
X598551Y151967D01*
Y153033D01*
X598275Y154064D01*
X597742Y154988D01*
X596987Y155742D01*
X596064Y156275D01*
X595033Y156551D01*
D02*
G37*
G36*
Y146551D02*
X593967D01*
X592936Y146275D01*
X592013Y145742D01*
X591258Y144987D01*
X590725Y144064D01*
X590449Y143033D01*
Y141967D01*
X590725Y140936D01*
X591258Y140013D01*
X592013Y139258D01*
X592936Y138725D01*
X593967Y138449D01*
X595033D01*
X596064Y138725D01*
X596987Y139258D01*
X597742Y140013D01*
X598275Y140936D01*
X598551Y141967D01*
Y143033D01*
X598275Y144064D01*
X597742Y144987D01*
X596987Y145742D01*
X596064Y146275D01*
X595033Y146551D01*
D02*
G37*
G36*
X505494Y141256D02*
X504505D01*
X503550Y141000D01*
X502694Y140506D01*
X501995Y139806D01*
X501500Y138950D01*
X501244Y137995D01*
Y137005D01*
X501500Y136050D01*
X501995Y135194D01*
X502694Y134494D01*
X503550Y134000D01*
X504505Y133744D01*
X505494D01*
X506450Y134000D01*
X507306Y134494D01*
X508006Y135194D01*
X508500Y136050D01*
X508756Y137005D01*
Y137995D01*
X508500Y138950D01*
X508006Y139806D01*
X507306Y140506D01*
X506450Y141000D01*
X505494Y141256D01*
D02*
G37*
G36*
X393379Y138748D02*
X392338D01*
X391333Y138479D01*
X390431Y137958D01*
X389695Y137222D01*
X389175Y136321D01*
X388906Y135316D01*
Y134275D01*
X389175Y133270D01*
X389695Y132368D01*
X390431Y131632D01*
X391333Y131112D01*
X392338Y130842D01*
X393379D01*
X394384Y131112D01*
X395285Y131632D01*
X396021Y132368D01*
X396542Y133270D01*
X396811Y134275D01*
Y135316D01*
X396542Y136321D01*
X396021Y137222D01*
X395285Y137958D01*
X394384Y138479D01*
X393379Y138748D01*
D02*
G37*
G36*
X375662D02*
X374621D01*
X373616Y138479D01*
X372715Y137958D01*
X371979Y137222D01*
X371458Y136321D01*
X371189Y135316D01*
Y134275D01*
X371458Y133270D01*
X371979Y132368D01*
X372715Y131632D01*
X373616Y131112D01*
X374621Y130842D01*
X375662D01*
X376667Y131112D01*
X377569Y131632D01*
X378305Y132368D01*
X378825Y133270D01*
X379095Y134275D01*
Y135316D01*
X378825Y136321D01*
X378305Y137222D01*
X377569Y137958D01*
X376667Y138479D01*
X375662Y138748D01*
D02*
G37*
G36*
X363879D02*
X362838D01*
X361832Y138479D01*
X360931Y137958D01*
X360195Y137222D01*
X359675Y136321D01*
X359405Y135316D01*
Y134275D01*
X359675Y133270D01*
X360195Y132368D01*
X360931Y131632D01*
X361832Y131112D01*
X362838Y130842D01*
X363879D01*
X364884Y131112D01*
X365785Y131632D01*
X366521Y132368D01*
X367042Y133270D01*
X367311Y134275D01*
Y135316D01*
X367042Y136321D01*
X366521Y137222D01*
X365785Y137958D01*
X364884Y138479D01*
X363879Y138748D01*
D02*
G37*
G36*
X346162D02*
X345121D01*
X344116Y138479D01*
X343215Y137958D01*
X342479Y137222D01*
X341958Y136321D01*
X341689Y135316D01*
Y134275D01*
X341958Y133270D01*
X342479Y132368D01*
X343215Y131632D01*
X344116Y131112D01*
X345121Y130842D01*
X346162D01*
X347167Y131112D01*
X348069Y131632D01*
X348805Y132368D01*
X349325Y133270D01*
X349594Y134275D01*
Y135316D01*
X349325Y136321D01*
X348805Y137222D01*
X348069Y137958D01*
X347167Y138479D01*
X346162Y138748D01*
D02*
G37*
G36*
X333879D02*
X332838D01*
X331833Y138479D01*
X330931Y137958D01*
X330195Y137222D01*
X329675Y136321D01*
X329405Y135316D01*
Y134275D01*
X329675Y133270D01*
X330195Y132368D01*
X330931Y131632D01*
X331833Y131112D01*
X332838Y130842D01*
X333879D01*
X334884Y131112D01*
X335785Y131632D01*
X336521Y132368D01*
X337042Y133270D01*
X337311Y134275D01*
Y135316D01*
X337042Y136321D01*
X336521Y137222D01*
X335785Y137958D01*
X334884Y138479D01*
X333879Y138748D01*
D02*
G37*
G36*
X316162D02*
X315121D01*
X314116Y138479D01*
X313215Y137958D01*
X312479Y137222D01*
X311958Y136321D01*
X311689Y135316D01*
Y134275D01*
X311958Y133270D01*
X312479Y132368D01*
X313215Y131632D01*
X314116Y131112D01*
X315121Y130842D01*
X316162D01*
X317167Y131112D01*
X318069Y131632D01*
X318805Y132368D01*
X319325Y133270D01*
X319595Y134275D01*
Y135316D01*
X319325Y136321D01*
X318805Y137222D01*
X318069Y137958D01*
X317167Y138479D01*
X316162Y138748D01*
D02*
G37*
G36*
X304379D02*
X303338D01*
X302332Y138479D01*
X301431Y137958D01*
X300695Y137222D01*
X300175Y136321D01*
X299905Y135316D01*
Y134275D01*
X300175Y133270D01*
X300695Y132368D01*
X301431Y131632D01*
X302332Y131112D01*
X303338Y130842D01*
X304379D01*
X305384Y131112D01*
X306285Y131632D01*
X307021Y132368D01*
X307542Y133270D01*
X307811Y134275D01*
Y135316D01*
X307542Y136321D01*
X307021Y137222D01*
X306285Y137958D01*
X305384Y138479D01*
X304379Y138748D01*
D02*
G37*
G36*
X286662D02*
X285621D01*
X284616Y138479D01*
X283715Y137958D01*
X282979Y137222D01*
X282458Y136321D01*
X282189Y135316D01*
Y134275D01*
X282458Y133270D01*
X282979Y132368D01*
X283715Y131632D01*
X284616Y131112D01*
X285621Y130842D01*
X286662D01*
X287667Y131112D01*
X288569Y131632D01*
X289305Y132368D01*
X289825Y133270D01*
X290094Y134275D01*
Y135316D01*
X289825Y136321D01*
X289305Y137222D01*
X288569Y137958D01*
X287667Y138479D01*
X286662Y138748D01*
D02*
G37*
G36*
X431520Y195453D02*
X430480D01*
X429474Y195183D01*
X428573Y194663D01*
X427837Y193927D01*
X427317Y193026D01*
X427047Y192020D01*
Y190980D01*
X427317Y189974D01*
X427837Y189073D01*
X428573Y188337D01*
X429474Y187817D01*
X430480Y187547D01*
X431520D01*
X432522Y187815D01*
X460650Y159687D01*
X461146Y159356D01*
X461731Y159239D01*
X565098D01*
X590629Y133708D01*
X590449Y133033D01*
Y131967D01*
X590725Y130936D01*
X591258Y130013D01*
X592013Y129258D01*
X592936Y128725D01*
X593967Y128449D01*
X595033D01*
X596064Y128725D01*
X596987Y129258D01*
X597742Y130013D01*
X598275Y130936D01*
X598551Y131967D01*
Y133033D01*
X598275Y134064D01*
X597742Y134987D01*
X596987Y135742D01*
X596064Y136275D01*
X595033Y136551D01*
X593967D01*
X592936Y136275D01*
X592589Y136074D01*
X566813Y161850D01*
X566316Y162182D01*
X565731Y162298D01*
X462365D01*
X434685Y189978D01*
X434953Y190980D01*
Y192020D01*
X434683Y193026D01*
X434163Y193927D01*
X433427Y194663D01*
X432526Y195183D01*
X431520Y195453D01*
D02*
G37*
G36*
X438551Y129051D02*
X435000D01*
Y125500D01*
X438551D01*
Y129051D01*
D02*
G37*
G36*
X434000D02*
X430449D01*
Y125500D01*
X434000D01*
Y129051D01*
D02*
G37*
G36*
X445033D02*
X443967D01*
X442936Y128775D01*
X442013Y128242D01*
X441258Y127488D01*
X440725Y126564D01*
X440449Y125533D01*
Y124467D01*
X440725Y123436D01*
X441258Y122512D01*
X442013Y121758D01*
X442936Y121225D01*
X443967Y120949D01*
X445033D01*
X446064Y121225D01*
X446987Y121758D01*
X447742Y122512D01*
X448275Y123436D01*
X448551Y124467D01*
Y125533D01*
X448275Y126564D01*
X447742Y127488D01*
X446987Y128242D01*
X446064Y128775D01*
X445033Y129051D01*
D02*
G37*
G36*
X438551Y124500D02*
X435000D01*
Y120949D01*
X438551D01*
Y124500D01*
D02*
G37*
G36*
X434000D02*
X430449D01*
Y120949D01*
X434000D01*
Y124500D01*
D02*
G37*
G36*
X421520Y195453D02*
X420480D01*
X419474Y195183D01*
X418573Y194663D01*
X417837Y193927D01*
X417317Y193026D01*
X417047Y192020D01*
Y190980D01*
X417317Y189974D01*
X417837Y189073D01*
X418573Y188337D01*
X419471Y187819D01*
Y158776D01*
X419587Y158191D01*
X419919Y157695D01*
X445451Y132163D01*
X445947Y131831D01*
X446532Y131715D01*
X497641D01*
X504654Y124702D01*
X504417Y124232D01*
X503550Y124000D01*
X502694Y123505D01*
X501995Y122806D01*
X501500Y121950D01*
X501244Y120994D01*
Y120006D01*
X501500Y119050D01*
X501995Y118194D01*
X502694Y117494D01*
X503550Y117000D01*
X504505Y116744D01*
X505494D01*
X506361Y116976D01*
X514419Y108919D01*
X514915Y108587D01*
X515500Y108471D01*
X590449D01*
Y108449D01*
X598551D01*
Y116551D01*
X590449D01*
Y111529D01*
X516133D01*
X508524Y119139D01*
X508732Y119917D01*
X509202Y120153D01*
X510437Y118919D01*
X510933Y118587D01*
X511519Y118471D01*
X591392D01*
X591977Y118587D01*
X592474Y118919D01*
X592520Y118965D01*
X592936Y118725D01*
X593967Y118449D01*
X595033D01*
X596064Y118725D01*
X596987Y119258D01*
X597742Y120012D01*
X598275Y120936D01*
X598551Y121967D01*
Y123033D01*
X598275Y124064D01*
X597742Y124987D01*
X596987Y125742D01*
X596064Y126275D01*
X595033Y126551D01*
X593967D01*
X592936Y126275D01*
X592013Y125742D01*
X591258Y124987D01*
X590725Y124064D01*
X590449Y123033D01*
Y121967D01*
X590460Y121926D01*
X590155Y121529D01*
X512152D01*
X499356Y134326D01*
X498860Y134657D01*
X498289Y134771D01*
X498151Y134973D01*
X498052Y135274D01*
X498500Y136050D01*
X498756Y137005D01*
Y137995D01*
X498500Y138950D01*
X498005Y139806D01*
X497306Y140506D01*
X496450Y141000D01*
X495495Y141256D01*
X494506D01*
X493550Y141000D01*
X492694Y140506D01*
X491994Y139806D01*
X491500Y138950D01*
X491244Y137995D01*
Y137005D01*
X491500Y136050D01*
X491949Y135274D01*
X491784Y134774D01*
X447166D01*
X432952Y148987D01*
X433144Y149449D01*
X434000D01*
Y153000D01*
X430449D01*
Y152144D01*
X429987Y151952D01*
X422529Y159410D01*
Y187819D01*
X423427Y188337D01*
X424163Y189073D01*
X424683Y189974D01*
X424953Y190980D01*
Y192020D01*
X424683Y193026D01*
X424163Y193927D01*
X423427Y194663D01*
X422526Y195183D01*
X421520Y195453D01*
D02*
G37*
G36*
X495495Y124256D02*
X494506D01*
X493550Y124000D01*
X492694Y123505D01*
X491994Y122806D01*
X491500Y121950D01*
X491244Y120994D01*
Y120006D01*
X491500Y119050D01*
X491994Y118194D01*
X492694Y117494D01*
X493550Y117000D01*
X494506Y116744D01*
X495495D01*
X496450Y117000D01*
X497306Y117494D01*
X498005Y118194D01*
X498500Y119050D01*
X498756Y120006D01*
Y120994D01*
X498500Y121950D01*
X498005Y122806D01*
X497306Y123505D01*
X496450Y124000D01*
X495495Y124256D01*
D02*
G37*
G36*
X333879Y113157D02*
X333858D01*
Y109705D01*
X337311D01*
Y109725D01*
X337042Y110730D01*
X336521Y111632D01*
X335785Y112368D01*
X334884Y112888D01*
X333879Y113157D01*
D02*
G37*
G36*
X304379D02*
X304358D01*
Y109705D01*
X307811D01*
Y109725D01*
X307542Y110730D01*
X307021Y111632D01*
X306285Y112368D01*
X305384Y112888D01*
X304379Y113157D01*
D02*
G37*
G36*
X332858D02*
X332838D01*
X331833Y112888D01*
X330931Y112368D01*
X330195Y111632D01*
X329675Y110730D01*
X329405Y109725D01*
Y109705D01*
X332858D01*
Y113157D01*
D02*
G37*
G36*
X303358D02*
X303338D01*
X302332Y112888D01*
X301431Y112368D01*
X300695Y111632D01*
X300175Y110730D01*
X299905Y109725D01*
Y109705D01*
X303358D01*
Y113157D01*
D02*
G37*
G36*
X393379D02*
X393358D01*
Y109705D01*
X396811D01*
Y109725D01*
X396542Y110730D01*
X396021Y111632D01*
X395285Y112368D01*
X394384Y112888D01*
X393379Y113157D01*
D02*
G37*
G36*
X363879D02*
X363858D01*
Y109705D01*
X367311D01*
Y109725D01*
X367042Y110730D01*
X366521Y111632D01*
X365785Y112368D01*
X364884Y112888D01*
X363879Y113157D01*
D02*
G37*
G36*
X392358D02*
X392338D01*
X391333Y112888D01*
X390431Y112368D01*
X389695Y111632D01*
X389175Y110730D01*
X388906Y109725D01*
Y109705D01*
X392358D01*
Y113157D01*
D02*
G37*
G36*
X362858D02*
X362838D01*
X361832Y112888D01*
X360931Y112368D01*
X360195Y111632D01*
X359675Y110730D01*
X359405Y109725D01*
Y109705D01*
X362858D01*
Y113157D01*
D02*
G37*
G36*
X232424Y112224D02*
X231575D01*
X230755Y112005D01*
X230020Y111580D01*
X229420Y110980D01*
X228995Y110245D01*
X228776Y109424D01*
Y108575D01*
X228995Y107755D01*
X229420Y107020D01*
X230020Y106420D01*
X230755Y105995D01*
X231575Y105776D01*
X232424D01*
X233245Y105995D01*
X233980Y106420D01*
X234580Y107020D01*
X235005Y107755D01*
X235224Y108575D01*
Y109424D01*
X235005Y110245D01*
X234580Y110980D01*
X233980Y111580D01*
X233245Y112005D01*
X232424Y112224D01*
D02*
G37*
G36*
X222425D02*
X221575D01*
X220755Y112005D01*
X220020Y111580D01*
X219420Y110980D01*
X218995Y110245D01*
X218776Y109424D01*
Y108575D01*
X218995Y107755D01*
X219420Y107020D01*
X220020Y106420D01*
X220755Y105995D01*
X221575Y105776D01*
X222425D01*
X223245Y105995D01*
X223980Y106420D01*
X224580Y107020D01*
X225005Y107755D01*
X225224Y108575D01*
Y109424D01*
X225005Y110245D01*
X224580Y110980D01*
X223980Y111580D01*
X223245Y112005D01*
X222425Y112224D01*
D02*
G37*
G36*
X152425D02*
X151576D01*
X150755Y112005D01*
X150020Y111580D01*
X149420Y110980D01*
X148995Y110245D01*
X148776Y109424D01*
Y108575D01*
X148995Y107755D01*
X149420Y107020D01*
X150020Y106420D01*
X150755Y105995D01*
X151576Y105776D01*
X152425D01*
X153245Y105995D01*
X153980Y106420D01*
X154580Y107020D01*
X155005Y107755D01*
X155224Y108575D01*
Y109424D01*
X155005Y110245D01*
X154580Y110980D01*
X153980Y111580D01*
X153245Y112005D01*
X152425Y112224D01*
D02*
G37*
G36*
X145224D02*
X138776D01*
Y105776D01*
X145224D01*
Y112224D01*
D02*
G37*
G36*
X396811Y108705D02*
X393358D01*
Y105252D01*
X393379D01*
X394384Y105521D01*
X395285Y106042D01*
X396021Y106778D01*
X396542Y107679D01*
X396811Y108684D01*
Y108705D01*
D02*
G37*
G36*
X392358D02*
X388906D01*
Y108684D01*
X389175Y107679D01*
X389695Y106778D01*
X390431Y106042D01*
X391333Y105521D01*
X392338Y105252D01*
X392358D01*
Y108705D01*
D02*
G37*
G36*
X379095Y113157D02*
X371189D01*
Y105252D01*
X379095D01*
Y113157D01*
D02*
G37*
G36*
X367311Y108705D02*
X363858D01*
Y105252D01*
X363879D01*
X364884Y105521D01*
X365785Y106042D01*
X366521Y106778D01*
X367042Y107679D01*
X367311Y108684D01*
Y108705D01*
D02*
G37*
G36*
X362858D02*
X359405D01*
Y108684D01*
X359675Y107679D01*
X360195Y106778D01*
X360931Y106042D01*
X361832Y105521D01*
X362838Y105252D01*
X362858D01*
Y108705D01*
D02*
G37*
G36*
X349594Y113157D02*
X341689D01*
Y105252D01*
X349594D01*
Y113157D01*
D02*
G37*
G36*
X337311Y108705D02*
X333858D01*
Y105252D01*
X333879D01*
X334884Y105521D01*
X335785Y106042D01*
X336521Y106778D01*
X337042Y107679D01*
X337311Y108684D01*
Y108705D01*
D02*
G37*
G36*
X332858D02*
X329405D01*
Y108684D01*
X329675Y107679D01*
X330195Y106778D01*
X330931Y106042D01*
X331833Y105521D01*
X332838Y105252D01*
X332858D01*
Y108705D01*
D02*
G37*
G36*
X319595Y113157D02*
X311689D01*
Y105252D01*
X319595D01*
Y113157D01*
D02*
G37*
G36*
X307811Y108705D02*
X304358D01*
Y105252D01*
X304379D01*
X305384Y105521D01*
X306285Y106042D01*
X307021Y106778D01*
X307542Y107679D01*
X307811Y108684D01*
Y108705D01*
D02*
G37*
G36*
X303358D02*
X299905D01*
Y108684D01*
X300175Y107679D01*
X300695Y106778D01*
X301431Y106042D01*
X302332Y105521D01*
X303338Y105252D01*
X303358D01*
Y108705D01*
D02*
G37*
G36*
X290094Y113157D02*
X282189D01*
Y105252D01*
X290094D01*
Y113157D01*
D02*
G37*
%LPD*%
G36*
X437316Y253022D02*
X437047Y252020D01*
Y250980D01*
X437317Y249974D01*
X437837Y249073D01*
X437871Y249039D01*
X437680Y248577D01*
X434320D01*
X434129Y249039D01*
X434163Y249073D01*
X434683Y249974D01*
X434953Y250980D01*
Y252020D01*
X434683Y253026D01*
X434163Y253927D01*
X433427Y254663D01*
X432526Y255183D01*
X431520Y255453D01*
X430480D01*
X429474Y255183D01*
X428573Y254663D01*
X427837Y253927D01*
X427317Y253026D01*
X427047Y252020D01*
Y250980D01*
X427317Y249974D01*
X427837Y249073D01*
X427871Y249039D01*
X427680Y248577D01*
X424320D01*
X424129Y249039D01*
X424163Y249073D01*
X424683Y249974D01*
X424953Y250980D01*
Y252020D01*
X424683Y253026D01*
X424163Y253927D01*
X423427Y254663D01*
X422526Y255183D01*
X421520Y255453D01*
X420480D01*
X419478Y255185D01*
X403100Y271563D01*
X402604Y271894D01*
X402019Y272011D01*
X398716D01*
X385740Y284987D01*
X385931Y285449D01*
X386033D01*
X387064Y285725D01*
X387987Y286258D01*
X388742Y287013D01*
X389275Y287936D01*
X389284Y287971D01*
X402366D01*
X437316Y253022D01*
D02*
G37*
D11*
X434776Y225276D02*
X461000Y251500D01*
X192000Y229000D02*
X195724Y225276D01*
X434776D01*
X192000Y227117D02*
Y229000D01*
X440276Y220776D02*
X471000Y251500D01*
X180224Y220776D02*
X440276D01*
X172000Y229000D02*
X180224Y220776D01*
X463361Y209139D02*
X481000Y191500D01*
X161861Y209139D02*
X463361D01*
X142000Y229000D02*
X161861Y209139D01*
X182000Y229000D02*
X192000D01*
X254137Y254863D02*
X256137D01*
X257000Y254000D01*
X230000Y279000D02*
X254137Y254863D01*
X133000Y249500D02*
X137256Y253756D01*
X132000Y249500D02*
X133000D01*
X247244Y253756D02*
X257000Y244000D01*
X137256Y253756D02*
X247244D01*
X230000Y279000D02*
Y290000D01*
X256951Y267549D02*
X257500Y267000D01*
X254030Y267549D02*
X256951D01*
X235350Y286229D02*
X254030Y267549D01*
X355500Y285481D02*
X379742Y261239D01*
X387558D01*
X395453Y253344D01*
X355500Y285481D02*
Y289500D01*
X578981Y249519D02*
X594481D01*
X570500Y258000D02*
X578981Y249519D01*
X591392Y120000D02*
X593892Y122500D01*
X511519Y120000D02*
X591392D01*
X593892Y122500D02*
X594500D01*
X485500Y279500D02*
X594500D01*
X475000Y290000D02*
X485500Y279500D01*
X576500Y239500D02*
X594500D01*
X570500Y233500D02*
X576500Y239500D01*
X565731Y160769D02*
X594000Y132500D01*
X594500D01*
X461731Y160769D02*
X565731D01*
X431000Y191500D02*
X461731Y160769D01*
X515500Y110000D02*
X592000D01*
X594500Y112500D01*
X505000Y120500D02*
X515500Y110000D01*
X421000Y158776D02*
Y191500D01*
Y158776D02*
X446532Y133244D01*
X498275D01*
X511519Y120000D01*
X570500Y233500D02*
X581500Y222500D01*
Y186500D02*
Y222500D01*
X556244Y186756D02*
Y243744D01*
X570500Y258000D01*
X556244Y186756D02*
X556500Y186500D01*
X465000Y267500D02*
X481000Y251500D01*
X465000Y267500D02*
Y290000D01*
X446547Y247047D02*
X451000Y251500D01*
X399156Y247047D02*
X446547D01*
X395453Y250750D02*
X399156Y247047D01*
X395453Y250750D02*
Y253344D01*
X398082Y270481D02*
X402019D01*
X421000Y251500D01*
X375500Y289500D02*
X376476Y288524D01*
X380040D01*
X398082Y270481D01*
X385500Y289500D02*
X403000D01*
X441000Y251500D01*
X132000Y275000D02*
X151650Y294650D01*
X235350Y286229D02*
Y291225D01*
X231926Y294650D02*
X235350Y291225D01*
X151650Y294650D02*
X231926D01*
D26*
X142000Y229000D02*
D03*
X152000D02*
D03*
X162000D02*
D03*
X172000D02*
D03*
X182000D02*
D03*
X192000D02*
D03*
X202000D02*
D03*
X212000D02*
D03*
X222000D02*
D03*
X232000D02*
D03*
Y109000D02*
D03*
X222000D02*
D03*
X152000D02*
D03*
D27*
X142000D02*
D03*
D28*
X224500Y249500D02*
D03*
X234500D02*
D03*
X202500D02*
D03*
X212500D02*
D03*
X207000Y272500D02*
D03*
X217000D02*
D03*
X381000Y266000D02*
D03*
X391000D02*
D03*
X560500Y258000D02*
D03*
X570500D02*
D03*
X560500Y233500D02*
D03*
X570500D02*
D03*
X257000Y254000D02*
D03*
Y244000D02*
D03*
X257500Y277000D02*
D03*
Y267000D02*
D03*
X505000Y137500D02*
D03*
X495000D02*
D03*
X504500Y154500D02*
D03*
X494500D02*
D03*
X505000Y120500D02*
D03*
X495000D02*
D03*
X385000Y156500D02*
D03*
X375000D02*
D03*
X355500D02*
D03*
X345500D02*
D03*
X326000D02*
D03*
X316000D02*
D03*
X296000D02*
D03*
X286000D02*
D03*
X381000Y176000D02*
D03*
X391000D02*
D03*
D29*
X166142Y273295D02*
D03*
X183858D02*
D03*
Y247705D02*
D03*
X301000Y191500D02*
D03*
X311000D02*
D03*
X321000D02*
D03*
X331000D02*
D03*
X341000D02*
D03*
X351000D02*
D03*
X361000D02*
D03*
X371000D02*
D03*
X381000D02*
D03*
X391000D02*
D03*
X401000D02*
D03*
X411000D02*
D03*
X421000D02*
D03*
X431000D02*
D03*
X441000D02*
D03*
X451000D02*
D03*
X461000D02*
D03*
X471000D02*
D03*
X481000D02*
D03*
X291000Y251500D02*
D03*
X301000D02*
D03*
X311000D02*
D03*
X321000D02*
D03*
X331000D02*
D03*
X341000D02*
D03*
X351000D02*
D03*
X361000D02*
D03*
X371000D02*
D03*
X381000D02*
D03*
X391000D02*
D03*
X401000D02*
D03*
X411000D02*
D03*
X421000D02*
D03*
X431000D02*
D03*
X441000D02*
D03*
X451000D02*
D03*
X461000D02*
D03*
X471000D02*
D03*
X481000D02*
D03*
X392858Y109205D02*
D03*
Y134795D02*
D03*
X375142D02*
D03*
X363358Y109205D02*
D03*
Y134795D02*
D03*
X345642D02*
D03*
X333358Y109205D02*
D03*
Y134795D02*
D03*
X315642D02*
D03*
X303858Y109205D02*
D03*
Y134795D02*
D03*
X286142D02*
D03*
D30*
X166142Y247705D02*
D03*
X291000Y191500D02*
D03*
X375142Y109205D02*
D03*
X345642D02*
D03*
X315642D02*
D03*
X286142D02*
D03*
D31*
X594500Y112500D02*
D03*
Y219500D02*
D03*
D32*
Y122500D02*
D03*
Y132500D02*
D03*
Y142500D02*
D03*
Y152500D02*
D03*
Y162500D02*
D03*
Y279500D02*
D03*
Y269500D02*
D03*
Y259500D02*
D03*
Y249500D02*
D03*
Y239500D02*
D03*
Y229500D02*
D03*
X132000Y275000D02*
D03*
Y249500D02*
D03*
X444500Y125000D02*
D03*
Y153500D02*
D03*
X385500Y289500D02*
D03*
X375500D02*
D03*
X365500D02*
D03*
X325500D02*
D03*
X335500D02*
D03*
X345500D02*
D03*
X355500D02*
D03*
D33*
X581500Y186500D02*
D03*
X531500D02*
D03*
X556500D02*
D03*
X506000D02*
D03*
D34*
X475000Y290000D02*
D03*
X485000D02*
D03*
X495000D02*
D03*
X210000D02*
D03*
X220000D02*
D03*
X230000D02*
D03*
D35*
X465000D02*
D03*
X240000D02*
D03*
D36*
X122000Y275000D02*
D03*
Y249500D02*
D03*
X434500Y125000D02*
D03*
Y153500D02*
D03*
X315500Y289500D02*
D03*
M02*
